Tillana_1.ufo
<glyph name="dollar" format="1">
  <advance width="724"/>
  <unicode hex="0024"/>
  <outline>
    <contour>
      <point x="312" y="124" type="line"/>
      <point x="241" y="-94" type="line"/>
      <point x="256" y="-125"/>
      <point x="284" y="-140"/>
      <point x="317" y="-131" type="curve"/>
      <point x="448" y="642" type="line"/>
      <point x="524" y="846" type="line"/>
      <point x="509" y="877"/>
      <point x="485" y="888"/>
      <point x="451" y="877" type="curve"/>
    </contour>
    <component base="S"/>
  </outline>
</glyph>
<glyph name="ampersand" format="1">
  <advance width="751"/>
  <unicode hex="0026"/>
  <outline>
    <contour>
      <point x="517" y="50"/>
      <point x="581" y="80"/>
      <point x="686" y="139" type="curve"/>
      <point x="711" y="231"/>
      <point x="667" y="301"/>
      <point x="580" y="287" type="curve"/>
      <point x="515" y="227"/>
      <point x="469" y="188"/>
      <point x="380" y="149" type="curve"/>
      <point x="339" y="172"/>
      <point x="303" y="195"/>
      <point x="293" y="230" type="curve"/>
      <point x="352" y="281"/>
      <point x="443" y="317"/>
      <point x="536" y="332" type="curve"/>
      <point x="564" y="400"/>
      <point x="554" y="451"/>
      <point x="500" y="464" type="curve"/>
      <point x="483" y="452"/>
      <point x="444" y="443"/>
      <point x="415" y="442" type="curve"/>
      <point x="382" y="453"/>
      <point x="341" y="475"/>
      <point x="327" y="516" type="curve"/>
      <point x="378" y="564"/>
      <point x="422" y="590"/>
      <point x="493" y="603" type="curve"/>
      <point x="558" y="507" type="line"/>
      <point x="677" y="539"/>
      <point x="710" y="574"/>
      <point x="677" y="662" type="curve"/>
      <point x="628" y="693"/>
      <point x="578" y="726"/>
      <point x="493" y="726" type="curve" smooth="yes"/>
      <point x="307" y="726"/>
      <point x="141" y="630"/>
      <point x="91" y="512" type="curve"/>
      <point x="107" y="443"/>
      <point x="187" y="395"/>
      <point x="286" y="392" type="curve"/>
      <point x="172" y="371"/>
      <point x="100" y="289"/>
      <point x="67" y="213" type="curve"/>
      <point x="108" y="102"/>
      <point x="203" y="64"/>
      <point x="348" y="31" type="curve"/>
    </contour>
    <contour>
      <point x="435" y="762"/>
      <point x="492" y="761"/>
      <point x="567" y="780" type="curve"/>
      <point x="631" y="994" type="line"/>
      <point x="577" y="1044"/>
      <point x="506" y="1040"/>
      <point x="403" y="982" type="curve"/>
      <point x="404" y="801" type="line"/>
    </contour>
    <contour>
      <point x="441" y="-1"/>
      <point x="384" y="0"/>
      <point x="309" y="-19" type="curve"/>
      <point x="246" y="-233" type="line"/>
      <point x="300" y="-282"/>
      <point x="370" y="-278"/>
      <point x="473" y="-220" type="curve"/>
      <point x="472" y="-40" type="line"/>
    </contour>
  </outline>
</glyph>
<glyph name="parenleft" format="1">
  <advance width="641"/>
  <unicode hex="0028"/>
  <outline>
    <contour>
      <point x="536" y="769" type="curve"/>
      <point x="681" y="867" type="line"/>
      <point x="683" y="919"/>
      <point x="641" y="964"/>
      <point x="576" y="957" type="curve"/>
      <point x="359" y="846"/>
      <point x="196" y="677"/>
      <point x="171" y="421" type="curve" smooth="yes"/>
      <point x="149" y="193"/>
      <point x="286" y="-18"/>
      <point x="409" y="-117" type="curve"/>
      <point x="471" y="-128"/>
      <point x="513" y="-101"/>
      <point x="529" y="-67" type="curve"/>
      <point x="431" y="50"/>
      <point x="378" y="206"/>
      <point x="400" y="396" type="curve" smooth="yes"/>
      <point x="418" y="534"/>
      <point x="455" y="657"/>
    </contour>
  </outline>
</glyph>
<glyph name="asterisk" format="1">
  <advance width="425"/>
  <unicode hex="002A"/>
  <outline>
    <contour>
      <point x="316" y="774" type="line"/>
      <point x="469" y="743" type="line"/>
      <point x="483" y="774"/>
      <point x="485" y="805"/>
      <point x="479" y="833" type="curve"/>
      <point x="318" y="802" type="line"/>
      <point x="365" y="959" type="line"/>
      <point x="337" y="966"/>
      <point x="306" y="966"/>
      <point x="275" y="959" type="curve"/>
      <point x="289" y="802" type="line"/>
      <point x="136" y="833" type="line"/>
      <point x="122" y="803"/>
      <point x="120" y="772"/>
      <point x="127" y="743" type="curve"/>
      <point x="287" y="774" type="line"/>
      <point x="240" y="617" type="line"/>
      <point x="272" y="608"/>
      <point x="304" y="608"/>
      <point x="330" y="617" type="curve"/>
    </contour>
    <contour>
      <point x="323" y="788" type="line"/>
      <point x="463" y="877" type="line"/>
      <point x="452" y="904"/>
      <point x="435" y="924"/>
      <point x="407" y="941" type="curve"/>
      <point x="305" y="809" type="line"/>
      <point x="229" y="939" type="line"/>
      <point x="200" y="925"/>
      <point x="177" y="905"/>
      <point x="160" y="877" type="curve"/>
      <point x="282" y="788" type="line"/>
      <point x="142" y="699" type="line"/>
      <point x="153" y="670"/>
      <point x="171" y="650"/>
      <point x="198" y="636" type="curve"/>
      <point x="300" y="767" type="line"/>
      <point x="376" y="636" type="line"/>
      <point x="407" y="648"/>
      <point x="429" y="668"/>
      <point x="446" y="699" type="curve"/>
    </contour>
  </outline>
</glyph>
<glyph name="hyphen" format="1">
  <advance width="590"/>
  <unicode hex="002D"/>
  <outline>
    <contour>
      <point x="551" y="339"/>
      <point x="556" y="388"/>
      <point x="536" y="400" type="curve"/>
      <point x="287" y="380" type="line"/>
      <point x="90" y="385" type="line"/>
      <point x="65" y="349"/>
      <point x="61" y="306"/>
      <point x="76" y="287" type="curve"/>
      <point x="519" y="298" type="line"/>
    </contour>
  </outline>
</glyph>
<glyph name="zero" format="1">
  <advance width="689"/>
  <unicode hex="0030"/>
  <outline>
    <contour>
      <point x="361" y="748" type="curve" smooth="yes"/>
      <point x="187" y="748"/>
      <point x="89" y="598"/>
      <point x="55" y="385" type="curve" smooth="yes"/>
      <point x="21" y="163"/>
      <point x="153" y="0"/>
      <point x="308" y="0" type="curve" smooth="yes"/>
      <point x="523" y="0"/>
      <point x="652" y="150"/>
      <point x="682" y="381" type="curve" smooth="yes"/>
      <point x="701" y="536"/>
      <point x="590" y="748"/>
    </contour>
    <contour>
      <point x="370" y="637" type="curve"/>
      <point x="403" y="634"/>
      <point x="426" y="624"/>
      <point x="447" y="605" type="curve"/>
      <point x="452" y="564"/>
      <point x="450" y="474"/>
      <point x="429" y="378" type="curve" smooth="yes"/>
      <point x="402" y="243"/>
      <point x="374" y="151"/>
      <point x="362" y="97" type="curve"/>
      <point x="322" y="114"/>
      <point x="292" y="136"/>
      <point x="272" y="168" type="curve"/>
      <point x="274" y="218"/>
      <point x="284" y="279"/>
      <point x="306" y="378" type="curve" smooth="yes"/>
      <point x="333" y="496"/>
      <point x="340" y="547"/>
    </contour>
  </outline>
</glyph>
<glyph name="one" format="1">
  <advance width="425"/>
  <unicode hex="0031"/>
  <outline>
    <contour>
      <point x="389" y="546" type="line"/>
      <point x="452" y="715" type="line"/>
      <point x="393" y="776"/>
      <point x="241" y="780"/>
      <point x="161" y="758" type="curve"/>
      <point x="31" y="559" type="line"/>
      <point x="56" y="525"/>
      <point x="91" y="506"/>
      <point x="127" y="512" type="curve"/>
      <point x="177" y="563" type="line"/>
      <point x="195" y="551" type="line"/>
      <point x="147" y="474" type="line"/>
      <point x="51" y="34" type="line"/>
      <point x="127" y="-11"/>
      <point x="190" y="-18"/>
      <point x="296" y="-1" type="curve"/>
      <point x="310" y="182" type="line"/>
    </contour>
  </outline>
</glyph>
<glyph name="two" format="1">
  <advance width="586"/>
  <unicode hex="0032"/>
  <outline>
    <contour>
      <point x="437" y="278" type="line" smooth="yes"/>
      <point x="516" y="342"/>
      <point x="559" y="406"/>
      <point x="559" y="471" type="curve" smooth="yes"/>
      <point x="559" y="592"/>
      <point x="411" y="777"/>
      <point x="299" y="777" type="curve" smooth="yes"/>
      <point x="198" y="777"/>
      <point x="88" y="703"/>
      <point x="32" y="598" type="curve"/>
      <point x="56" y="545"/>
      <point x="110" y="482"/>
      <point x="153" y="446" type="curve"/>
      <point x="169" y="449"/>
      <point x="231" y="480"/>
      <point x="241" y="497" type="curve"/>
      <point x="222" y="550" type="line"/>
      <point x="245" y="583"/>
      <point x="284" y="606"/>
      <point x="316" y="606" type="curve" smooth="yes"/>
      <point x="352" y="606"/>
      <point x="381" y="581"/>
      <point x="400" y="546" type="curve"/>
      <point x="387" y="513"/>
      <point x="366" y="483"/>
      <point x="329" y="447" type="curve" smooth="yes"/>
      <point x="12" y="158" type="line"/>
      <point x="7" y="91"/>
      <point x="66" y="31"/>
      <point x="113" y="-1" type="curve"/>
      <point x="232" y="21" type="line"/>
      <point x="492" y="-24" type="line"/>
      <point x="560" y="73"/>
      <point x="583" y="145"/>
      <point x="547" y="185" type="curve"/>
      <point x="273" y="127" type="line"/>
      <point x="263" y="135" type="line"/>
    </contour>
  </outline>
</glyph>
<glyph name="three" format="1">
  <advance width="607"/>
  <unicode hex="0033"/>
  <outline>
    <contour>
      <point x="502" y="427" type="line" smooth="yes"/>
      <point x="572" y="454"/>
      <point x="597" y="496"/>
      <point x="598" y="549" type="curve" smooth="yes"/>
      <point x="597" y="640"/>
      <point x="447" y="777"/>
      <point x="318" y="777" type="curve" smooth="yes"/>
      <point x="208" y="777"/>
      <point x="97" y="703"/>
      <point x="32" y="598" type="curve"/>
      <point x="54" y="545"/>
      <point x="109" y="482"/>
      <point x="151" y="446" type="curve"/>
      <point x="167" y="449"/>
      <point x="229" y="480"/>
      <point x="239" y="497" type="curve"/>
      <point x="220" y="552" type="line"/>
      <point x="241" y="574"/>
      <point x="267" y="591"/>
      <point x="300" y="591" type="curve" smooth="yes"/>
      <point x="342" y="591"/>
      <point x="378" y="568"/>
      <point x="400" y="519" type="curve"/>
      <point x="233" y="389" type="line"/>
      <point x="224" y="328" type="line"/>
      <point x="287" y="312"/>
      <point x="332" y="300"/>
      <point x="366" y="271" type="curve"/>
      <point x="309" y="222"/>
      <point x="212" y="182"/>
      <point x="32" y="145" type="curve"/>
      <point x="21" y="107"/>
      <point x="32" y="31"/>
      <point x="79" y="-2" type="curve"/>
      <point x="348" y="13"/>
      <point x="575" y="112"/>
      <point x="583" y="237" type="curve" smooth="yes"/>
      <point x="590" y="317"/>
      <point x="493" y="369"/>
      <point x="381" y="416" type="curve"/>
      <point x="362" y="372" type="line"/>
    </contour>
  </outline>
</glyph>
<glyph name="five" format="1">
  <advance width="564"/>
  <unicode hex="0035"/>
  <outline>
    <contour>
      <point x="297" y="718" type="line"/>
      <point x="169" y="750" type="line" smooth="yes"/>
      <point x="118" y="732"/>
      <point x="94" y="715"/>
      <point x="85" y="616" type="curve" smooth="yes"/>
      <point x="80" y="529" type="line" smooth="yes"/>
      <point x="73" y="439"/>
      <point x="100" y="393"/>
      <point x="182" y="364" type="curve" smooth="yes"/>
      <point x="253" y="336" type="line" smooth="yes"/>
      <point x="326" y="310"/>
      <point x="348" y="288"/>
      <point x="363" y="252" type="curve"/>
      <point x="349" y="211"/>
      <point x="339" y="184"/>
      <point x="314" y="153" type="curve"/>
      <point x="85" y="256" type="line"/>
      <point x="35" y="235"/>
      <point x="-2" y="161"/>
      <point x="9" y="44" type="curve"/>
      <point x="85" y="9"/>
      <point x="157" y="-7"/>
      <point x="220" y="-7" type="curve" smooth="yes"/>
      <point x="374" y="-7"/>
      <point x="521" y="141"/>
      <point x="535" y="285" type="curve" smooth="yes"/>
      <point x="545" y="386"/>
      <point x="502" y="449"/>
      <point x="352" y="472" type="curve" smooth="yes"/>
      <point x="245" y="488" type="line"/>
      <point x="299" y="615" type="line"/>
      <point x="518" y="571" type="line"/>
      <point x="553" y="613"/>
      <point x="600" y="683"/>
      <point x="528" y="778" type="curve"/>
    </contour>
  </outline>
</glyph>
<glyph name="seven" format="1">
  <advance width="601"/>
  <unicode hex="0037"/>
  <outline>
    <contour>
      <point x="529" y="750" type="curve"/>
      <point x="402" y="717" type="line"/>
      <point x="145" y="768" type="line"/>
      <point x="75" y="704"/>
      <point x="50" y="609"/>
      <point x="83" y="562" type="curve"/>
      <point x="381" y="584" type="line"/>
      <point x="392" y="571" type="line"/>
      <point x="276" y="438" type="line"/>
      <point x="68" y="45" type="line"/>
      <point x="99" y="-6"/>
      <point x="193" y="-23"/>
      <point x="267" y="2" type="curve"/>
      <point x="615" y="595" type="line" smooth="yes"/>
      <point x="666" y="681"/>
      <point x="583" y="730"/>
    </contour>
  </outline>
</glyph>
<glyph name="eight" format="1">
  <advance width="656"/>
  <unicode hex="0038"/>
  <outline>
    <contour>
      <point x="428" y="389" type="line"/>
      <point x="608" y="475"/>
      <point x="674" y="534"/>
      <point x="672" y="605" type="curve" smooth="yes"/>
      <point x="669" y="683"/>
      <point x="573" y="774"/>
      <point x="468" y="778" type="curve" smooth="yes"/>
      <point x="264" y="781"/>
      <point x="89" y="680"/>
      <point x="85" y="552" type="curve" smooth="yes"/>
      <point x="80" y="409"/>
      <point x="396" y="339"/>
      <point x="411" y="209" type="curve"/>
      <point x="409" y="183"/>
      <point x="395" y="144"/>
      <point x="373" y="123" type="curve"/>
      <point x="320" y="124"/>
      <point x="274" y="151"/>
      <point x="254" y="201" type="curve"/>
      <point x="279" y="254"/>
      <point x="316" y="305"/>
      <point x="369" y="347" type="curve"/>
      <point x="309" y="399" type="line"/>
      <point x="119" y="329"/>
      <point x="30" y="257"/>
      <point x="25" y="175" type="curve" smooth="yes"/>
      <point x="20" y="84"/>
      <point x="129" y="0"/>
      <point x="286" y="-4" type="curve" smooth="yes"/>
      <point x="440" y="-9"/>
      <point x="627" y="113"/>
      <point x="630" y="254" type="curve" smooth="yes"/>
      <point x="633" y="430"/>
      <point x="377" y="466"/>
      <point x="328" y="568" type="curve"/>
      <point x="347" y="603"/>
      <point x="380" y="628"/>
      <point x="414" y="640" type="curve"/>
      <point x="448" y="617"/>
      <point x="473" y="582"/>
      <point x="477" y="535" type="curve"/>
      <point x="441" y="495"/>
      <point x="406" y="466"/>
      <point x="363" y="439" type="curve"/>
    </contour>
  </outline>
</glyph>
<glyph name="nine" format="1">
  <advance width="645"/>
  <unicode hex="0039"/>
  <outline>
    <contour>
      <point x="169" y="-11" type="curve"/>
      <point x="459" y="24"/>
      <point x="613" y="184"/>
      <point x="641" y="403" type="curve" smooth="yes"/>
      <point x="672" y="637"/>
      <point x="525" y="776"/>
      <point x="375" y="776" type="curve" smooth="yes"/>
      <point x="215" y="776"/>
      <point x="55" y="624"/>
      <point x="36" y="466" type="curve" smooth="yes"/>
      <point x="22" y="347"/>
      <point x="88" y="268"/>
      <point x="185" y="268" type="curve" smooth="yes"/>
      <point x="315" y="268"/>
      <point x="428" y="397"/>
      <point x="463" y="652" type="curve"/>
      <point x="407" y="649" type="line"/>
      <point x="377" y="545"/>
      <point x="333" y="443"/>
      <point x="282" y="417" type="curve"/>
      <point x="263" y="430"/>
      <point x="259" y="468"/>
      <point x="265" y="515" type="curve" smooth="yes"/>
      <point x="276" y="580"/>
      <point x="323" y="637"/>
      <point x="362" y="638" type="curve"/>
      <point x="398" y="637"/>
      <point x="450" y="625"/>
      <point x="435" y="493" type="curve" smooth="yes"/>
      <point x="426" y="366"/>
      <point x="380" y="246"/>
      <point x="309" y="175" type="curve"/>
      <point x="249" y="157"/>
      <point x="178" y="151"/>
      <point x="110" y="154" type="curve"/>
      <point x="76" y="98"/>
      <point x="128" y="14"/>
    </contour>
  </outline>
</glyph>
<glyph name="less" format="1">
  <advance width="608"/>
  <unicode hex="003C"/>
  <outline>
    <contour>
      <point x="417" y="430" type="line"/>
      <point x="571" y="488" type="line"/>
      <point x="597" y="545"/>
      <point x="581" y="596"/>
      <point x="554" y="607" type="curve"/>
      <point x="84" y="394" type="line"/>
      <point x="69" y="371"/>
      <point x="65" y="349"/>
      <point x="72" y="323" type="curve"/>
      <point x="275" y="217" type="line"/>
      <point x="472" y="100" type="line"/>
      <point x="508" y="122"/>
      <point x="531" y="145"/>
      <point x="523" y="198" type="curve"/>
      <point x="239" y="351" type="line"/>
    </contour>
  </outline>
</glyph>
<glyph name="question" format="1">
  <advance width="805"/>
  <unicode hex="003F"/>
  <outline>
    <contour>
      <point x="387" y="364" type="line"/>
      <point x="610" y="420"/>
      <point x="751" y="516"/>
      <point x="785" y="653" type="curve" smooth="yes"/>
      <point x="821" y="788"/>
      <point x="716" y="937"/>
      <point x="580" y="937" type="curve" smooth="yes"/>
      <point x="474" y="937"/>
      <point x="344" y="898"/>
      <point x="195" y="827" type="curve"/>
      <point x="166" y="714"/>
      <point x="199" y="570"/>
      <point x="265" y="570" type="curve" smooth="yes"/>
      <point x="278" y="570"/>
      <point x="296" y="576"/>
      <point x="319" y="585" type="curve"/>
      <point x="321" y="655" type="line"/>
      <point x="409" y="704"/>
      <point x="531" y="746"/>
      <point x="638" y="751" type="curve"/>
      <point x="646" y="741"/>
      <point x="650" y="725"/>
      <point x="644" y="706" type="curve" smooth="yes"/>
      <point x="626" y="641"/>
      <point x="461" y="549"/>
      <point x="324" y="537" type="curve"/>
      <point x="281" y="514"/>
      <point x="243" y="466"/>
      <point x="217" y="420" type="curve"/>
      <point x="272" y="277" type="line" smooth="yes"/>
      <point x="279" y="255"/>
      <point x="332" y="257"/>
      <point x="369" y="271" type="curve"/>
    </contour>
    <contour>
      <point x="275" y="-8" type="curve" smooth="yes"/>
      <point x="334" y="-8"/>
      <point x="393" y="30"/>
      <point x="440" y="91" type="curve"/>
      <point x="433" y="156"/>
      <point x="376" y="228"/>
      <point x="329" y="228" type="curve"/>
      <point x="262" y="219"/>
      <point x="207" y="151"/>
      <point x="191" y="79" type="curve"/>
      <point x="195" y="29"/>
      <point x="231" y="-8"/>
    </contour>
  </outline>
</glyph>
<glyph name="at" format="1">
  <advance width="1285"/>
  <unicode hex="0040"/>
  <outline>
    <contour>
      <point x="808" y="288" type="line"/>
      <point x="755" y="248"/>
      <point x="687" y="197"/>
      <point x="630" y="158" type="curve"/>
      <point x="606" y="174"/>
      <point x="594" y="205"/>
      <point x="594" y="239" type="curve" smooth="yes"/>
      <point x="594" y="309"/>
      <point x="646" y="393"/>
      <point x="734" y="438" type="curve"/>
      <point x="765" y="420"/>
      <point x="796" y="384"/>
      <point x="816" y="343" type="curve"/>
      <point x="871" y="381" type="line"/>
      <point x="846" y="436"/>
      <point x="801" y="521"/>
      <point x="749" y="562" type="curve"/>
      <point x="496" y="554"/>
      <point x="348" y="378"/>
      <point x="348" y="235" type="curve" smooth="yes"/>
      <point x="348" y="122"/>
      <point x="423" y="23"/>
      <point x="616" y="15" type="curve"/>
      <point x="695" y="92"/>
      <point x="803" y="190"/>
      <point x="851" y="233" type="curve"/>
    </contour>
    <contour>
      <point x="732" y="-77"/>
      <point x="657" y="-123"/>
      <point x="568" y="-157" type="curve"/>
      <point x="309" y="-105"/>
      <point x="233" y="57"/>
      <point x="233" y="241" type="curve" smooth="yes"/>
      <point x="233" y="476"/>
      <point x="503" y="711"/>
      <point x="780" y="745" type="curve"/>
      <point x="986" y="720"/>
      <point x="1138" y="641"/>
      <point x="1160" y="409" type="curve"/>
      <point x="1123" y="272"/>
      <point x="1048" y="190"/>
      <point x="911" y="92" type="curve"/>
      <point x="952" y="92" type="line"/>
      <point x="957" y="169"/>
      <point x="962" y="252"/>
      <point x="981" y="326" type="curve"/>
      <point x="1080" y="499" type="line"/>
      <point x="1056" y="567"/>
      <point x="990" y="578"/>
      <point x="851" y="552" type="curve"/>
      <point x="831" y="520"/>
      <point x="828" y="485"/>
      <point x="831" y="437" type="curve"/>
      <point x="806" y="343" type="line"/>
      <point x="798" y="288" type="line"/>
      <point x="776" y="181" type="line"/>
      <point x="798" y="171" type="line"/>
      <point x="777" y="108"/>
      <point x="794" y="38"/>
      <point x="920" y="8" type="curve"/>
      <point x="1118" y="88"/>
      <point x="1277" y="277"/>
      <point x="1277" y="425" type="curve" smooth="yes"/>
      <point x="1277" y="670"/>
      <point x="1044" y="847"/>
      <point x="801" y="847" type="curve" smooth="yes"/>
      <point x="421" y="847"/>
      <point x="39" y="574"/>
      <point x="39" y="235" type="curve" smooth="yes"/>
      <point x="39" y="-27"/>
      <point x="269" y="-224"/>
      <point x="576" y="-256" type="curve"/>
      <point x="688" y="-238"/>
      <point x="795" y="-199"/>
      <point x="876" y="-151" type="curve"/>
      <point x="884" y="-82"/>
      <point x="855" y="-47"/>
      <point x="769" y="-38" type="curve" smooth="yes"/>
    </contour>
  </outline>
</glyph>
<glyph name="B" format="1">
  <advance width="753"/>
  <unicode hex="0042"/>
  <outline>
    <contour>
      <point x="479" y="660"/>
      <point x="517" y="601"/>
      <point x="505" y="533" type="curve" smooth="yes"/>
      <point x="499" y="498"/>
      <point x="480" y="461"/>
      <point x="450" y="430" type="curve"/>
      <point x="419" y="415"/>
      <point x="390" y="411"/>
      <point x="347" y="412" type="curve"/>
      <point x="375" y="641" type="line"/>
    </contour>
    <contour>
      <point x="384" y="108"/>
      <point x="329" y="100"/>
      <point x="277" y="108" type="curve"/>
      <point x="332" y="334" type="line"/>
      <point x="387" y="338"/>
      <point x="421" y="330"/>
      <point x="457" y="320" type="curve"/>
      <point x="476" y="288"/>
      <point x="482" y="266"/>
      <point x="482" y="244" type="curve" smooth="yes"/>
      <point x="483" y="205"/>
      <point x="469" y="165"/>
      <point x="439" y="125" type="curve"/>
    </contour>
    <contour>
      <point x="565" y="394" type="line"/>
      <point x="678" y="433"/>
      <point x="738" y="494"/>
      <point x="739" y="578" type="curve" smooth="yes"/>
      <point x="741" y="670"/>
      <point x="643" y="750"/>
      <point x="411" y="750" type="curve" smooth="yes"/>
      <point x="337" y="750"/>
      <point x="179" y="737"/>
      <point x="105" y="713" type="curve"/>
      <point x="85" y="694"/>
      <point x="89" y="660"/>
      <point x="114" y="641" type="curve"/>
      <point x="164" y="640" type="line"/>
      <point x="187" y="507" type="line"/>
      <point x="162" y="386"/>
      <point x="118" y="259"/>
      <point x="62" y="129" type="curve"/>
      <point x="66" y="53"/>
      <point x="163" y="9"/>
      <point x="232" y="0" type="curve"/>
      <point x="416" y="-6"/>
      <point x="484" y="8"/>
      <point x="601" y="44" type="curve"/>
      <point x="693" y="123"/>
      <point x="719" y="181"/>
      <point x="720" y="248" type="curve" smooth="yes"/>
      <point x="721" y="283"/>
      <point x="710" y="314"/>
      <point x="680" y="346" type="curve"/>
      <point x="655" y="364"/>
      <point x="618" y="379"/>
      <point x="564" y="385" type="curve"/>
    </contour>
  </outline>
</glyph>
<glyph name="C" format="1">
  <advance width="725"/>
  <unicode hex="0043"/>
  <outline>
    <contour>
      <point x="450" y="660" type="line"/>
      <point x="483" y="624"/>
      <point x="489" y="542"/>
      <point x="491" y="484" type="curve"/>
      <point x="586" y="437"/>
      <point x="700" y="484"/>
      <point x="719" y="537" type="curve"/>
      <point x="704" y="640"/>
      <point x="653" y="719"/>
      <point x="523" y="766" type="curve"/>
      <point x="380" y="748"/>
      <point x="271" y="710"/>
      <point x="152" y="605" type="curve"/>
      <point x="91" y="508"/>
      <point x="56" y="427"/>
      <point x="54" y="330" type="curve" smooth="yes"/>
      <point x="51" y="158"/>
      <point x="168" y="28"/>
      <point x="381" y="0" type="curve"/>
      <point x="504" y="36"/>
      <point x="616" y="96"/>
      <point x="685" y="167" type="curve"/>
      <point x="687" y="220"/>
      <point x="668" y="254"/>
      <point x="610" y="250" type="curve"/>
      <point x="551" y="208"/>
      <point x="497" y="181"/>
      <point x="405" y="149" type="curve"/>
      <point x="328" y="191"/>
      <point x="290" y="250"/>
      <point x="291" y="350" type="curve" smooth="yes"/>
      <point x="292" y="443"/>
      <point x="332" y="557"/>
      <point x="428" y="654" type="curve"/>
    </contour>
    <contour>
      <point x="445" y="753" type="move" name="top"/>
    </contour>
    <contour>
      <point x="421" y="0" type="move" name="bottom"/>
    </contour>
  </outline>
</glyph>
<glyph name="D" format="1">
  <advance width="794"/>
  <unicode hex="0044"/>
  <outline>
    <contour>
      <point x="55" y="61"/>
      <point x="123" y="19"/>
      <point x="191" y="0" type="curve"/>
      <point x="358" y="-4"/>
      <point x="478" y="25"/>
      <point x="574" y="57" type="curve"/>
      <point x="703" y="151"/>
      <point x="791" y="275"/>
      <point x="794" y="419" type="curve" smooth="yes"/>
      <point x="798" y="615"/>
      <point x="679" y="753"/>
      <point x="431" y="753" type="curve" smooth="yes"/>
      <point x="344" y="753"/>
      <point x="195" y="733"/>
      <point x="105" y="697" type="curve"/>
      <point x="79" y="671"/>
      <point x="79" y="626"/>
      <point x="122" y="588" type="curve"/>
      <point x="168" y="594" type="line"/>
      <point x="164" y="451" type="line"/>
      <point x="136" y="333"/>
      <point x="95" y="243"/>
      <point x="42" y="133" type="curve"/>
    </contour>
    <contour>
      <point x="372" y="111"/>
      <point x="313" y="101"/>
      <point x="225" y="99" type="curve"/>
      <point x="283" y="72" type="line"/>
      <point x="315" y="320" type="line"/>
      <point x="364" y="473"/>
      <point x="395" y="583"/>
      <point x="427" y="684" type="curve"/>
      <point x="344" y="622" type="line"/>
      <point x="524" y="635"/>
      <point x="564" y="548"/>
      <point x="561" y="402" type="curve" smooth="yes"/>
      <point x="559" y="300"/>
      <point x="502" y="200"/>
      <point x="416" y="131" type="curve"/>
    </contour>
    <contour>
      <point x="415" y="753" type="move" name="top"/>
    </contour>
  </outline>
</glyph>
<glyph name="G" format="1">
  <advance width="769"/>
  <unicode hex="0047"/>
  <outline>
    <contour>
      <point x="592" y="211" type="line"/>
      <point x="580" y="171"/>
      <point x="557" y="106"/>
      <point x="525" y="40" type="curve"/>
      <point x="547" y="1"/>
      <point x="608" y="-12"/>
      <point x="660" y="14" type="curve"/>
      <point x="736" y="215"/>
      <point x="757" y="322"/>
      <point x="698" y="397" type="curve"/>
      <point x="607" y="389"/>
      <point x="500" y="396"/>
      <point x="410" y="407" type="curve"/>
      <point x="367" y="369"/>
      <point x="376" y="293"/>
      <point x="422" y="267" type="curve"/>
      <point x="538" y="291" type="line"/>
      <point x="542" y="285" type="line"/>
      <point x="496" y="224"/>
      <point x="442" y="179"/>
      <point x="380" y="134" type="curve"/>
      <point x="316" y="191"/>
      <point x="277" y="255"/>
      <point x="279" y="349" type="curve" smooth="yes"/>
      <point x="285" y="473"/>
      <point x="354" y="566"/>
      <point x="456" y="660" type="curve"/>
      <point x="471" y="660" type="line"/>
      <point x="521" y="611"/>
      <point x="524" y="556"/>
      <point x="534" y="490" type="curve"/>
      <point x="627" y="425"/>
      <point x="735" y="493"/>
      <point x="751" y="569" type="curve"/>
      <point x="715" y="660"/>
      <point x="680" y="719"/>
      <point x="492" y="761" type="curve"/>
      <point x="388" y="744"/>
      <point x="231" y="684"/>
      <point x="138" y="590" type="curve"/>
      <point x="92" y="536"/>
      <point x="46" y="436"/>
      <point x="44" y="330" type="curve" smooth="yes"/>
      <point x="41" y="172"/>
      <point x="139" y="27"/>
      <point x="385" y="0" type="curve"/>
      <point x="474" y="69"/>
      <point x="542" y="140"/>
      <point x="585" y="217" type="curve"/>
    </contour>
    <contour>
      <point x="476" y="753" type="move" name="top"/>
    </contour>
    <contour>
      <point x="401" y="0" type="move" name="bottom"/>
    </contour>
  </outline>
</glyph>
<glyph name="H" format="1">
  <advance width="861"/>
  <unicode hex="0048"/>
  <outline>
    <contour>
      <point x="369" y="415" type="line"/>
      <point x="63" y="426" type="line"/>
      <point x="27" y="376"/>
      <point x="28" y="346"/>
      <point x="59" y="309" type="curve"/>
      <point x="334" y="331" type="line"/>
      <point x="854" y="367" type="line"/>
      <point x="885" y="424"/>
      <point x="887" y="459"/>
      <point x="852" y="481" type="curve"/>
    </contour>
    <contour>
      <point x="437" y="735" type="line"/>
      <point x="412" y="747"/>
      <point x="381" y="753"/>
      <point x="344" y="753" type="curve" smooth="yes"/>
      <point x="294" y="753"/>
      <point x="233" y="740"/>
      <point x="173" y="711" type="curve"/>
      <point x="176" y="545" type="line"/>
      <point x="146" y="378"/>
      <point x="110" y="204"/>
      <point x="54" y="56" type="curve"/>
      <point x="79" y="3"/>
      <point x="253" y="-22"/>
      <point x="315" y="31" type="curve"/>
      <point x="327" y="194"/>
      <point x="331" y="343"/>
      <point x="342" y="460" type="curve"/>
    </contour>
    <contour>
      <point x="857" y="735" type="line"/>
      <point x="832" y="747"/>
      <point x="801" y="753"/>
      <point x="764" y="753" type="curve" smooth="yes"/>
      <point x="714" y="753"/>
      <point x="653" y="740"/>
      <point x="593" y="711" type="curve"/>
      <point x="596" y="545" type="line"/>
      <point x="566" y="378"/>
      <point x="530" y="204"/>
      <point x="474" y="56" type="curve"/>
      <point x="499" y="3"/>
      <point x="673" y="-22"/>
      <point x="735" y="31" type="curve"/>
      <point x="747" y="194"/>
      <point x="751" y="343"/>
      <point x="762" y="460" type="curve"/>
    </contour>
  </outline>
</glyph>
<glyph name="I" format="1">
  <advance width="356"/>
  <unicode hex="0049"/>
  <outline>
    <contour>
      <point x="133" y="545" type="line"/>
      <point x="103" y="378"/>
      <point x="67" y="204"/>
      <point x="11" y="56" type="curve"/>
      <point x="36" y="3"/>
      <point x="210" y="-22"/>
      <point x="272" y="31" type="curve"/>
      <point x="284" y="194"/>
      <point x="288" y="343"/>
      <point x="299" y="460" type="curve"/>
      <point x="394" y="735" type="line"/>
      <point x="369" y="747"/>
      <point x="338" y="753"/>
      <point x="301" y="753" type="curve" smooth="yes"/>
      <point x="251" y="753"/>
      <point x="190" y="740"/>
      <point x="130" y="711" type="curve"/>
    </contour>
    <contour>
      <point x="219" y="0" type="move" name="ogonek"/>
    </contour>
    <contour>
      <point x="272" y="753" type="move" name="top"/>
    </contour>
  </outline>
</glyph>
<glyph name="N" format="1">
  <advance width="820"/>
  <unicode hex="004E"/>
  <outline>
    <contour>
      <point x="375" y="745"/>
      <point x="355" y="753"/>
      <point x="316" y="753" type="curve" smooth="yes"/>
      <point x="265" y="753"/>
      <point x="205" y="745"/>
      <point x="133" y="711" type="curve"/>
      <point x="132" y="539" type="line"/>
      <point x="107" y="388"/>
      <point x="71" y="224"/>
      <point x="11" y="56" type="curve"/>
      <point x="34" y="3"/>
      <point x="207" y="-22"/>
      <point x="271" y="31" type="curve"/>
      <point x="280" y="177"/>
      <point x="289" y="317"/>
      <point x="299" y="460" type="curve"/>
      <point x="357" y="629" type="line"/>
      <point x="335" y="622" type="line"/>
      <point x="339" y="467"/>
      <point x="377" y="267"/>
      <point x="474" y="45" type="curve"/>
      <point x="535" y="0"/>
      <point x="655" y="-22"/>
      <point x="735" y="31" type="curve"/>
      <point x="746" y="192"/>
      <point x="756" y="343"/>
      <point x="765" y="461" type="curve"/>
      <point x="860" y="734" type="line"/>
      <point x="835" y="746"/>
      <point x="804" y="752"/>
      <point x="766" y="752" type="curve" smooth="yes"/>
      <point x="717" y="752"/>
      <point x="654" y="739"/>
      <point x="595" y="710" type="curve"/>
      <point x="598" y="535" type="line"/>
      <point x="575" y="412"/>
      <point x="537" y="254"/>
      <point x="512" y="146" type="curve"/>
      <point x="541" y="175" type="line"/>
      <point x="491" y="282" type="line"/>
      <point x="444" y="481"/>
      <point x="429" y="599"/>
      <point x="405" y="729" type="curve"/>
    </contour>
    <contour>
      <point x="476" y="753" type="move" name="top"/>
    </contour>
    <contour>
      <point x="401" y="0" type="move" name="bottom"/>
    </contour>
  </outline>
</glyph>
<glyph name="O" format="1">
  <advance width="741"/>
  <unicode hex="004F"/>
  <outline>
    <contour>
      <point x="226" y="768"/>
      <point x="39" y="543"/>
      <point x="39" y="326" type="curve" smooth="yes"/>
      <point x="39" y="168"/>
      <point x="209" y="0"/>
      <point x="340" y="0" type="curve" smooth="yes"/>
      <point x="537" y="0"/>
      <point x="749" y="216"/>
      <point x="746" y="425" type="curve" smooth="yes"/>
      <point x="743" y="603"/>
      <point x="564" y="768"/>
      <point x="448" y="768" type="curve" smooth="yes"/>
    </contour>
    <contour>
      <point x="504" y="564"/>
      <point x="522" y="481"/>
      <point x="532" y="377" type="curve"/>
      <point x="508" y="277"/>
      <point x="430" y="173"/>
      <point x="343" y="109" type="curve"/>
      <point x="300" y="173"/>
      <point x="266" y="248"/>
      <point x="266" y="339" type="curve" smooth="yes"/>
      <point x="266" y="438"/>
      <point x="341" y="583"/>
      <point x="437" y="660" type="curve"/>
    </contour>
    <contour>
      <point x="444" y="753" type="move" name="top"/>
    </contour>
    <contour>
      <point x="243" y="0" type="move" name="bottom"/>
    </contour>
  </outline>
</glyph>
<glyph name="P" format="1">
  <advance width="739"/>
  <unicode hex="0050"/>
  <outline>
    <contour>
      <point x="335" y="193"/>
      <point x="339" y="312"/>
      <point x="351" y="460" type="curve"/>
      <point x="406" y="686" type="line"/>
      <point x="346" y="651" type="line"/>
      <point x="455" y="654"/>
      <point x="539" y="582"/>
      <point x="539" y="510" type="curve" smooth="yes"/>
      <point x="538" y="462"/>
      <point x="520" y="413"/>
      <point x="492" y="378" type="curve"/>
      <point x="459" y="351"/>
      <point x="368" y="321"/>
      <point x="271" y="304" type="curve"/>
      <point x="294" y="222" type="line"/>
      <point x="428" y="235"/>
      <point x="503" y="260"/>
      <point x="561" y="277" type="curve"/>
      <point x="684" y="339"/>
      <point x="755" y="401"/>
      <point x="758" y="518" type="curve" smooth="yes"/>
      <point x="761" y="635"/>
      <point x="599" y="765"/>
      <point x="388" y="765" type="curve" smooth="yes"/>
      <point x="286" y="765"/>
      <point x="178" y="749"/>
      <point x="103" y="722" type="curve"/>
      <point x="86" y="698"/>
      <point x="94" y="659"/>
      <point x="124" y="640" type="curve"/>
      <point x="170" y="631" type="line"/>
      <point x="186" y="547" type="line"/>
      <point x="153" y="349"/>
      <point x="122" y="233"/>
      <point x="63" y="55" type="curve"/>
      <point x="99" y="-3"/>
      <point x="267" y="-18"/>
      <point x="324" y="31" type="curve"/>
    </contour>
  </outline>
</glyph>
<glyph name="Q" format="1">
  <advance width="741"/>
  <unicode hex="0051"/>
  <outline>
    <contour>
      <point x="329" y="44" type="line"/>
      <point x="440" y="-186" type="line"/>
      <point x="518" y="-231"/>
      <point x="650" y="-196"/>
      <point x="663" y="-67" type="curve"/>
      <point x="494" y="-12" type="line"/>
      <point x="462" y="48" type="line"/>
    </contour>
    <component base="O"/>
  </outline>
</glyph>
<glyph name="R" format="1">
  <advance width="760"/>
  <unicode hex="0052"/>
  <outline>
    <contour>
      <point x="353" y="334" type="line"/>
      <point x="356" y="178"/>
      <point x="434" y="55"/>
      <point x="577" y="0" type="curve"/>
      <point x="682" y="34"/>
      <point x="746" y="120"/>
      <point x="700" y="198" type="curve"/>
      <point x="536" y="209"/>
      <point x="481" y="241"/>
      <point x="427" y="344" type="curve"/>
    </contour>
    <contour>
      <point x="365" y="285"/>
      <point x="463" y="285"/>
      <point x="540" y="297" type="curve"/>
      <point x="684" y="369"/>
      <point x="745" y="421"/>
      <point x="748" y="538" type="curve" smooth="yes"/>
      <point x="751" y="655"/>
      <point x="599" y="765"/>
      <point x="388" y="765" type="curve" smooth="yes"/>
      <point x="286" y="765"/>
      <point x="178" y="749"/>
      <point x="103" y="722" type="curve"/>
      <point x="86" y="698"/>
      <point x="94" y="659"/>
      <point x="124" y="640" type="curve"/>
      <point x="170" y="631" type="line"/>
      <point x="186" y="547" type="line"/>
      <point x="153" y="349"/>
      <point x="122" y="233"/>
      <point x="63" y="55" type="curve"/>
      <point x="99" y="-3"/>
      <point x="267" y="-18"/>
      <point x="324" y="31" type="curve"/>
      <point x="335" y="193"/>
      <point x="339" y="312"/>
      <point x="351" y="460" type="curve"/>
      <point x="406" y="686" type="line"/>
      <point x="346" y="651" type="line"/>
      <point x="471" y="654"/>
      <point x="532" y="596"/>
      <point x="532" y="523" type="curve" smooth="yes"/>
      <point x="532" y="485"/>
      <point x="515" y="442"/>
      <point x="481" y="402" type="curve"/>
      <point x="428" y="381"/>
      <point x="368" y="364"/>
      <point x="271" y="364" type="curve"/>
      <point x="294" y="282" type="line"/>
    </contour>
    <contour>
      <point x="385" y="753" type="move" name="top"/>
    </contour>
    <contour>
      <point x="438" y="0" type="move" name="bottom"/>
    </contour>
  </outline>
</glyph>
<glyph name="S" format="1">
  <advance width="724"/>
  <unicode hex="0053"/>
  <outline>
    <contour>
      <point x="510" y="14"/>
      <point x="667" y="107"/>
      <point x="691" y="263" type="curve"/>
      <point x="647" y="420"/>
      <point x="309" y="511"/>
      <point x="309" y="569" type="curve" smooth="yes"/>
      <point x="309" y="600"/>
      <point x="384" y="641"/>
      <point x="437" y="660" type="curve"/>
      <point x="459" y="631"/>
      <point x="479" y="591"/>
      <point x="482" y="523" type="curve"/>
      <point x="618" y="495"/>
      <point x="683" y="528"/>
      <point x="706" y="625" type="curve"/>
      <point x="660" y="702"/>
      <point x="566" y="760"/>
      <point x="440" y="765" type="curve"/>
      <point x="273" y="747"/>
      <point x="140" y="667"/>
      <point x="76" y="538" type="curve"/>
      <point x="107" y="324"/>
      <point x="441" y="285"/>
      <point x="441" y="215" type="curve" smooth="yes"/>
      <point x="441" y="161"/>
      <point x="384" y="117"/>
      <point x="319" y="105" type="curve"/>
      <point x="282" y="163"/>
      <point x="253" y="217"/>
      <point x="245" y="282" type="curve"/>
      <point x="120" y="321"/>
      <point x="54" y="241"/>
      <point x="14" y="156" type="curve"/>
      <point x="62" y="77"/>
      <point x="183" y="17"/>
      <point x="312" y="0" type="curve"/>
    </contour>
    <contour>
      <point x="424" y="753" type="move" name="top"/>
    </contour>
    <contour>
      <point x="371" y="0" type="move" name="bottom"/>
    </contour>
  </outline>
</glyph>
<glyph name="U" format="1">
  <advance width="735"/>
  <unicode hex="0055"/>
  <outline>
    <contour>
      <point x="557" y="0"/>
      <point x="668" y="132"/>
      <point x="704" y="329" type="curve" smooth="yes"/>
      <point x="727" y="457"/>
      <point x="751" y="611"/>
      <point x="766" y="747" type="curve"/>
      <point x="742" y="759"/>
      <point x="711" y="765"/>
      <point x="674" y="765" type="curve" smooth="yes"/>
      <point x="623" y="765"/>
      <point x="561" y="752"/>
      <point x="501" y="723" type="curve"/>
      <point x="545" y="485" type="line"/>
      <point x="525" y="333"/>
      <point x="497" y="237"/>
      <point x="440" y="130" type="curve"/>
      <point x="260" y="130"/>
      <point x="271" y="229"/>
      <point x="291" y="364" type="curve" smooth="yes"/>
      <point x="307" y="465"/>
      <point x="344" y="592"/>
      <point x="393" y="747" type="curve"/>
      <point x="368" y="759"/>
      <point x="337" y="765"/>
      <point x="301" y="765" type="curve" smooth="yes"/>
      <point x="250" y="765"/>
      <point x="188" y="752"/>
      <point x="128" y="723" type="curve"/>
      <point x="110" y="539"/>
      <point x="93" y="405"/>
      <point x="59" y="228" type="curve"/>
      <point x="78" y="101"/>
      <point x="189" y="0"/>
      <point x="362" y="0" type="curve" smooth="yes"/>
    </contour>
    <contour>
      <point x="369" y="0" type="move" name="ogonek"/>
    </contour>
    <contour>
      <point x="446" y="753" type="move" name="top"/>
    </contour>
  </outline>
</glyph>
<glyph name="W" format="1">
  <advance width="1115"/>
  <unicode hex="0057"/>
  <outline>
    <contour>
      <point x="1100" y="763"/>
      <point x="958" y="789"/>
      <point x="893" y="707" type="curve"/>
      <point x="953" y="462" type="line"/>
      <point x="776" y="79" type="line"/>
      <point x="802" y="77" type="line"/>
      <point x="740" y="403" type="line"/>
      <point x="755" y="696" type="line"/>
      <point x="658" y="744"/>
      <point x="556" y="706"/>
      <point x="501" y="641" type="curve"/>
      <point x="567" y="404" type="line"/>
      <point x="402" y="81" type="line"/>
      <point x="427" y="80" type="line"/>
      <point x="373" y="371" type="line"/>
      <point x="370" y="742" type="line"/>
      <point x="317" y="780"/>
      <point x="175" y="775"/>
      <point x="89" y="673" type="curve"/>
      <point x="236" y="74" type="line"/>
      <point x="294" y="8"/>
      <point x="399" y="-17"/>
      <point x="496" y="11" type="curve"/>
      <point x="531" y="133" type="line"/>
      <point x="600" y="272" type="line"/>
      <point x="623" y="68" type="line"/>
      <point x="670" y="7"/>
      <point x="772" y="-15"/>
      <point x="869" y="11" type="curve"/>
      <point x="913" y="145" type="line"/>
      <point x="1099" y="461" type="line" smooth="yes"/>
      <point x="1145" y="545"/>
      <point x="1166" y="635"/>
      <point x="1161" y="715" type="curve"/>
    </contour>
  </outline>
</glyph>
<glyph name="bracketleft" format="1">
  <advance width="681"/>
  <unicode hex="005B"/>
  <outline>
    <contour>
      <point x="619" y="868" type="line"/>
      <point x="736" y="861" type="line"/>
      <point x="760" y="890"/>
      <point x="762" y="920"/>
      <point x="757" y="945" type="curve"/>
      <point x="276" y="939" type="line"/>
      <point x="217" y="424" type="line"/>
      <point x="88" y="-47" type="line"/>
      <point x="88" y="-80"/>
      <point x="105" y="-101"/>
      <point x="142" y="-125" type="curve"/>
      <point x="556" y="-81" type="line"/>
      <point x="584" y="-42"/>
      <point x="585" y="-17"/>
      <point x="571" y="3" type="curve"/>
      <point x="354" y="-25" type="line"/>
      <point x="414" y="320" type="line"/>
      <point x="475" y="656" type="line"/>
      <point x="526" y="864" type="line"/>
    </contour>
  </outline>
</glyph>
<glyph name="bracketright" format="1">
  <advance width="688"/>
  <unicode hex="005D"/>
  <outline>
    <contour>
      <point x="496" y="232" type="line"/>
      <point x="648" y="842" type="line"/>
      <point x="646" y="880"/>
      <point x="636" y="904"/>
      <point x="608" y="934" type="curve"/>
      <point x="158" y="941" type="line"/>
      <point x="143" y="916"/>
      <point x="147" y="908"/>
      <point x="171" y="861" type="curve"/>
      <point x="363" y="867" type="line"/>
      <point x="296" y="424" type="line"/>
      <point x="217" y="-33" type="line"/>
      <point x="2" y="-37" type="line"/>
      <point x="-18" y="-84"/>
      <point x="-20" y="-102"/>
      <point x="-3" y="-129" type="curve"/>
      <point x="477" y="-80" type="line"/>
    </contour>
  </outline>
</glyph>
<glyph name="underscore" format="1">
  <advance width="695"/>
  <unicode hex="005F"/>
  <outline>
    <contour>
      <point x="580" y="-105"/>
      <point x="584" y="-55"/>
      <point x="565" y="-43" type="curve"/>
      <point x="285" y="-63" type="line"/>
      <point x="9" y="-57" type="line"/>
      <point x="-17" y="-95"/>
      <point x="-21" y="-136"/>
      <point x="-6" y="-156" type="curve"/>
      <point x="548" y="-144" type="line"/>
    </contour>
  </outline>
</glyph>
<glyph name="b" format="1">
  <advance width="735"/>
  <unicode hex="0062"/>
  <outline>
    <contour>
      <point x="389" y="837" type="line"/>
      <point x="327" y="861"/>
      <point x="256" y="862"/>
      <point x="144" y="813" type="curve"/>
      <point x="159" y="538" type="line"/>
      <point x="134" y="421"/>
      <point x="89" y="253"/>
      <point x="49" y="144" type="curve"/>
      <point x="70" y="85"/>
      <point x="125" y="18"/>
      <point x="271" y="-1" type="curve"/>
      <point x="458" y="40"/>
      <point x="663" y="103"/>
      <point x="727" y="320" type="curve"/>
      <point x="706" y="479"/>
      <point x="637" y="552"/>
      <point x="419" y="562" type="curve"/>
      <point x="346" y="481"/>
      <point x="302" y="422"/>
      <point x="228" y="337" type="curve"/>
      <point x="272" y="286" type="line"/>
      <point x="333" y="342"/>
      <point x="377" y="386"/>
      <point x="430" y="422" type="curve"/>
      <point x="473" y="404"/>
      <point x="494" y="382"/>
      <point x="504" y="329" type="curve"/>
      <point x="487" y="224"/>
      <point x="387" y="138"/>
      <point x="253" y="102" type="curve"/>
      <point x="274" y="87" type="line"/>
      <point x="289" y="173"/>
      <point x="304" y="274"/>
      <point x="303" y="386" type="curve"/>
      <point x="271" y="417" type="line"/>
      <point x="319" y="498" type="line"/>
      <point x="325" y="564" type="line"/>
    </contour>
  </outline>
</glyph>
<glyph name="c" format="1">
  <advance width="636"/>
  <unicode hex="0063"/>
  <outline>
    <contour>
      <point x="585" y="502"/>
      <point x="557" y="549"/>
      <point x="419" y="574" type="curve"/>
      <point x="306" y="551"/>
      <point x="213" y="503"/>
      <point x="135" y="440" type="curve"/>
      <point x="79" y="383"/>
      <point x="36" y="322"/>
      <point x="36" y="227" type="curve" smooth="yes"/>
      <point x="36" y="121"/>
      <point x="101" y="22"/>
      <point x="297" y="0" type="curve"/>
      <point x="420" y="15"/>
      <point x="529" y="65"/>
      <point x="588" y="122" type="curve"/>
      <point x="606" y="186"/>
      <point x="576" y="213"/>
      <point x="529" y="213" type="curve"/>
      <point x="468" y="168"/>
      <point x="397" y="139"/>
      <point x="330" y="122" type="curve"/>
      <point x="289" y="168"/>
      <point x="274" y="215"/>
      <point x="275" y="266" type="curve" smooth="yes"/>
      <point x="276" y="324"/>
      <point x="288" y="386"/>
      <point x="336" y="454" type="curve"/>
      <point x="368" y="462" type="line"/>
      <point x="385" y="421"/>
      <point x="402" y="379"/>
      <point x="394" y="314" type="curve"/>
      <point x="518" y="299"/>
      <point x="599" y="330"/>
      <point x="616" y="404" type="curve"/>
    </contour>
    <contour>
      <point x="375" y="563" type="move" name="top"/>
    </contour>
    <contour>
      <point x="377" y="0" type="move" name="bottom"/>
    </contour>
  </outline>
</glyph>
<glyph name="e" format="1">
  <advance width="645"/>
  <unicode hex="0065"/>
  <outline>
    <contour>
      <point x="248" y="199" type="line"/>
      <point x="350" y="215"/>
      <point x="512" y="273"/>
      <point x="596" y="315" type="curve"/>
      <point x="652" y="446"/>
      <point x="610" y="561"/>
      <point x="451" y="573" type="curve"/>
      <point x="319" y="556"/>
      <point x="216" y="499"/>
      <point x="129" y="441" type="curve"/>
      <point x="73" y="382"/>
      <point x="38" y="311"/>
      <point x="34" y="232" type="curve" smooth="yes"/>
      <point x="29" y="125"/>
      <point x="102" y="25"/>
      <point x="276" y="0" type="curve"/>
      <point x="379" y="8"/>
      <point x="530" y="48"/>
      <point x="596" y="113" type="curve"/>
      <point x="610" y="181"/>
      <point x="578" y="203"/>
      <point x="531" y="201" type="curve"/>
      <point x="466" y="160"/>
      <point x="395" y="133"/>
      <point x="313" y="123" type="curve"/>
      <point x="282" y="163"/>
      <point x="266" y="202"/>
      <point x="269" y="270" type="curve" smooth="yes"/>
      <point x="271" y="329"/>
      <point x="294" y="391"/>
      <point x="348" y="448" type="curve"/>
      <point x="369" y="458" type="line"/>
      <point x="392" y="439"/>
      <point x="420" y="403"/>
      <point x="401" y="334" type="curve"/>
      <point x="361" y="312"/>
      <point x="298" y="284"/>
      <point x="235" y="264" type="curve"/>
    </contour>
    <contour>
      <point x="385" y="0" type="move" name="ogonek"/>
    </contour>
    <contour>
      <point x="400" y="563" type="move" name="top"/>
    </contour>
  </outline>
</glyph>
<glyph name="h" format="1">
  <advance width="749"/>
  <unicode hex="0068"/>
  <outline>
    <contour>
      <point x="500" y="-8"/>
      <point x="641" y="-19"/>
      <point x="685" y="31" type="curve"/>
      <point x="665" y="115"/>
      <point x="657" y="207"/>
      <point x="661" y="281" type="curve"/>
      <point x="712" y="414" type="line"/>
      <point x="688" y="477"/>
      <point x="628" y="554"/>
      <point x="491" y="562" type="curve"/>
      <point x="375" y="482"/>
      <point x="316" y="417"/>
      <point x="228" y="337" type="curve"/>
      <point x="281" y="277" type="line"/>
      <point x="347" y="338"/>
      <point x="392" y="381"/>
      <point x="451" y="411" type="curve"/>
      <point x="476" y="397"/>
      <point x="482" y="382"/>
      <point x="488" y="359" type="curve"/>
      <point x="467" y="296"/>
      <point x="426" y="147"/>
      <point x="420" y="58" type="curve"/>
    </contour>
    <contour>
      <point x="132" y="383"/>
      <point x="84" y="198"/>
      <point x="21" y="57" type="curve"/>
      <point x="51" y="3"/>
      <point x="217" y="-22"/>
      <point x="287" y="31" type="curve"/>
      <point x="303" y="157"/>
      <point x="312" y="262"/>
      <point x="310" y="386" type="curve"/>
      <point x="288" y="418" type="line"/>
      <point x="331" y="467" type="line"/>
      <point x="326" y="593" type="line"/>
      <point x="396" y="837" type="line"/>
      <point x="327" y="861"/>
      <point x="256" y="861"/>
      <point x="142" y="798" type="curve"/>
      <point x="153" y="538" type="line"/>
    </contour>
  </outline>
</glyph>
<glyph name="i" format="1">
  <advance width="360"/>
  <unicode hex="0069"/>
  <outline>
    <contour>
      <point x="132" y="672"/>
      <point x="184" y="620"/>
      <point x="249" y="620" type="curve" smooth="yes"/>
      <point x="310" y="620"/>
      <point x="360" y="672"/>
      <point x="360" y="733" type="curve" smooth="yes"/>
      <point x="360" y="793"/>
      <point x="311" y="844"/>
      <point x="250" y="844" type="curve" smooth="yes"/>
      <point x="185" y="844"/>
      <point x="132" y="793"/>
      <point x="132" y="733" type="curve" smooth="yes"/>
    </contour>
    <contour>
      <point x="114" y="323" type="line"/>
      <point x="93" y="227"/>
      <point x="62" y="157"/>
      <point x="16" y="56" type="curve"/>
      <point x="65" y="3"/>
      <point x="213" y="-22"/>
      <point x="276" y="31" type="curve"/>
      <point x="279" y="150"/>
      <point x="279" y="246"/>
      <point x="289" y="353" type="curve"/>
      <point x="343" y="535" type="line"/>
      <point x="285" y="572"/>
      <point x="213" y="572"/>
      <point x="105" y="523" type="curve"/>
    </contour>
    <contour>
      <point x="195" y="0" type="move" name="ogonek"/>
    </contour>
  </outline>
</glyph>
<glyph name="j" format="1">
  <advance width="424"/>
  <unicode hex="006A"/>
  <outline>
    <contour>
      <point x="201" y="673"/>
      <point x="255" y="619"/>
      <point x="321" y="619" type="curve" smooth="yes"/>
      <point x="382" y="619"/>
      <point x="436" y="673"/>
      <point x="436" y="735" type="curve" smooth="yes"/>
      <point x="437" y="798"/>
      <point x="383" y="851"/>
      <point x="322" y="851" type="curve" smooth="yes"/>
      <point x="255" y="851"/>
      <point x="201" y="798"/>
      <point x="201" y="735" type="curve" smooth="yes"/>
    </contour>
    <contour>
      <point x="31" y="-146"/>
      <point x="13" y="-108"/>
      <point x="5" y="-36" type="curve"/>
      <point x="-70" y="0"/>
      <point x="-157" y="-28"/>
      <point x="-212" y="-130" type="curve"/>
      <point x="-183" y="-206"/>
      <point x="-123" y="-261"/>
      <point x="-46" y="-309" type="curve"/>
      <point x="124" y="-333"/>
      <point x="243" y="-295"/>
      <point x="283" y="-217" type="curve"/>
      <point x="296" y="2"/>
      <point x="306" y="161"/>
      <point x="326" y="338" type="curve"/>
      <point x="424" y="508" type="line"/>
      <point x="377" y="571"/>
      <point x="310" y="581"/>
      <point x="173" y="549" type="curve"/>
      <point x="138" y="293"/>
      <point x="111" y="79"/>
      <point x="88" y="-173" type="curve"/>
      <point x="57" y="-186" type="line"/>
    </contour>
  </outline>
</glyph>
<glyph name="k" format="1">
  <advance width="689"/>
  <unicode hex="006B"/>
  <outline>
    <contour>
      <point x="184" y="534" type="line"/>
      <point x="154" y="389"/>
      <point x="105" y="197"/>
      <point x="42" y="63" type="curve"/>
      <point x="71" y="0"/>
      <point x="239" y="-22"/>
      <point x="306" y="34" type="curve"/>
      <point x="318" y="154"/>
      <point x="317" y="264"/>
      <point x="320" y="321" type="curve"/>
      <point x="299" y="350" type="line"/>
      <point x="338" y="405" type="line"/>
      <point x="371" y="656"/>
      <point x="375" y="750"/>
      <point x="352" y="835" type="curve"/>
      <point x="309" y="851"/>
      <point x="217" y="864"/>
      <point x="128" y="778" type="curve"/>
    </contour>
    <contour>
      <point x="304" y="189"/>
      <point x="375" y="69"/>
      <point x="525" y="0" type="curve"/>
      <point x="630" y="43"/>
      <point x="676" y="151"/>
      <point x="622" y="205" type="curve"/>
      <point x="462" y="208"/>
      <point x="407" y="243"/>
      <point x="356" y="305" type="curve"/>
      <point x="317" y="264" type="line"/>
      <point x="422" y="321"/>
      <point x="517" y="352"/>
      <point x="651" y="368" type="curve"/>
      <point x="725" y="469"/>
      <point x="658" y="565"/>
      <point x="584" y="573" type="curve"/>
      <point x="458" y="501"/>
      <point x="382" y="420"/>
      <point x="292" y="310" type="curve"/>
    </contour>
    <contour>
      <point x="413" y="0" type="move" name="bottom"/>
    </contour>
  </outline>
</glyph>
<glyph name="z" format="1">
  <advance width="697"/>
  <unicode hex="007A"/>
  <outline>
    <contour>
      <point x="95" y="348"/>
      <point x="149" y="324"/>
      <point x="265" y="335" type="curve"/>
      <point x="277" y="369"/>
      <point x="295" y="408"/>
      <point x="319" y="432" type="curve"/>
      <point x="355" y="425"/>
      <point x="415" y="412"/>
      <point x="446" y="404" type="curve"/>
      <point x="447" y="393" type="line"/>
      <point x="338" y="301"/>
      <point x="47" y="234"/>
      <point x="40" y="94" type="curve" smooth="yes"/>
      <point x="37" y="58"/>
      <point x="48" y="24"/>
      <point x="73" y="0" type="curve"/>
      <point x="155" y="-6"/>
      <point x="203" y="1"/>
      <point x="235" y="32" type="curve"/>
      <point x="222" y="77" type="line"/>
      <point x="230" y="80" type="line"/>
      <point x="289" y="55"/>
      <point x="363" y="31"/>
      <point x="479" y="0" type="curve"/>
      <point x="578" y="25"/>
      <point x="630" y="69"/>
      <point x="661" y="131" type="curve"/>
      <point x="647" y="204"/>
      <point x="586" y="239"/>
      <point x="477" y="211" type="curve"/>
      <point x="466" y="183"/>
      <point x="457" y="153"/>
      <point x="443" y="125" type="curve"/>
      <point x="394" y="130"/>
      <point x="319" y="138"/>
      <point x="268" y="147" type="curve"/>
      <point x="271" y="159" type="line"/>
      <point x="431" y="217"/>
      <point x="664" y="327"/>
      <point x="707" y="477" type="curve"/>
      <point x="693" y="554"/>
      <point x="624" y="573"/>
      <point x="523" y="562" type="curve"/>
      <point x="495" y="488" type="line"/>
      <point x="403" y="514"/>
      <point x="339" y="538"/>
      <point x="249" y="563" type="curve"/>
      <point x="157" y="544"/>
      <point x="107" y="487"/>
      <point x="75" y="416" type="curve"/>
    </contour>
    <contour>
      <point x="399" y="563" type="move" name="top"/>
    </contour>
  </outline>
</glyph>
<glyph name="asciitilde" format="1">
  <advance width="652"/>
  <unicode hex="007E"/>
  <outline>
    <contour>
      <point x="432" y="420"/>
      <point x="338" y="466"/>
      <point x="187" y="466" type="curve"/>
      <point x="105" y="418"/>
      <point x="63" y="384"/>
      <point x="9" y="321" type="curve"/>
      <point x="3" y="276"/>
      <point x="76" y="250"/>
      <point x="123" y="259" type="curve"/>
      <point x="187" y="341" type="line"/>
      <point x="195" y="343" type="line"/>
      <point x="265" y="292"/>
      <point x="347" y="251"/>
      <point x="472" y="248" type="curve"/>
      <point x="585" y="284"/>
      <point x="623" y="327"/>
      <point x="683" y="402" type="curve"/>
      <point x="688" y="439"/>
      <point x="635" y="458"/>
      <point x="581" y="451" type="curve"/>
      <point x="518" y="366" type="line"/>
      <point x="512" y="366" type="line"/>
    </contour>
  </outline>
</glyph>
<glyph name="cent" format="1">
  <advance width="644"/>
  <unicode hex="00A2"/>
  <outline>
    <contour>
      <point x="438" y="688"/>
      <point x="462" y="677"/>
      <point x="476" y="646" type="curve"/>
      <point x="396" y="428" type="line"/>
      <point x="307" y="-131" type="line"/>
      <point x="274" y="-140"/>
      <point x="246" y="-125"/>
      <point x="231" y="-94" type="curve"/>
      <point x="304" y="139" type="line"/>
      <point x="404" y="677" type="line"/>
    </contour>
    <contour>
      <point x="617" y="336"/>
      <point x="539" y="304"/>
      <point x="431" y="314" type="curve"/>
      <point x="421" y="391"/>
      <point x="391" y="436"/>
      <point x="373" y="465" type="curve"/>
      <point x="335" y="454" type="line"/>
      <point x="287" y="386"/>
      <point x="275" y="324"/>
      <point x="274" y="266" type="curve" smooth="yes"/>
      <point x="273" y="215"/>
      <point x="288" y="168"/>
      <point x="329" y="122" type="curve"/>
      <point x="410" y="139"/>
      <point x="476" y="168"/>
      <point x="537" y="213" type="curve"/>
      <point x="584" y="213"/>
      <point x="614" y="186"/>
      <point x="596" y="122" type="curve"/>
      <point x="537" y="65"/>
      <point x="433" y="15"/>
      <point x="296" y="0" type="curve"/>
      <point x="100" y="22"/>
      <point x="35" y="121"/>
      <point x="35" y="227" type="curve" smooth="yes"/>
      <point x="35" y="322"/>
      <point x="78" y="383"/>
      <point x="134" y="440" type="curve"/>
      <point x="212" y="503"/>
      <point x="305" y="551"/>
      <point x="418" y="574" type="curve"/>
      <point x="547" y="552"/>
      <point x="593" y="509"/>
      <point x="638" y="418" type="curve"/>
    </contour>
  </outline>
</glyph>
<glyph name="sterling" format="1">
  <advance width="708"/>
  <unicode hex="00A3"/>
  <outline>
    <contour>
      <point x="692" y="118"/>
      <point x="669" y="193"/>
      <point x="580" y="221" type="curve"/>
      <point x="474" y="136" type="line"/>
      <point x="430" y="133"/>
      <point x="352" y="138"/>
      <point x="262" y="167" type="curve"/>
      <point x="298" y="117" type="line"/>
      <point x="379" y="292"/>
      <point x="409" y="491"/>
      <point x="392" y="631" type="curve"/>
      <point x="405" y="645"/>
      <point x="416" y="656"/>
      <point x="438" y="659" type="curve"/>
      <point x="463" y="614"/>
      <point x="470" y="579"/>
      <point x="459" y="514" type="curve"/>
      <point x="587" y="499"/>
      <point x="674" y="530"/>
      <point x="690" y="603" type="curve"/>
      <point x="663" y="680"/>
      <point x="641" y="727"/>
      <point x="470" y="770" type="curve"/>
      <point x="339" y="754"/>
      <point x="227" y="684"/>
      <point x="193" y="640" type="curve"/>
      <point x="239" y="476" type="line"/>
      <point x="220" y="372"/>
      <point x="188" y="265"/>
      <point x="135" y="156" type="curve"/>
      <point x="197" y="181" type="line"/>
      <point x="94" y="234" type="line"/>
      <point x="5" y="168"/>
      <point x="-3" y="52"/>
      <point x="137" y="0" type="curve"/>
      <point x="215" y="11"/>
      <point x="250" y="37"/>
      <point x="273" y="88" type="curve"/>
      <point x="222" y="79" type="line"/>
      <point x="337" y="13"/>
      <point x="449" y="5"/>
      <point x="607" y="0" type="curve"/>
    </contour>
    <contour>
      <point x="602" y="375"/>
      <point x="607" y="408"/>
      <point x="591" y="420" type="curve"/>
      <point x="257" y="388" type="line"/>
      <point x="67" y="403" type="line"/>
      <point x="47" y="366"/>
      <point x="42" y="340"/>
      <point x="56" y="321" type="curve"/>
      <point x="576" y="335" type="line"/>
    </contour>
  </outline>
</glyph>
<glyph name="dieresis" format="1">
  <advance width="504"/>
  <unicode hex="00A8"/>
  <outline>
    <contour>
      <point x="96" y="680"/>
      <point x="141" y="636"/>
      <point x="196" y="636" type="curve" smooth="yes"/>
      <point x="250" y="636"/>
      <point x="293" y="680"/>
      <point x="293" y="733" type="curve" smooth="yes"/>
      <point x="293" y="785"/>
      <point x="250" y="828"/>
      <point x="196" y="828" type="curve" smooth="yes"/>
      <point x="141" y="828"/>
      <point x="96" y="785"/>
      <point x="96" y="733" type="curve" smooth="yes"/>
    </contour>
    <contour>
      <point x="378" y="680"/>
      <point x="424" y="636"/>
      <point x="479" y="636" type="curve" smooth="yes"/>
      <point x="532" y="636"/>
      <point x="575" y="680"/>
      <point x="575" y="733" type="curve" smooth="yes"/>
      <point x="575" y="785"/>
      <point x="532" y="828"/>
      <point x="479" y="828" type="curve" smooth="yes"/>
      <point x="424" y="828"/>
      <point x="378" y="785"/>
      <point x="378" y="733" type="curve" smooth="yes"/>
    </contour>
    <contour>
      <point x="308" y="563" type="move" name="_top"/>
    </contour>
  </outline>
</glyph>
<glyph name="copyright" format="1">
  <advance width="923"/>
  <unicode hex="00A9"/>
  <outline>
    <contour>
      <point x="258" y="739"/>
      <point x="86" y="580"/>
      <point x="44" y="359" type="curve"/>
      <point x="51" y="147"/>
      <point x="186" y="13"/>
      <point x="432" y="-6" type="curve"/>
      <point x="749" y="20"/>
      <point x="884" y="197"/>
      <point x="927" y="414" type="curve"/>
      <point x="883" y="617"/>
      <point x="826" y="750"/>
      <point x="529" y="773" type="curve"/>
    </contour>
    <contour>
      <point x="777" y="686"/>
      <point x="817" y="585"/>
      <point x="861" y="412" type="curve"/>
      <point x="823" y="227"/>
      <point x="719" y="69"/>
      <point x="437" y="44" type="curve"/>
      <point x="252" y="61"/>
      <point x="122" y="169"/>
      <point x="110" y="358" type="curve"/>
      <point x="140" y="547"/>
      <point x="305" y="690"/>
      <point x="524" y="723" type="curve"/>
    </contour>
    <contour>
      <point x="638" y="392"/>
      <point x="705" y="418"/>
      <point x="719" y="479" type="curve"/>
      <point x="693" y="560"/>
      <point x="670" y="599"/>
      <point x="556" y="620" type="curve"/>
      <point x="462" y="601"/>
      <point x="385" y="561"/>
      <point x="321" y="509" type="curve"/>
      <point x="274" y="461"/>
      <point x="239" y="411"/>
      <point x="239" y="332" type="curve" smooth="yes"/>
      <point x="239" y="244"/>
      <point x="292" y="162"/>
      <point x="455" y="144" type="curve"/>
      <point x="557" y="157"/>
      <point x="647" y="198"/>
      <point x="696" y="245" type="curve"/>
      <point x="711" y="298"/>
      <point x="686" y="321"/>
      <point x="647" y="321" type="curve"/>
      <point x="596" y="283"/>
      <point x="538" y="259"/>
      <point x="482" y="245" type="curve"/>
      <point x="448" y="283"/>
      <point x="436" y="322"/>
      <point x="437" y="365" type="curve" smooth="yes"/>
      <point x="437" y="413"/>
      <point x="447" y="464"/>
      <point x="487" y="520" type="curve"/>
      <point x="514" y="527" type="line"/>
      <point x="528" y="493"/>
      <point x="542" y="458"/>
      <point x="535" y="404" type="curve"/>
    </contour>
  </outline>
</glyph>
<glyph name="ordfeminine" format="1">
  <advance width="567"/>
  <unicode hex="00AA"/>
  <outline>
    <contour>
      <point x="381" y="543" type="line"/>
      <point x="345" y="507"/>
      <point x="311" y="474"/>
      <point x="276" y="437" type="curve"/>
      <point x="263" y="451"/>
      <point x="251" y="476"/>
      <point x="251" y="505" type="curve" smooth="yes"/>
      <point x="251" y="558"/>
      <point x="282" y="620"/>
      <point x="341" y="657" type="curve"/>
      <point x="356" y="641"/>
      <point x="372" y="617"/>
      <point x="384" y="593" type="curve"/>
      <point x="421" y="620" type="line"/>
      <point x="404" y="664"/>
      <point x="371" y="735"/>
      <point x="336" y="767" type="curve"/>
      <point x="168" y="765"/>
      <point x="73" y="619"/>
      <point x="72" y="502" type="curve" smooth="yes"/>
      <point x="72" y="411"/>
      <point x="125" y="330"/>
      <point x="256" y="325" type="curve"/>
      <point x="307" y="387"/>
      <point x="380" y="464"/>
      <point x="409" y="498" type="curve"/>
    </contour>
    <contour>
      <point x="580" y="765"/>
      <point x="528" y="774"/>
      <point x="414" y="759" type="curve"/>
      <point x="397" y="734"/>
      <point x="396" y="705"/>
      <point x="398" y="666" type="curve"/>
      <point x="382" y="590" type="line"/>
      <point x="378" y="545" type="line"/>
      <point x="340" y="432" type="line"/>
      <point x="361" y="413" type="line"/>
      <point x="333" y="358" type="line"/>
      <point x="397" y="304"/>
      <point x="514" y="295"/>
      <point x="546" y="336" type="curve"/>
      <point x="530" y="424"/>
      <point x="523" y="502"/>
      <point x="521" y="575" type="curve"/>
      <point x="596" y="717" type="line"/>
    </contour>
  </outline>
</glyph>
<glyph name="guillemotleft" format="1">
  <advance width="657"/>
  <unicode hex="00AB"/>
  <outline>
    <contour>
      <point x="283" y="112"/>
      <point x="319" y="195"/>
      <point x="298" y="271" type="curve"/>
      <point x="243" y="312" type="line"/>
      <point x="179" y="348" type="line"/>
      <point x="330" y="454" type="line"/>
      <point x="381" y="530"/>
      <point x="367" y="592"/>
      <point x="314" y="614" type="curve"/>
      <point x="179" y="491" type="line"/>
      <point x="75" y="417" type="line"/>
      <point x="65" y="392"/>
      <point x="58" y="367"/>
      <point x="59" y="340" type="curve"/>
      <point x="223" y="114" type="line"/>
    </contour>
    <contour>
      <point x="573" y="112"/>
      <point x="609" y="195"/>
      <point x="589" y="271" type="curve"/>
      <point x="507" y="312" type="line"/>
      <point x="443" y="348" type="line"/>
      <point x="617" y="454" type="line"/>
      <point x="668" y="530"/>
      <point x="655" y="592"/>
      <point x="601" y="614" type="curve"/>
      <point x="480" y="524" type="line"/>
      <point x="339" y="417" type="line"/>
      <point x="329" y="392"/>
      <point x="322" y="367"/>
      <point x="323" y="340" type="curve"/>
      <point x="514" y="114" type="line"/>
    </contour>
  </outline>
</glyph>
<glyph name="registered" format="1">
  <advance width="923"/>
  <unicode hex="00AE"/>
  <outline>
    <contour>
      <point x="456" y="356" type="line"/>
      <point x="457" y="258"/>
      <point x="506" y="181"/>
      <point x="596" y="147" type="curve"/>
      <point x="662" y="168"/>
      <point x="702" y="222"/>
      <point x="673" y="270" type="curve"/>
      <point x="570" y="277"/>
      <point x="536" y="297"/>
      <point x="502" y="362" type="curve"/>
    </contour>
    <contour>
      <point x="464" y="325"/>
      <point x="525" y="325"/>
      <point x="573" y="332" type="curve"/>
      <point x="663" y="378"/>
      <point x="702" y="411"/>
      <point x="704" y="484" type="curve" smooth="yes"/>
      <point x="706" y="557"/>
      <point x="610" y="626"/>
      <point x="478" y="626" type="curve" smooth="yes"/>
      <point x="414" y="626"/>
      <point x="346" y="617"/>
      <point x="299" y="599" type="curve"/>
      <point x="288" y="584"/>
      <point x="293" y="560"/>
      <point x="312" y="548" type="curve"/>
      <point x="341" y="542" type="line"/>
      <point x="351" y="489" type="line"/>
      <point x="330" y="365"/>
      <point x="311" y="292"/>
      <point x="274" y="181" type="curve"/>
      <point x="296" y="145"/>
      <point x="402" y="135"/>
      <point x="437" y="166" type="curve"/>
      <point x="444" y="268"/>
      <point x="447" y="342"/>
      <point x="455" y="435" type="curve"/>
      <point x="489" y="577" type="line"/>
      <point x="451" y="555" type="line"/>
      <point x="529" y="557"/>
      <point x="568" y="520"/>
      <point x="568" y="475" type="curve" smooth="yes"/>
      <point x="568" y="451"/>
      <point x="557" y="424"/>
      <point x="536" y="398" type="curve"/>
      <point x="503" y="385"/>
      <point x="465" y="375"/>
      <point x="404" y="375" type="curve"/>
      <point x="419" y="324" type="line"/>
    </contour>
    <contour>
      <point x="258" y="739"/>
      <point x="86" y="580"/>
      <point x="44" y="359" type="curve"/>
      <point x="51" y="147"/>
      <point x="186" y="13"/>
      <point x="432" y="-6" type="curve"/>
      <point x="749" y="20"/>
      <point x="884" y="197"/>
      <point x="927" y="414" type="curve"/>
      <point x="883" y="617"/>
      <point x="826" y="750"/>
      <point x="529" y="773" type="curve"/>
    </contour>
    <contour>
      <point x="777" y="686"/>
      <point x="817" y="585"/>
      <point x="861" y="412" type="curve"/>
      <point x="823" y="227"/>
      <point x="719" y="69"/>
      <point x="437" y="44" type="curve"/>
      <point x="252" y="61"/>
      <point x="122" y="169"/>
      <point x="110" y="358" type="curve"/>
      <point x="140" y="547"/>
      <point x="305" y="690"/>
      <point x="524" y="723" type="curve"/>
    </contour>
  </outline>
</glyph>
<glyph name="macron" format="1">
  <advance width="438"/>
  <unicode hex="00AF"/>
  <outline>
    <contour>
      <point x="487" y="719" type="curve"/>
      <point x="292" y="699" type="line"/>
      <point x="101" y="704" type="line"/>
      <point x="76" y="668"/>
      <point x="72" y="642"/>
      <point x="87" y="623" type="curve"/>
      <point x="471" y="635" type="line"/>
      <point x="503" y="674"/>
      <point x="507" y="707"/>
    </contour>
    <contour>
      <point x="260" y="563" type="move" name="_top"/>
    </contour>
  </outline>
</glyph>
<glyph name="degree" format="1">
  <advance width="573"/>
  <unicode hex="00B0"/>
  <outline>
    <contour>
      <point x="384" y="783" type="curve" smooth="yes"/>
      <point x="204" y="783"/>
      <point x="86" y="666"/>
      <point x="88" y="563" type="curve" smooth="yes"/>
      <point x="90" y="503"/>
      <point x="196" y="421"/>
      <point x="297" y="421" type="curve"/>
      <point x="451" y="421"/>
      <point x="600" y="524"/>
      <point x="596" y="618" type="curve" smooth="yes"/>
      <point x="595" y="690"/>
      <point x="479" y="783"/>
    </contour>
    <contour>
      <point x="365" y="717" type="curve"/>
      <point x="385" y="680"/>
      <point x="402" y="651"/>
      <point x="407" y="598" type="curve"/>
      <point x="394" y="556"/>
      <point x="367" y="524"/>
      <point x="316" y="493" type="curve"/>
      <point x="304" y="513"/>
      <point x="286" y="546"/>
      <point x="286" y="571" type="curve"/>
      <point x="284" y="620"/>
      <point x="323" y="679"/>
    </contour>
  </outline>
</glyph>
<glyph name="plusminus" format="1">
  <advance width="772"/>
  <unicode hex="00B1"/>
  <outline>
    <contour>
      <point x="674" y="143"/>
      <point x="680" y="190"/>
      <point x="661" y="205" type="curve"/>
      <point x="371" y="197" type="line"/>
      <point x="76" y="202" type="line"/>
      <point x="51" y="166"/>
      <point x="46" y="123"/>
      <point x="62" y="105" type="curve"/>
      <point x="641" y="102" type="line"/>
    </contour>
    <contour>
      <point x="457" y="499" type="line"/>
      <point x="486" y="629" type="line"/>
      <point x="452" y="668"/>
      <point x="405" y="683"/>
      <point x="389" y="666" type="curve"/>
      <point x="365" y="501" type="line"/>
      <point x="132" y="513" type="line"/>
      <point x="106" y="475"/>
      <point x="100" y="435"/>
      <point x="114" y="414" type="curve"/>
      <point x="350" y="410" type="line"/>
      <point x="317" y="276" type="line"/>
      <point x="349" y="244"/>
      <point x="389" y="231"/>
      <point x="411" y="244" type="curve"/>
      <point x="440" y="409" type="line"/>
      <point x="700" y="406" type="line"/>
      <point x="733" y="446"/>
      <point x="739" y="495"/>
      <point x="721" y="508" type="curve"/>
    </contour>
  </outline>
</glyph>
<glyph name="twosuperior" format="1">
  <advance width="395"/>
  <unicode hex="00B2"/>
  <outline>
    <contour>
      <point x="317" y="481" type="line" smooth="yes"/>
      <point x="366" y="519"/>
      <point x="389" y="554"/>
      <point x="389" y="595" type="curve" smooth="yes"/>
      <point x="389" y="667"/>
      <point x="303" y="777"/>
      <point x="237" y="777" type="curve" smooth="yes"/>
      <point x="176" y="777"/>
      <point x="111" y="733"/>
      <point x="78" y="670" type="curve"/>
      <point x="90" y="635"/>
      <point x="130" y="591"/>
      <point x="164" y="563" type="curve"/>
      <point x="173" y="564"/>
      <point x="209" y="582"/>
      <point x="215" y="593" type="curve"/>
      <point x="204" y="625" type="line"/>
      <point x="219" y="644"/>
      <point x="239" y="660"/>
      <point x="259" y="660" type="curve" smooth="yes"/>
      <point x="273" y="660"/>
      <point x="282" y="655"/>
      <point x="287" y="649" type="curve"/>
      <point x="282" y="630"/>
      <point x="275" y="618"/>
      <point x="246" y="592" type="curve" smooth="yes"/>
      <point x="58" y="420" type="line"/>
      <point x="65" y="369"/>
      <point x="90" y="339"/>
      <point x="125" y="316" type="curve"/>
      <point x="196" y="328" type="line"/>
      <point x="350" y="301" type="line"/>
      <point x="398" y="355"/>
      <point x="406" y="425"/>
      <point x="385" y="448" type="curve"/>
      <point x="226" y="400" type="line"/>
      <point x="219" y="405" type="line"/>
    </contour>
  </outline>
</glyph>
<glyph name="acute" format="1">
  <advance width="307"/>
  <unicode hex="00B4"/>
  <outline>
    <contour>
      <point x="212" y="868" type="curve"/>
      <point x="182" y="762" type="line"/>
      <point x="107" y="667" type="line"/>
      <point x="103" y="635"/>
      <point x="150" y="616"/>
      <point x="192" y="617" type="curve"/>
      <point x="404" y="797" type="line"/>
      <point x="371" y="865"/>
      <point x="316" y="881"/>
    </contour>
    <contour>
      <point x="143" y="563" type="move" name="_top"/>
    </contour>
  </outline>
</glyph>
<glyph name="ordmasculine" format="1">
  <advance width="601"/>
  <unicode hex="00BA"/>
  <outline>
    <contour>
      <point x="196" y="304"/>
      <point x="85" y="407"/>
      <point x="81" y="483" type="curve" smooth="yes"/>
      <point x="79" y="615"/>
      <point x="205" y="765"/>
      <point x="386" y="765" type="curve" smooth="yes"/>
      <point x="484" y="765"/>
      <point x="605" y="646"/>
      <point x="607" y="554" type="curve" smooth="yes"/>
      <point x="609" y="432"/>
      <point x="455" y="304"/>
      <point x="298" y="304" type="curve"/>
    </contour>
    <contour>
      <point x="428" y="598"/>
      <point x="406" y="637"/>
      <point x="378" y="689" type="curve"/>
      <point x="317" y="639"/>
      <point x="265" y="559"/>
      <point x="267" y="491" type="curve"/>
      <point x="267" y="458"/>
      <point x="289" y="411"/>
      <point x="309" y="385" type="curve"/>
      <point x="380" y="426"/>
      <point x="417" y="472"/>
      <point x="436" y="527" type="curve"/>
    </contour>
  </outline>
</glyph>
<glyph name="onequarter" format="1">
  <advance width="948"/>
  <unicode hex="00BC"/>
  <outline>
    <contour>
      <point x="892" y="377" type="line"/>
      <point x="866" y="413"/>
      <point x="828" y="436"/>
      <point x="712" y="436" type="curve" smooth="yes"/>
      <point x="694" y="436"/>
      <point x="675" y="435"/>
      <point x="655" y="431" type="curve"/>
      <point x="454" y="140" type="line"/>
      <point x="450" y="112"/>
      <point x="454" y="92"/>
      <point x="475" y="76" type="curve"/>
      <point x="658" y="86" type="line"/>
      <point x="876" y="78" type="line"/>
      <point x="890" y="92"/>
      <point x="895" y="145"/>
      <point x="888" y="167" type="curve"/>
      <point x="659" y="157" type="line"/>
      <point x="625" y="162" type="line"/>
      <point x="694" y="279" type="line"/>
      <point x="739" y="342" type="line"/>
      <point x="746" y="340" type="line"/>
      <point x="699" y="188" type="line"/>
      <point x="655" y="6" type="line"/>
      <point x="686" y="-26"/>
      <point x="768" y="-30"/>
      <point x="807" y="-17" type="curve"/>
      <point x="816" y="106" type="line"/>
      <point x="855" y="296" type="line"/>
    </contour>
    <component base="onesuperior" xOffset="33"/>
    <component base="fraction" xOffset="107"/>
  </outline>
</glyph>
<glyph name="onehalf" format="1">
  <advance width="925"/>
  <unicode hex="00BD"/>
  <outline>
    <contour>
      <point x="789" y="144" type="line" smooth="yes"/>
      <point x="838" y="182"/>
      <point x="861" y="217"/>
      <point x="861" y="258" type="curve" smooth="yes"/>
      <point x="861" y="330"/>
      <point x="775" y="440"/>
      <point x="709" y="440" type="curve" smooth="yes"/>
      <point x="648" y="440"/>
      <point x="583" y="396"/>
      <point x="550" y="333" type="curve"/>
      <point x="562" y="298"/>
      <point x="602" y="254"/>
      <point x="636" y="226" type="curve"/>
      <point x="645" y="227"/>
      <point x="681" y="245"/>
      <point x="687" y="256" type="curve"/>
      <point x="676" y="288" type="line"/>
      <point x="691" y="307"/>
      <point x="711" y="323"/>
      <point x="731" y="323" type="curve" smooth="yes"/>
      <point x="745" y="323"/>
      <point x="754" y="318"/>
      <point x="759" y="312" type="curve"/>
      <point x="754" y="293"/>
      <point x="747" y="281"/>
      <point x="718" y="255" type="curve" smooth="yes"/>
      <point x="530" y="83" type="line"/>
      <point x="537" y="32"/>
      <point x="562" y="2"/>
      <point x="597" y="-21" type="curve"/>
      <point x="668" y="-9" type="line"/>
      <point x="822" y="-36" type="line"/>
      <point x="870" y="18"/>
      <point x="878" y="88"/>
      <point x="857" y="111" type="curve"/>
      <point x="698" y="63" type="line"/>
      <point x="691" y="68" type="line"/>
    </contour>
    <component base="onesuperior" xOffset="34"/>
    <component base="fraction" xOffset="107"/>
  </outline>
</glyph>
<glyph name="AE" format="1">
  <advance width="975"/>
  <unicode hex="00C6"/>
  <outline>
    <contour>
      <point x="907" y="750"/>
      <point x="819" y="754"/>
      <point x="735" y="754" type="curve" smooth="yes"/>
      <point x="563" y="754"/>
      <point x="397" y="740"/>
      <point x="299" y="707" type="curve"/>
      <point x="253" y="530" type="line"/>
      <point x="184" y="383" type="line"/>
      <point x="63" y="382" type="line"/>
      <point x="25" y="334"/>
      <point x="25" y="308"/>
      <point x="56" y="276" type="curve"/>
      <point x="131" y="283" type="line"/>
      <point x="2" y="51" type="line"/>
      <point x="27" y="3"/>
      <point x="179" y="-19"/>
      <point x="251" y="28" type="curve"/>
      <point x="343" y="295" type="line"/>
      <point x="478" y="307" type="line"/>
      <point x="417" y="62" type="line"/>
      <point x="446" y="24"/>
      <point x="500" y="0"/>
      <point x="581" y="0" type="curve" smooth="yes"/>
      <point x="650" y="0"/>
      <point x="821" y="11"/>
      <point x="902" y="27" type="curve"/>
      <point x="920" y="61"/>
      <point x="947" y="150"/>
      <point x="886" y="180" type="curve"/>
      <point x="782" y="157"/>
      <point x="683" y="137"/>
      <point x="606" y="128" type="curve"/>
      <point x="606" y="208" type="line"/>
      <point x="639" y="320" type="line"/>
      <point x="728" y="333"/>
      <point x="798" y="332"/>
      <point x="884" y="327" type="curve"/>
      <point x="923" y="360"/>
      <point x="930" y="430"/>
      <point x="886" y="444" type="curve"/>
      <point x="802" y="439"/>
      <point x="699" y="424"/>
      <point x="645" y="413" type="curve"/>
      <point x="637" y="563" type="line"/>
      <point x="665" y="624" type="line"/>
      <point x="726" y="634"/>
      <point x="774" y="638"/>
      <point x="815" y="630" type="curve"/>
      <point x="898" y="563" type="line"/>
      <point x="980" y="619"/>
      <point x="1017" y="682"/>
      <point x="969" y="747" type="curve"/>
    </contour>
    <contour>
      <point x="457" y="617" type="line"/>
      <point x="474" y="620" type="line"/>
      <point x="486" y="388" type="line"/>
      <point x="373" y="374" type="line"/>
    </contour>
  </outline>
</glyph>
<glyph name="germandbls" format="1">
  <advance width="773"/>
  <unicode hex="00DF"/>
  <outline>
    <contour>
      <point x="217" y="788"/>
      <point x="175" y="741"/>
      <point x="131" y="628" type="curve"/>
      <point x="122" y="434"/>
      <point x="80" y="248"/>
      <point x="11" y="57" type="curve"/>
      <point x="34" y="3"/>
      <point x="184" y="-22"/>
      <point x="255" y="25" type="curve"/>
      <point x="277" y="235"/>
      <point x="286" y="402"/>
      <point x="300" y="588" type="curve"/>
      <point x="381" y="757" type="line"/>
      <point x="329" y="716" type="line"/>
      <point x="486" y="737"/>
      <point x="536" y="677"/>
      <point x="534" y="616" type="curve" smooth="yes"/>
      <point x="534" y="577"/>
      <point x="512" y="537"/>
      <point x="484" y="517" type="curve"/>
      <point x="409" y="540" type="line"/>
      <point x="346" y="499"/>
      <point x="322" y="394"/>
      <point x="399" y="331" type="curve"/>
      <point x="498" y="372" type="line"/>
      <point x="543" y="357"/>
      <point x="569" y="308"/>
      <point x="568" y="261" type="curve" smooth="yes"/>
      <point x="566" y="201"/>
      <point x="528" y="160"/>
      <point x="484" y="137" type="curve"/>
      <point x="420" y="217" type="line"/>
      <point x="327" y="192"/>
      <point x="288" y="137"/>
      <point x="295" y="55" type="curve"/>
      <point x="350" y="13"/>
      <point x="391" y="5"/>
      <point x="479" y="0" type="curve"/>
      <point x="630" y="34"/>
      <point x="753" y="123"/>
      <point x="757" y="260" type="curve" smooth="yes"/>
      <point x="759" y="339"/>
      <point x="704" y="427"/>
      <point x="577" y="461" type="curve"/>
      <point x="578" y="467" type="line"/>
      <point x="659" y="500"/>
      <point x="708" y="572"/>
      <point x="710" y="644" type="curve" smooth="yes"/>
      <point x="711" y="754"/>
      <point x="580" y="865"/>
      <point x="325" y="837" type="curve"/>
    </contour>
  </outline>
</glyph>
<glyph name="eth" format="1">
  <advance width="678"/>
  <unicode hex="00F0"/>
  <outline>
    <contour>
      <point x="374" y="869"/>
      <point x="332" y="854"/>
      <point x="330" y="799" type="curve"/>
      <point x="422" y="714" type="line"/>
      <point x="506" y="562"/>
      <point x="514" y="305"/>
      <point x="322" y="106" type="curve"/>
      <point x="280" y="148"/>
      <point x="261" y="197"/>
      <point x="261" y="264" type="curve" smooth="yes"/>
      <point x="261" y="329"/>
      <point x="305" y="394"/>
      <point x="382" y="437" type="curve"/>
      <point x="415" y="412"/>
      <point x="446" y="379"/>
      <point x="478" y="324" type="curve"/>
      <point x="525" y="368" type="line"/>
      <point x="491" y="434"/>
      <point x="441" y="518"/>
      <point x="396" y="550" type="curve"/>
      <point x="209" y="551"/>
      <point x="43" y="405"/>
      <point x="40" y="267" type="curve" smooth="yes"/>
      <point x="38" y="136"/>
      <point x="149" y="11"/>
      <point x="327" y="0" type="curve"/>
      <point x="566" y="77"/>
      <point x="659" y="248"/>
      <point x="662" y="454" type="curve" smooth="yes"/>
      <point x="665" y="621"/>
      <point x="563" y="777"/>
      <point x="433" y="876" type="curve"/>
    </contour>
    <contour>
      <point x="742" y="783"/>
      <point x="733" y="809"/>
      <point x="673" y="830" type="curve"/>
      <point x="444" y="723" type="line"/>
      <point x="281" y="704" type="line"/>
      <point x="264" y="650"/>
      <point x="265" y="632"/>
      <point x="329" y="591" type="curve"/>
      <point x="582" y="702" type="line"/>
      <point x="726" y="728" type="line"/>
    </contour>
  </outline>
</glyph>
<glyph name="aogonek" format="1">
  <advance width="782"/>
  <unicode hex="0105"/>
  <outline>
    <contour>
      <point x="639" y="3" type="curve"/>
      <point x="644" y="50"/>
      <point x="635" y="70"/>
      <point x="565" y="75" type="curve"/>
      <point x="427" y="33"/>
      <point x="351" y="-57"/>
      <point x="351" y="-136" type="curve" smooth="yes"/>
      <point x="351" y="-207"/>
      <point x="415" y="-268"/>
      <point x="536" y="-268" type="curve" smooth="yes"/>
      <point x="618" y="-268"/>
      <point x="692" y="-230"/>
      <point x="738" y="-175" type="curve"/>
      <point x="738" y="-135"/>
      <point x="727" y="-111"/>
      <point x="679" y="-115" type="curve"/>
      <point x="621" y="-151"/>
      <point x="562" y="-170"/>
      <point x="489" y="-147" type="curve"/>
      <point x="493" y="-85"/>
      <point x="558" y="-21"/>
    </contour>
    <component base="a"/>
  </outline>
</glyph>
<glyph name="Eogonek" format="1">
  <advance width="727"/>
  <unicode hex="0118"/>
  <outline>
    <contour>
      <point x="638" y="24" type="curve"/>
      <point x="644" y="60"/>
      <point x="622" y="80"/>
      <point x="606" y="84" type="curve"/>
      <point x="450" y="62"/>
      <point x="327" y="-45"/>
      <point x="327" y="-135" type="curve" smooth="yes"/>
      <point x="327" y="-207"/>
      <point x="405" y="-268"/>
      <point x="516" y="-268" type="curve" smooth="yes"/>
      <point x="604" y="-268"/>
      <point x="673" y="-235"/>
      <point x="729" y="-175" type="curve"/>
      <point x="731" y="-143"/>
      <point x="716" y="-118"/>
      <point x="682" y="-119" type="curve"/>
      <point x="643" y="-151"/>
      <point x="595" y="-167"/>
      <point x="552" y="-167" type="curve" smooth="yes"/>
      <point x="522" y="-167"/>
      <point x="495" y="-159"/>
      <point x="474" y="-143" type="curve"/>
      <point x="496" y="-58"/>
      <point x="564" y="-6"/>
    </contour>
    <component base="E"/>
  </outline>
</glyph>
<glyph name="Gcommaaccent" format="1">
  <advance width="769"/>
  <unicode hex="0122"/>
  <outline>
    <contour>
      <point x="241" y="-340"/>
      <point x="263" y="-354"/>
      <point x="303" y="-355" type="curve"/>
      <point x="419" y="-269"/>
      <point x="467" y="-177"/>
      <point x="473" y="-86" type="curve"/>
      <point x="456" y="-38"/>
      <point x="372" y="20"/>
      <point x="278" y="-51" type="curve"/>
      <point x="295" y="-220" type="line"/>
      <point x="232" y="-313" type="line"/>
    </contour>
    <component base="G"/>
  </outline>
</glyph>
<glyph name="iogonek" format="1">
  <advance width="360"/>
  <unicode hex="012F"/>
  <outline>
    <contour>
      <point x="253" y="17" type="curve"/>
      <point x="255" y="46"/>
      <point x="250" y="66"/>
      <point x="210" y="75" type="curve"/>
      <point x="60" y="63"/>
      <point x="-28" y="-38"/>
      <point x="-28" y="-128" type="curve" smooth="yes"/>
      <point x="-28" y="-202"/>
      <point x="32" y="-268"/>
      <point x="169" y="-268" type="curve" smooth="yes"/>
      <point x="270" y="-268"/>
      <point x="337" y="-226"/>
      <point x="378" y="-175" type="curve"/>
      <point x="380" y="-145"/>
      <point x="365" y="-120"/>
      <point x="328" y="-119" type="curve"/>
      <point x="289" y="-150"/>
      <point x="244" y="-164"/>
      <point x="201" y="-164" type="curve" smooth="yes"/>
      <point x="169" y="-164"/>
      <point x="139" y="-157"/>
      <point x="112" y="-144" type="curve"/>
      <point x="121" y="-77"/>
      <point x="184" y="-17"/>
    </contour>
    <component base="i"/>
  </outline>
</glyph>
<glyph name="dotlessi" format="1">
  <advance width="355"/>
  <unicode hex="0131"/>
  <outline>
    <contour>
      <point x="109" y="323" type="line"/>
      <point x="87" y="227"/>
      <point x="57" y="157"/>
      <point x="11" y="56" type="curve"/>
      <point x="60" y="3"/>
      <point x="208" y="-22"/>
      <point x="271" y="31" type="curve"/>
      <point x="274" y="150"/>
      <point x="274" y="246"/>
      <point x="284" y="353" type="curve"/>
      <point x="338" y="535" type="line"/>
      <point x="280" y="572"/>
      <point x="208" y="572"/>
      <point x="100" y="523" type="curve"/>
    </contour>
    <contour>
      <point x="222" y="0" type="move" name="ogonek"/>
    </contour>
    <contour>
      <point x="234" y="563" type="move" name="top"/>
    </contour>
  </outline>
</glyph>
<glyph name="kcommaaccent" format="1">
  <advance width="689"/>
  <unicode hex="0137"/>
  <outline>
    <contour>
      <point x="249" y="-340"/>
      <point x="271" y="-354"/>
      <point x="311" y="-355" type="curve"/>
      <point x="427" y="-269"/>
      <point x="475" y="-177"/>
      <point x="481" y="-86" type="curve"/>
      <point x="464" y="-38"/>
      <point x="380" y="20"/>
      <point x="286" y="-51" type="curve"/>
      <point x="303" y="-220" type="line"/>
      <point x="240" y="-313" type="line"/>
    </contour>
    <component base="k"/>
  </outline>
</glyph>
<glyph name="lslash" format="1">
  <advance width="578"/>
  <unicode hex="0142"/>
  <outline>
    <contour>
      <point x="613" y="477"/>
      <point x="605" y="511"/>
      <point x="547" y="525" type="curve"/>
      <point x="241" y="436" type="line"/>
      <point x="57" y="437" type="line"/>
      <point x="31" y="404"/>
      <point x="31" y="344"/>
      <point x="97" y="307" type="curve"/>
      <point x="412" y="400" type="line"/>
      <point x="585" y="405" type="line"/>
    </contour>
    <component base="l" xOffset="90"/>
  </outline>
</glyph>
<glyph name="OE" format="1">
  <advance width="1095"/>
  <unicode hex="0152"/>
  <outline>
    <contour>
      <point x="891" y="762"/>
      <point x="751" y="760"/>
      <point x="616" y="710" type="curve"/>
      <point x="572" y="735"/>
      <point x="513" y="768"/>
      <point x="448" y="768" type="curve" smooth="yes"/>
      <point x="226" y="768"/>
      <point x="39" y="543"/>
      <point x="39" y="326" type="curve" smooth="yes"/>
      <point x="39" y="168"/>
      <point x="209" y="0"/>
      <point x="340" y="0" type="curve" smooth="yes"/>
      <point x="401" y="0"/>
      <point x="467" y="31"/>
      <point x="507" y="54" type="curve"/>
      <point x="545" y="28"/>
      <point x="575" y="13"/>
      <point x="633" y="1" type="curve"/>
      <point x="1007" y="25" type="line"/>
      <point x="1050" y="77"/>
      <point x="1072" y="165"/>
      <point x="996" y="189" type="curve"/>
      <point x="895" y="162"/>
      <point x="779" y="139"/>
      <point x="680" y="123" type="curve"/>
      <point x="702" y="326" type="line"/>
      <point x="783" y="324"/>
      <point x="878" y="318"/>
      <point x="950" y="311" type="curve"/>
      <point x="975" y="355"/>
      <point x="992" y="417"/>
      <point x="949" y="450" type="curve"/>
      <point x="875" y="444"/>
      <point x="789" y="432"/>
      <point x="716" y="421" type="curve"/>
      <point x="746" y="583" type="line"/>
      <point x="784" y="633" type="line"/>
      <point x="844" y="644"/>
      <point x="883" y="641"/>
      <point x="927" y="641" type="curve"/>
      <point x="1026" y="547" type="line"/>
      <point x="1120" y="590"/>
      <point x="1154" y="657"/>
      <point x="1114" y="746" type="curve"/>
    </contour>
    <contour>
      <point x="300" y="173"/>
      <point x="266" y="248"/>
      <point x="266" y="339" type="curve" smooth="yes"/>
      <point x="266" y="438"/>
      <point x="341" y="583"/>
      <point x="437" y="660" type="curve"/>
      <point x="513" y="584"/>
      <point x="546" y="524"/>
      <point x="548" y="419" type="curve"/>
      <point x="513" y="279"/>
      <point x="434" y="174"/>
      <point x="343" y="109" type="curve"/>
    </contour>
  </outline>
</glyph>
<glyph name="oe" format="1">
  <advance width="1029"/>
  <unicode hex="0153"/>
  <outline>
    <contour>
      <point x="682" y="284"/>
      <point x="745" y="312"/>
      <point x="785" y="334" type="curve"/>
      <point x="804" y="403"/>
      <point x="776" y="439"/>
      <point x="753" y="458" type="curve"/>
      <point x="732" y="448" type="line"/>
      <point x="678" y="391"/>
      <point x="655" y="329"/>
      <point x="653" y="270" type="curve" smooth="yes"/>
      <point x="650" y="202"/>
      <point x="666" y="163"/>
      <point x="697" y="123" type="curve"/>
      <point x="779" y="133"/>
      <point x="850" y="160"/>
      <point x="915" y="201" type="curve"/>
      <point x="962" y="203"/>
      <point x="994" y="181"/>
      <point x="980" y="113" type="curve"/>
      <point x="914" y="48"/>
      <point x="763" y="8"/>
      <point x="660" y="0" type="curve"/>
      <point x="502" y="37"/>
      <point x="445" y="145"/>
      <point x="445" y="250" type="curve" smooth="yes"/>
      <point x="445" y="324"/>
      <point x="473" y="395"/>
      <point x="513" y="441" type="curve"/>
      <point x="600" y="499"/>
      <point x="703" y="556"/>
      <point x="835" y="573" type="curve"/>
      <point x="994" y="561"/>
      <point x="1036" y="446"/>
      <point x="980" y="315" type="curve"/>
      <point x="896" y="273"/>
      <point x="734" y="215"/>
      <point x="632" y="199" type="curve"/>
      <point x="619" y="264" type="line"/>
    </contour>
    <component base="o"/>
  </outline>
</glyph>
<glyph name="rcommaaccent" format="1">
  <advance width="621"/>
  <unicode hex="0157"/>
  <outline>
    <contour>
      <point x="32" y="-340"/>
      <point x="54" y="-354"/>
      <point x="94" y="-355" type="curve"/>
      <point x="210" y="-269"/>
      <point x="258" y="-177"/>
      <point x="264" y="-86" type="curve"/>
      <point x="247" y="-38"/>
      <point x="163" y="20"/>
      <point x="69" y="-51" type="curve"/>
      <point x="86" y="-220" type="line"/>
      <point x="23" y="-313" type="line"/>
    </contour>
    <component base="r"/>
  </outline>
</glyph>
<glyph name="uogonek" format="1">
  <advance width="746"/>
  <unicode hex="0173"/>
  <outline>
    <contour>
      <point x="606" y="3" type="curve"/>
      <point x="611" y="50"/>
      <point x="602" y="70"/>
      <point x="532" y="75" type="curve"/>
      <point x="394" y="33"/>
      <point x="318" y="-57"/>
      <point x="318" y="-136" type="curve" smooth="yes"/>
      <point x="318" y="-207"/>
      <point x="382" y="-268"/>
      <point x="503" y="-268" type="curve" smooth="yes"/>
      <point x="585" y="-268"/>
      <point x="659" y="-230"/>
      <point x="705" y="-175" type="curve"/>
      <point x="705" y="-135"/>
      <point x="694" y="-111"/>
      <point x="646" y="-115" type="curve"/>
      <point x="588" y="-151"/>
      <point x="529" y="-170"/>
      <point x="456" y="-147" type="curve"/>
      <point x="460" y="-85"/>
      <point x="525" y="-21"/>
    </contour>
    <component base="u"/>
  </outline>
</glyph>
<glyph name="Tcommaaccent" format="1">
  <advance width="727"/>
  <unicode hex="021A"/>
  <outline>
    <contour>
      <point x="191" y="-340"/>
      <point x="213" y="-354"/>
      <point x="253" y="-355" type="curve"/>
      <point x="369" y="-269"/>
      <point x="417" y="-177"/>
      <point x="423" y="-86" type="curve"/>
      <point x="406" y="-38"/>
      <point x="322" y="20"/>
      <point x="228" y="-51" type="curve"/>
      <point x="245" y="-220" type="line"/>
      <point x="182" y="-313" type="line"/>
    </contour>
    <component base="T"/>
  </outline>
</glyph>
<glyph name="breve" format="1">
  <advance width="439"/>
  <unicode hex="02D8"/>
  <outline>
    <contour>
      <point x="116" y="795" type="curve"/>
      <point x="131" y="683"/>
      <point x="228" y="625"/>
      <point x="318" y="625" type="curve" smooth="yes"/>
      <point x="408" y="625"/>
      <point x="487" y="693"/>
      <point x="510" y="765" type="curve"/>
      <point x="500" y="807"/>
      <point x="451" y="832"/>
      <point x="372" y="821" type="curve"/>
      <point x="365" y="772"/>
      <point x="332" y="734"/>
      <point x="268" y="723" type="curve"/>
      <point x="222" y="736"/>
      <point x="193" y="770"/>
      <point x="176" y="821" type="curve"/>
      <point x="154" y="825"/>
      <point x="127" y="809"/>
    </contour>
    <contour>
      <point x="277" y="563" type="move" name="_top"/>
    </contour>
  </outline>
</glyph>
<glyph name="dotaccent" format="1">
  <advance width="240"/>
  <unicode hex="02D9"/>
  <outline>
    <contour>
      <point x="108" y="689"/>
      <point x="153" y="646"/>
      <point x="208" y="646" type="curve" smooth="yes"/>
      <point x="262" y="646"/>
      <point x="305" y="689"/>
      <point x="305" y="742" type="curve" smooth="yes"/>
      <point x="305" y="795"/>
      <point x="262" y="838"/>
      <point x="208" y="838" type="curve" smooth="yes"/>
      <point x="153" y="838"/>
      <point x="108" y="795"/>
      <point x="108" y="742" type="curve" smooth="yes"/>
    </contour>
    <contour>
      <point x="194" y="563" type="move" name="_top"/>
    </contour>
  </outline>
</glyph>
<glyph name="ring" format="1">
  <advance width="418"/>
  <unicode hex="02DA"/>
  <outline>
    <contour>
      <point x="334" y="872" type="curve"/>
      <point x="221" y="872"/>
      <point x="125" y="838"/>
      <point x="96" y="740" type="curve" smooth="yes"/>
      <point x="69" y="650"/>
      <point x="155" y="612"/>
      <point x="246" y="612" type="curve" smooth="yes"/>
      <point x="361" y="612"/>
      <point x="458" y="651"/>
      <point x="486" y="740" type="curve" smooth="yes"/>
      <point x="523" y="846"/>
      <point x="421" y="872"/>
    </contour>
    <contour>
      <point x="305" y="820" type="curve"/>
      <point x="316" y="820"/>
      <point x="332" y="798"/>
      <point x="318" y="740" type="curve" smooth="yes"/>
      <point x="309" y="707"/>
      <point x="298" y="680"/>
      <point x="283" y="662" type="curve"/>
      <point x="279" y="661"/>
      <point x="276" y="661"/>
      <point x="273" y="661" type="curve" smooth="yes"/>
      <point x="261" y="661"/>
      <point x="244" y="683"/>
      <point x="259" y="740" type="curve" smooth="yes"/>
      <point x="265" y="772"/>
      <point x="278" y="800"/>
      <point x="290" y="817" type="curve"/>
      <point x="294" y="820"/>
      <point x="299" y="820"/>
    </contour>
    <contour>
      <point x="252" y="563" type="move" name="_top"/>
    </contour>
  </outline>
</glyph>
<glyph name="tilde" format="1">
  <advance width="570"/>
  <unicode hex="02DC"/>
  <outline>
    <contour>
      <point x="258" y="825" type="curve"/>
      <point x="180" y="779"/>
      <point x="142" y="751"/>
      <point x="84" y="681" type="curve"/>
      <point x="80" y="636"/>
      <point x="140" y="610"/>
      <point x="179" y="619" type="curve"/>
      <point x="253" y="707" type="line"/>
      <point x="261" y="709" type="line"/>
      <point x="304" y="672"/>
      <point x="354" y="631"/>
      <point x="468" y="617" type="curve"/>
      <point x="557" y="646"/>
      <point x="615" y="717"/>
      <point x="647" y="765" type="curve"/>
      <point x="650" y="802"/>
      <point x="606" y="822"/>
      <point x="562" y="814" type="curve"/>
      <point x="491" y="718" type="line"/>
      <point x="486" y="718" type="line"/>
      <point x="450" y="750"/>
      <point x="374" y="803"/>
    </contour>
    <contour>
      <point x="305" y="563" type="move" name="_top"/>
    </contour>
  </outline>
</glyph>
<glyph name="endash" format="1">
  <advance width="693"/>
  <unicode hex="2013"/>
  <outline>
    <contour>
      <point x="658" y="339"/>
      <point x="662" y="388"/>
      <point x="642" y="400" type="curve"/>
      <point x="363" y="380" type="line"/>
      <point x="87" y="385" type="line"/>
      <point x="62" y="349"/>
      <point x="57" y="306"/>
      <point x="73" y="287" type="curve"/>
      <point x="626" y="298" type="line"/>
    </contour>
  </outline>
</glyph>
<glyph name="quoteleft" format="1">
  <advance width="415"/>
  <unicode hex="2018"/>
  <outline>
    <contour>
      <point x="275" y="983" type="curve"/>
      <point x="179" y="861"/>
      <point x="158" y="748"/>
      <point x="175" y="652" type="curve"/>
      <point x="208" y="604"/>
      <point x="314" y="561"/>
      <point x="395" y="664" type="curve"/>
      <point x="326" y="844" type="line"/>
      <point x="362" y="960" type="line"/>
      <point x="345" y="987"/>
      <point x="318" y="993"/>
    </contour>
  </outline>
</glyph>
<glyph name="dagger" format="1">
  <advance width="546"/>
  <unicode hex="2020"/>
  <outline>
    <contour>
      <point x="70" y="575"/>
      <point x="68" y="547"/>
      <point x="98" y="505" type="curve"/>
      <point x="377" y="529" type="line"/>
      <point x="542" y="515" type="line"/>
      <point x="574" y="564"/>
      <point x="578" y="598"/>
      <point x="552" y="628" type="curve"/>
      <point x="272" y="602" type="line"/>
      <point x="108" y="623" type="line"/>
    </contour>
    <contour>
      <point x="240" y="592" type="line"/>
      <point x="92" y="-376" type="line"/>
      <point x="116" y="-391"/>
      <point x="143" y="-396"/>
      <point x="169" y="-385" type="curve"/>
      <point x="403" y="631" type="line"/>
      <point x="494" y="832" type="line"/>
      <point x="425" y="857"/>
      <point x="347" y="855"/>
      <point x="235" y="804" type="curve"/>
    </contour>
  </outline>
</glyph>
<glyph name="perthousand" format="1">
  <advance width="1396"/>
  <unicode hex="2030"/>
  <outline>
    <contour>
      <point x="160" y="768"/>
      <point x="101" y="679"/>
      <point x="83" y="552" type="curve" smooth="yes"/>
      <point x="61" y="419"/>
      <point x="139" y="323"/>
      <point x="231" y="323" type="curve" smooth="yes"/>
      <point x="358" y="323"/>
      <point x="435" y="413"/>
      <point x="453" y="550" type="curve" smooth="yes"/>
      <point x="464" y="642"/>
      <point x="397" y="768"/>
      <point x="263" y="768" type="curve" smooth="yes"/>
    </contour>
    <contour>
      <point x="283" y="679"/>
      <point x="296" y="674"/>
      <point x="307" y="666" type="curve"/>
      <point x="310" y="644"/>
      <point x="309" y="597"/>
      <point x="300" y="548" type="curve" smooth="yes"/>
      <point x="286" y="477"/>
      <point x="271" y="429"/>
      <point x="264" y="402" type="curve"/>
      <point x="242" y="411"/>
      <point x="228" y="421"/>
      <point x="217" y="439" type="curve"/>
      <point x="218" y="464"/>
      <point x="221" y="497"/>
      <point x="232" y="547" type="curve" smooth="yes"/>
      <point x="245" y="608"/>
      <point x="249" y="634"/>
      <point x="266" y="681" type="curve"/>
    </contour>
    <contour>
      <point x="960" y="305"/>
      <point x="893" y="430"/>
      <point x="759" y="430" type="curve" smooth="yes"/>
      <point x="656" y="429"/>
      <point x="597" y="341"/>
      <point x="579" y="213" type="curve" smooth="yes"/>
      <point x="557" y="81"/>
      <point x="635" y="-14"/>
      <point x="727" y="-14" type="curve" smooth="yes"/>
      <point x="854" y="-14"/>
      <point x="931" y="74"/>
      <point x="949" y="212" type="curve" smooth="yes"/>
    </contour>
    <contour>
      <point x="741" y="270"/>
      <point x="745" y="296"/>
      <point x="762" y="342" type="curve"/>
      <point x="779" y="341"/>
      <point x="792" y="336"/>
      <point x="803" y="327" type="curve"/>
      <point x="806" y="305"/>
      <point x="805" y="260"/>
      <point x="796" y="209" type="curve" smooth="yes"/>
      <point x="782" y="139"/>
      <point x="767" y="91"/>
      <point x="760" y="64" type="curve"/>
      <point x="738" y="73"/>
      <point x="724" y="84"/>
      <point x="713" y="100" type="curve"/>
      <point x="714" y="127"/>
      <point x="717" y="158"/>
      <point x="728" y="209" type="curve" smooth="yes"/>
    </contour>
    <contour>
      <point x="1363" y="305"/>
      <point x="1296" y="430"/>
      <point x="1162" y="430" type="curve" smooth="yes"/>
      <point x="1058" y="429"/>
      <point x="1000" y="341"/>
      <point x="981" y="213" type="curve" smooth="yes"/>
      <point x="959" y="81"/>
      <point x="1037" y="-14"/>
      <point x="1130" y="-14" type="curve" smooth="yes"/>
      <point x="1256" y="-14"/>
      <point x="1333" y="74"/>
      <point x="1352" y="212" type="curve" smooth="yes"/>
    </contour>
    <contour>
      <point x="1144" y="270"/>
      <point x="1147" y="296"/>
      <point x="1165" y="342" type="curve"/>
      <point x="1181" y="341"/>
      <point x="1195" y="336"/>
      <point x="1206" y="327" type="curve"/>
      <point x="1209" y="305"/>
      <point x="1208" y="260"/>
      <point x="1199" y="209" type="curve" smooth="yes"/>
      <point x="1185" y="139"/>
      <point x="1169" y="91"/>
      <point x="1163" y="64" type="curve"/>
      <point x="1141" y="73"/>
      <point x="1126" y="84"/>
      <point x="1115" y="100" type="curve"/>
      <point x="1117" y="127"/>
      <point x="1120" y="158"/>
      <point x="1131" y="209" type="curve" smooth="yes"/>
    </contour>
    <component base="fraction" xOffset="172"/>
  </outline>
</glyph>
<glyph name="guilsinglright" format="1">
  <advance width="394"/>
  <unicode hex="203A"/>
  <outline>
    <contour>
      <point x="117" y="615"/>
      <point x="80" y="532"/>
      <point x="101" y="457" type="curve"/>
      <point x="182" y="415" type="line"/>
      <point x="246" y="380" type="line"/>
      <point x="73" y="273" type="line"/>
      <point x="22" y="197"/>
      <point x="35" y="135"/>
      <point x="89" y="114" type="curve"/>
      <point x="210" y="205" type="line"/>
      <point x="351" y="310" type="line"/>
      <point x="361" y="336"/>
      <point x="367" y="360"/>
      <point x="366" y="388" type="curve"/>
      <point x="176" y="614" type="line"/>
    </contour>
  </outline>
</glyph>
<glyph name="Euro" format="1">
  <advance width="802"/>
  <unicode hex="20AC"/>
  <outline>
    <contour>
      <point x="538" y="660" type="line"/>
      <point x="566" y="620"/>
      <point x="568" y="592"/>
      <point x="576" y="538" type="curve"/>
      <point x="671" y="491"/>
      <point x="785" y="538"/>
      <point x="796" y="608" type="curve"/>
      <point x="747" y="704"/>
      <point x="717" y="739"/>
      <point x="589" y="766" type="curve"/>
      <point x="467" y="748"/>
      <point x="359" y="710"/>
      <point x="241" y="605" type="curve"/>
      <point x="180" y="508"/>
      <point x="146" y="427"/>
      <point x="145" y="330" type="curve" smooth="yes"/>
      <point x="143" y="158"/>
      <point x="262" y="28"/>
      <point x="475" y="0" type="curve"/>
      <point x="598" y="36"/>
      <point x="709" y="96"/>
      <point x="777" y="167" type="curve"/>
      <point x="779" y="220"/>
      <point x="760" y="254"/>
      <point x="702" y="250" type="curve"/>
      <point x="643" y="208"/>
      <point x="589" y="181"/>
      <point x="498" y="149" type="curve"/>
      <point x="426" y="191"/>
      <point x="382" y="250"/>
      <point x="382" y="350" type="curve" smooth="yes"/>
      <point x="382" y="439"/>
      <point x="397" y="548"/>
      <point x="516" y="654" type="curve"/>
    </contour>
    <contour>
      <point x="226" y="303" type="line"/>
      <point x="48" y="324" type="line"/>
      <point x="20" y="300"/>
      <point x="15" y="256"/>
      <point x="37" y="235" type="curve"/>
      <point x="597" y="258" type="line"/>
      <point x="624" y="292"/>
      <point x="628" y="339"/>
      <point x="591" y="351" type="curve"/>
    </contour>
    <contour>
      <point x="256" y="443" type="line"/>
      <point x="69" y="464" type="line"/>
      <point x="41" y="440"/>
      <point x="36" y="396"/>
      <point x="58" y="375" type="curve"/>
      <point x="611" y="398" type="line"/>
      <point x="638" y="432"/>
      <point x="642" y="479"/>
      <point x="605" y="491" type="curve"/>
    </contour>
  </outline>
</glyph>
<glyph name="ruble" format="1">
  <advance width="739"/>
  <unicode hex="20BD"/>
  <outline>
    <contour>
      <point x="140" y="268"/>
      <point x="403" y="274"/>
      <point x="520" y="297" type="curve"/>
      <point x="672" y="350"/>
      <point x="745" y="411"/>
      <point x="748" y="538" type="curve" smooth="yes"/>
      <point x="751" y="655"/>
      <point x="599" y="765"/>
      <point x="388" y="765" type="curve" smooth="yes"/>
      <point x="286" y="765"/>
      <point x="178" y="749"/>
      <point x="103" y="722" type="curve"/>
      <point x="86" y="698"/>
      <point x="94" y="659"/>
      <point x="124" y="640" type="curve"/>
      <point x="170" y="631" type="line"/>
      <point x="186" y="547" type="line"/>
      <point x="153" y="349"/>
      <point x="122" y="233"/>
      <point x="63" y="55" type="curve"/>
      <point x="99" y="-3"/>
      <point x="267" y="-18"/>
      <point x="324" y="31" type="curve"/>
      <point x="335" y="193"/>
      <point x="339" y="312"/>
      <point x="351" y="460" type="curve"/>
      <point x="406" y="686" type="line"/>
      <point x="346" y="651" type="line"/>
      <point x="471" y="654"/>
      <point x="532" y="596"/>
      <point x="532" y="523" type="curve" smooth="yes"/>
      <point x="532" y="485"/>
      <point x="515" y="442"/>
      <point x="481" y="402" type="curve"/>
      <point x="330" y="357"/>
      <point x="195" y="357"/>
      <point x="15" y="352" type="curve"/>
      <point x="1" y="335"/>
      <point x="-6" y="296"/>
      <point x="23" y="270" type="curve"/>
    </contour>
    <contour>
      <point x="509" y="176"/>
      <point x="511" y="225"/>
      <point x="491" y="236" type="curve"/>
      <point x="243" y="203" type="line"/>
      <point x="-6" y="207" type="line"/>
      <point x="-29" y="170"/>
      <point x="-31" y="127"/>
      <point x="-15" y="108" type="curve"/>
      <point x="479" y="134" type="line"/>
    </contour>
  </outline>
</glyph>
<glyph name="partialdiff" format="1">
  <advance width="678"/>
  <unicode hex="2202"/>
  <outline>
    <contour>
      <point x="172" y="867"/>
      <point x="162" y="836"/>
      <point x="168" y="798" type="curve"/>
      <point x="432" y="673" type="line"/>
      <point x="503" y="488"/>
      <point x="501" y="302"/>
      <point x="322" y="106" type="curve"/>
      <point x="280" y="148"/>
      <point x="261" y="197"/>
      <point x="261" y="264" type="curve" smooth="yes"/>
      <point x="261" y="329"/>
      <point x="305" y="394"/>
      <point x="382" y="437" type="curve"/>
      <point x="415" y="412"/>
      <point x="446" y="379"/>
      <point x="478" y="324" type="curve"/>
      <point x="525" y="368" type="line"/>
      <point x="491" y="434"/>
      <point x="441" y="518"/>
      <point x="396" y="550" type="curve"/>
      <point x="209" y="551"/>
      <point x="43" y="405"/>
      <point x="40" y="267" type="curve" smooth="yes"/>
      <point x="38" y="136"/>
      <point x="149" y="11"/>
      <point x="327" y="0" type="curve"/>
      <point x="566" y="77"/>
      <point x="662" y="248"/>
      <point x="662" y="454" type="curve" smooth="yes"/>
      <point x="662" y="658"/>
      <point x="456" y="831"/>
      <point x="205" y="877" type="curve"/>
    </contour>
  </outline>
</glyph>
<glyph name="product" format="1">
  <advance width="781"/>
  <unicode hex="220F"/>
  <outline>
    <contour>
      <point x="697" y="175"/>
      <point x="680" y="280"/>
      <point x="692" y="499" type="curve"/>
      <point x="746" y="650" type="line"/>
      <point x="792" y="647" type="line"/>
      <point x="837" y="703"/>
      <point x="850" y="751"/>
      <point x="812" y="800" type="curve"/>
      <point x="637" y="766" type="line"/>
      <point x="170" y="801" type="line"/>
      <point x="113" y="778"/>
      <point x="100" y="722"/>
      <point x="142" y="647" type="curve"/>
      <point x="209" y="662" type="line"/>
      <point x="183" y="450" type="line"/>
      <point x="142" y="319"/>
      <point x="61" y="144"/>
      <point x="-12" y="18" type="curve"/>
      <point x="40" y="-36"/>
      <point x="109" y="-61"/>
      <point x="221" y="-45" type="curve"/>
      <point x="295" y="173"/>
      <point x="381" y="544"/>
      <point x="408" y="662" type="curve"/>
      <point x="556" y="650" type="line"/>
      <point x="521" y="546"/>
      <point x="484" y="266"/>
      <point x="484" y="-43" type="curve"/>
      <point x="612" y="-61"/>
      <point x="687" y="-52"/>
      <point x="725" y="-6" type="curve"/>
    </contour>
  </outline>
</glyph>
<glyph name="infinity" format="1">
  <advance width="894"/>
  <unicode hex="221E"/>
  <outline>
    <contour>
      <point x="129" y="481"/>
      <point x="-25" y="344"/>
      <point x="-24" y="207" type="curve" smooth="yes"/>
      <point x="-25" y="115"/>
      <point x="101" y="0"/>
      <point x="210" y="0" type="curve" smooth="yes"/>
      <point x="383" y="0"/>
      <point x="597" y="255"/>
      <point x="726" y="371" type="curve"/>
      <point x="748" y="343"/>
      <point x="759" y="308"/>
      <point x="753" y="270" type="curve" smooth="yes"/>
      <point x="744" y="220"/>
      <point x="705" y="161"/>
      <point x="641" y="128" type="curve"/>
      <point x="570" y="157"/>
      <point x="520" y="211"/>
      <point x="481" y="266" type="curve"/>
      <point x="424" y="216" type="line"/>
      <point x="467" y="118"/>
      <point x="528" y="50"/>
      <point x="638" y="0" type="curve"/>
      <point x="795" y="41"/>
      <point x="934" y="151"/>
      <point x="934" y="284" type="curve" smooth="yes"/>
      <point x="934" y="385"/>
      <point x="832" y="512"/>
      <point x="739" y="512" type="curve" smooth="yes"/>
      <point x="592" y="512"/>
      <point x="421" y="205"/>
      <point x="200" y="129" type="curve"/>
      <point x="173" y="155"/>
      <point x="161" y="184"/>
      <point x="161" y="215" type="curve" smooth="yes"/>
      <point x="161" y="274"/>
      <point x="206" y="352"/>
      <point x="339" y="413" type="curve"/>
      <point x="271" y="392" type="line"/>
      <point x="319" y="363"/>
      <point x="363" y="303"/>
      <point x="398" y="241" type="curve"/>
      <point x="468" y="288" type="line"/>
      <point x="440" y="383"/>
      <point x="383" y="460"/>
      <point x="304" y="511" type="curve"/>
    </contour>
  </outline>
</glyph>
<glyph name="notequal" format="1">
  <advance width="696"/>
  <unicode hex="2260"/>
  <outline>
    <contour>
      <point x="676" y="436"/>
      <point x="681" y="485"/>
      <point x="661" y="497" type="curve"/>
      <point x="382" y="476" type="line"/>
      <point x="106" y="482" type="line"/>
      <point x="80" y="446"/>
      <point x="76" y="403"/>
      <point x="91" y="384" type="curve"/>
      <point x="645" y="395" type="line"/>
    </contour>
    <contour>
      <point x="642" y="253"/>
      <point x="647" y="303"/>
      <point x="627" y="315" type="curve"/>
      <point x="348" y="294" type="line"/>
      <point x="71" y="299" type="line"/>
      <point x="46" y="263"/>
      <point x="42" y="220"/>
      <point x="57" y="201" type="curve"/>
      <point x="610" y="212" type="line"/>
    </contour>
    <contour>
      <point x="351" y="390" type="line"/>
      <point x="115" y="66" type="line"/>
      <point x="120" y="19"/>
      <point x="158" y="-2"/>
      <point x="216" y="1" type="curve"/>
      <point x="586" y="661" type="line"/>
      <point x="556" y="704"/>
      <point x="532" y="716"/>
      <point x="474" y="703" type="curve"/>
    </contour>
  </outline>
</glyph>
<glyph name="lessequal" format="1">
  <advance width="640"/>
  <unicode hex="2264"/>
  <outline>
    <contour>
      <point x="517" y="475" type="line"/>
      <point x="612" y="507" type="line"/>
      <point x="641" y="564"/>
      <point x="621" y="597"/>
      <point x="594" y="609" type="curve"/>
      <point x="113" y="451" type="line"/>
      <point x="87" y="438"/>
      <point x="76" y="381"/>
      <point x="99" y="346" type="curve"/>
      <point x="295" y="307" type="line"/>
      <point x="540" y="226" type="line"/>
      <point x="580" y="256"/>
      <point x="601" y="296"/>
      <point x="581" y="329" type="curve"/>
      <point x="205" y="406" type="line"/>
    </contour>
    <contour>
      <point x="552" y="87"/>
      <point x="561" y="124"/>
      <point x="546" y="150" type="curve"/>
      <point x="361" y="179" type="line"/>
      <point x="111" y="271" type="line"/>
      <point x="78" y="257"/>
      <point x="62" y="218"/>
      <point x="68" y="180" type="curve"/>
      <point x="508" y="55" type="line"/>
    </contour>
  </outline>
</glyph>
<glyph name="lozenge" format="1">
  <advance width="600"/>
  <unicode hex="25CA"/>
  <outline>
    <contour>
      <point x="530" y="315" type="line"/>
      <point x="406" y="665" type="line"/>
      <point x="386" y="683"/>
      <point x="364" y="690"/>
      <point x="337" y="687" type="curve"/>
      <point x="98" y="363" type="line"/>
      <point x="231" y="39" type="line"/>
      <point x="251" y="22"/>
      <point x="273" y="14"/>
      <point x="299" y="17" type="curve"/>
    </contour>
    <contour>
      <point x="207" y="346" type="line"/>
      <point x="344" y="538" type="line"/>
      <point x="421" y="330" type="line"/>
      <point x="292" y="166" type="line"/>
    </contour>
  </outline>
</glyph>
<glyph name="fi" format="1">
  <advance width="805"/>
  <unicode hex="FB01"/>
  <outline>
    <contour>
      <point x="559" y="323" type="line"/>
      <point x="538" y="227"/>
      <point x="507" y="157"/>
      <point x="461" y="56" type="curve"/>
      <point x="510" y="3"/>
      <point x="658" y="-22"/>
      <point x="721" y="31" type="curve"/>
      <point x="724" y="150"/>
      <point x="724" y="246"/>
      <point x="734" y="353" type="curve"/>
      <point x="788" y="535" type="line"/>
      <point x="730" y="572"/>
      <point x="658" y="572"/>
      <point x="550" y="523" type="curve"/>
    </contour>
    <contour>
      <point x="414" y="763"/>
      <point x="469" y="788"/>
      <point x="511" y="793" type="curve"/>
      <point x="541" y="748"/>
      <point x="556" y="696"/>
      <point x="559" y="623" type="curve"/>
      <point x="659" y="600"/>
      <point x="747" y="632"/>
      <point x="783" y="699" type="curve"/>
      <point x="727" y="825"/>
      <point x="693" y="873"/>
      <point x="548" y="903" type="curve"/>
      <point x="407" y="889"/>
      <point x="275" y="827"/>
      <point x="184" y="705" type="curve"/>
      <point x="220" y="472" type="line"/>
      <point x="190" y="350"/>
      <point x="129" y="179"/>
      <point x="74" y="57" type="curve"/>
      <point x="104" y="3"/>
      <point x="271" y="-22"/>
      <point x="339" y="31" type="curve"/>
      <point x="363" y="213"/>
      <point x="397" y="559"/>
      <point x="380" y="726" type="curve"/>
    </contour>
    <contour>
      <point x="233" y="472" type="line"/>
      <point x="69" y="476" type="line"/>
      <point x="36" y="425"/>
      <point x="37" y="395"/>
      <point x="70" y="359" type="curve"/>
      <point x="347" y="409" type="line"/>
      <point x="569" y="418" type="line"/>
      <point x="597" y="472"/>
      <point x="597" y="505"/>
      <point x="569" y="531" type="curve"/>
    </contour>
  </outline>
</glyph>
<glyph name="fl" format="1">
  <advance width="883"/>
  <unicode hex="FB02"/>
  <outline>
    <contour>
      <point x="233" y="472" type="line"/>
      <point x="69" y="476" type="line"/>
      <point x="36" y="425"/>
      <point x="37" y="395"/>
      <point x="70" y="359" type="curve"/>
      <point x="347" y="409" type="line"/>
      <point x="559" y="418" type="line"/>
      <point x="587" y="472"/>
      <point x="587" y="505"/>
      <point x="559" y="531" type="curve"/>
    </contour>
    <contour>
      <point x="868" y="726" type="line"/>
      <point x="800" y="855"/>
      <point x="720" y="889"/>
      <point x="519" y="925" type="curve"/>
      <point x="372" y="884"/>
      <point x="266" y="822"/>
      <point x="185" y="705" type="curve"/>
      <point x="221" y="472" type="line"/>
      <point x="191" y="350"/>
      <point x="130" y="179"/>
      <point x="75" y="57" type="curve"/>
      <point x="105" y="3"/>
      <point x="272" y="-22"/>
      <point x="340" y="31" type="curve"/>
      <point x="368" y="220"/>
      <point x="388" y="578"/>
      <point x="381" y="707" type="curve"/>
      <point x="444" y="780"/>
      <point x="539" y="827"/>
      <point x="640" y="771" type="curve"/>
      <point x="662" y="538" type="line"/>
      <point x="637" y="370"/>
      <point x="593" y="199"/>
      <point x="530" y="56" type="curve"/>
      <point x="555" y="3"/>
      <point x="739" y="-22"/>
      <point x="800" y="34" type="curve"/>
      <point x="814" y="206"/>
      <point x="823" y="421"/>
      <point x="833" y="593" type="curve"/>
    </contour>
  </outline>
</glyph>
<glyph name="danda" format="1">
  <advance width="492"/>
  <outline>
    <contour>
      <point x="277" y="508" type="line"/>
      <point x="248" y="344"/>
      <point x="220" y="225"/>
      <point x="173" y="38" type="curve"/>
      <point x="217" y="1"/>
      <point x="318" y="-18"/>
      <point x="378" y="26" type="curve"/>
      <point x="385" y="196"/>
      <point x="397" y="331"/>
      <point x="408" y="441" type="curve"/>
      <point x="481" y="728" type="line"/>
      <point x="441" y="768"/>
      <point x="374" y="767"/>
      <point x="278" y="720" type="curve"/>
    </contour>
  </outline>
</glyph>
<glyph name="doubledanda" format="1">
  <advance width="800"/>
  <outline>
    <contour>
      <point x="585" y="508" type="line"/>
      <point x="556" y="344"/>
      <point x="528" y="225"/>
      <point x="481" y="38" type="curve"/>
      <point x="525" y="1"/>
      <point x="626" y="-18"/>
      <point x="686" y="26" type="curve"/>
      <point x="693" y="196"/>
      <point x="705" y="331"/>
      <point x="716" y="441" type="curve"/>
      <point x="789" y="728" type="line"/>
      <point x="749" y="768"/>
      <point x="682" y="767"/>
      <point x="586" y="720" type="curve"/>
    </contour>
    <contour>
      <point x="277" y="508" type="line"/>
      <point x="248" y="344"/>
      <point x="220" y="225"/>
      <point x="173" y="38" type="curve"/>
      <point x="217" y="1"/>
      <point x="318" y="-18"/>
      <point x="378" y="26" type="curve"/>
      <point x="385" y="196"/>
      <point x="397" y="331"/>
      <point x="408" y="441" type="curve"/>
      <point x="481" y="728" type="line"/>
      <point x="441" y="768"/>
      <point x="374" y="767"/>
      <point x="278" y="720" type="curve"/>
    </contour>
  </outline>
</glyph>
<glyph name="dvAA" format="1">
  <advance width="1392"/>
  <outline>
    <contour>
      <point x="1015" y="597" type="line"/>
      <point x="985" y="651"/>
      <point x="927" y="673"/>
      <point x="779" y="658" type="curve"/>
      <point x="726" y="414" type="line"/>
      <point x="742" y="364" type="line"/>
      <point x="706" y="322" type="line"/>
      <point x="650" y="64" type="line"/>
      <point x="740" y="-5"/>
      <point x="874" y="-17"/>
      <point x="913" y="25" type="curve"/>
      <point x="917" y="419" type="line"/>
    </contour>
    <contour>
      <point x="1140" y="565" type="line"/>
      <point x="1157" y="577"/>
      <point x="1165" y="595"/>
      <point x="1169" y="612" type="curve"/>
      <point x="1157" y="627" type="line"/>
      <point x="682" y="627" type="line"/>
      <point x="665" y="615"/>
      <point x="653" y="597"/>
      <point x="645" y="584" type="curve"/>
      <point x="665" y="565" type="line"/>
    </contour>
    <contour>
      <point x="174" y="648" type="curve"/>
      <point x="131" y="598"/>
      <point x="172" y="528"/>
      <point x="264" y="498" type="curve"/>
      <point x="320" y="534"/>
      <point x="361" y="550"/>
      <point x="426" y="555" type="curve"/>
      <point x="432" y="545" type="line"/>
      <point x="405" y="509"/>
      <point x="364" y="469"/>
      <point x="287" y="442" type="curve"/>
      <point x="255" y="443"/>
      <point x="223" y="445"/>
      <point x="191" y="446" type="curve"/>
      <point x="150" y="418"/>
      <point x="150" y="327"/>
      <point x="225" y="275" type="curve"/>
      <point x="255" y="283"/>
      <point x="285" y="291"/>
      <point x="315" y="299" type="curve"/>
      <point x="343" y="292"/>
      <point x="372" y="285"/>
      <point x="400" y="278" type="curve"/>
      <point x="413" y="257"/>
      <point x="426" y="237"/>
      <point x="439" y="216" type="curve"/>
      <point x="399" y="160"/>
      <point x="321" y="123"/>
      <point x="256" y="106" type="curve"/>
      <point x="237" y="112"/>
      <point x="209" y="133"/>
      <point x="204" y="148" type="curve"/>
      <point x="292" y="184"/>
      <point x="381" y="221"/>
      <point x="469" y="257" type="curve"/>
      <point x="573" y="300"/>
      <point x="678" y="344"/>
      <point x="782" y="387" type="curve"/>
      <point x="737" y="461" type="line"/>
      <point x="640" y="413"/>
      <point x="542" y="365"/>
      <point x="445" y="317" type="curve"/>
      <point x="186" y="219"/>
      <point x="-18" y="219"/>
      <point x="-18" y="136" type="curve" smooth="yes"/>
      <point x="-18" y="86"/>
      <point x="87" y="15"/>
      <point x="207" y="4" type="curve"/>
      <point x="364" y="1"/>
      <point x="619" y="103"/>
      <point x="619" y="230" type="curve" smooth="yes"/>
      <point x="619" y="318"/>
      <point x="503" y="379"/>
      <point x="333" y="374" type="curve"/>
      <point x="330" y="384" type="line"/>
      <point x="439" y="397"/>
      <point x="571" y="445"/>
      <point x="610" y="556" type="curve"/>
      <point x="582" y="619"/>
      <point x="540" y="669"/>
      <point x="466" y="693" type="curve"/>
      <point x="352" y="704"/>
      <point x="272" y="692"/>
    </contour>
    <contour>
      <point x="1395" y="614" type="line"/>
      <point x="1365" y="668"/>
      <point x="1307" y="673"/>
      <point x="1159" y="658" type="curve"/>
      <point x="1030" y="64" type="line"/>
      <point x="1120" y="-5"/>
      <point x="1254" y="-17"/>
      <point x="1293" y="25" type="curve"/>
      <point x="1297" y="419" type="line"/>
    </contour>
    <contour>
      <point x="1520" y="565" type="line"/>
      <point x="1537" y="577"/>
      <point x="1545" y="595"/>
      <point x="1549" y="612" type="curve"/>
      <point x="1537" y="627" type="line"/>
      <point x="1014" y="627" type="line"/>
      <point x="997" y="615"/>
      <point x="985" y="597"/>
      <point x="977" y="584" type="curve"/>
      <point x="997" y="565" type="line"/>
    </contour>
  </outline>
</glyph>
<glyph name="dvAI" format="1">
  <advance width="699"/>
  <outline>
    <contour>
      <point x="827" y="565" type="line"/>
      <point x="844" y="577"/>
      <point x="852" y="595"/>
      <point x="856" y="612" type="curve"/>
      <point x="844" y="627" type="line"/>
      <point x="2" y="627" type="line"/>
      <point x="-15" y="615"/>
      <point x="-27" y="597"/>
      <point x="-35" y="584" type="curve"/>
      <point x="-15" y="565" type="line"/>
    </contour>
    <contour>
      <point x="240" y="185" type="line"/>
      <point x="296" y="299"/>
      <point x="338" y="442"/>
      <point x="342" y="605" type="curve"/>
      <point x="127" y="580" type="line"/>
      <point x="147" y="426" type="line"/>
      <point x="125" y="340"/>
      <point x="85" y="262"/>
      <point x="44" y="187" type="curve"/>
      <point x="39" y="105"/>
      <point x="119" y="47"/>
      <point x="240" y="33" type="curve"/>
      <point x="372" y="118" type="line"/>
      <point x="390" y="109" type="line"/>
      <point x="388" y="40" type="line"/>
      <point x="363" y="-23"/>
      <point x="327" y="-73"/>
      <point x="268" y="-136" type="curve"/>
      <point x="269" y="-208"/>
      <point x="336" y="-249"/>
      <point x="442" y="-248" type="curve"/>
      <point x="515" y="-118"/>
      <point x="563" y="10"/>
      <point x="568" y="162" type="curve"/>
      <point x="530" y="221"/>
      <point x="451" y="263"/>
      <point x="369" y="246" type="curve"/>
      <point x="254" y="176" type="line"/>
    </contour>
    <contour>
      <point x="614" y="262" type="curve"/>
      <point x="691" y="374"/>
      <point x="715" y="491"/>
      <point x="698" y="617" type="curve"/>
      <point x="496" y="592" type="line"/>
      <point x="519" y="481" type="line"/>
      <point x="515" y="428"/>
      <point x="500" y="390"/>
      <point x="468" y="342" type="curve"/>
      <point x="485" y="303"/>
      <point x="535" y="270"/>
    </contour>
    <contour>
      <point x="460" y="804" type="line"/>
      <point x="526" y="759"/>
      <point x="564" y="708"/>
      <point x="590" y="663" type="curve"/>
      <point x="617" y="662"/>
      <point x="639" y="671"/>
      <point x="654" y="688" type="curve"/>
      <point x="609" y="819"/>
      <point x="491" y="989"/>
      <point x="405" y="989" type="curve" smooth="yes"/>
      <point x="340" y="989"/>
      <point x="266" y="948"/>
      <point x="214" y="909" type="curve"/>
      <point x="194" y="849"/>
      <point x="243" y="783"/>
      <point x="353" y="735" type="curve"/>
    </contour>
    <contour>
      <point x="640" y="8" type="move" name="blwm"/>
    </contour>
    <contour>
      <point x="508" y="628" type="move" name="abvm"/>
    </contour>
  </outline>
</glyph>
<glyph name="dvAbbreviationsign" format="1">
  <advance width="462"/>
  <outline>
    <contour>
      <point x="422" y="348"/>
      <point x="337" y="416"/>
      <point x="267" y="416" type="curve" smooth="yes"/>
      <point x="134" y="416"/>
      <point x="47" y="330"/>
      <point x="48" y="254" type="curve" smooth="yes"/>
      <point x="50" y="210"/>
      <point x="128" y="150"/>
      <point x="202" y="150" type="curve"/>
      <point x="316" y="150"/>
      <point x="426" y="226"/>
      <point x="423" y="295" type="curve" smooth="yes"/>
    </contour>
    <contour>
      <point x="193" y="296"/>
      <point x="222" y="340"/>
      <point x="252" y="368" type="curve"/>
      <point x="267" y="340"/>
      <point x="280" y="319"/>
      <point x="283" y="280" type="curve"/>
      <point x="274" y="249"/>
      <point x="254" y="226"/>
      <point x="216" y="203" type="curve"/>
      <point x="208" y="217"/>
      <point x="194" y="242"/>
      <point x="194" y="260" type="curve"/>
    </contour>
  </outline>
</glyph>
<glyph name="dvAvagraha" format="1">
  <advance width="589"/>
  <outline>
    <contour>
      <point x="264" y="481"/>
      <point x="269" y="489"/>
      <point x="283" y="500" type="curve"/>
      <point x="348" y="513"/>
      <point x="552" y="526"/>
      <point x="670" y="519" type="curve"/>
      <point x="710" y="569"/>
      <point x="703" y="607"/>
      <point x="661" y="627" type="curve"/>
      <point x="525" y="636"/>
      <point x="254" y="607"/>
      <point x="153" y="568" type="curve"/>
      <point x="83" y="523"/>
      <point x="52" y="446"/>
      <point x="51" y="415" type="curve" smooth="yes"/>
      <point x="48" y="331"/>
      <point x="338" y="269"/>
      <point x="336" y="215" type="curve" smooth="yes"/>
      <point x="335" y="170"/>
      <point x="297" y="129"/>
      <point x="237" y="105" type="curve"/>
      <point x="176" y="121"/>
      <point x="117" y="153"/>
      <point x="66" y="199" type="curve"/>
      <point x="15" y="197"/>
      <point x="4" y="176"/>
      <point x="-1" y="124" type="curve"/>
      <point x="34" y="84"/>
      <point x="164" y="0"/>
      <point x="232" y="0" type="curve" smooth="yes"/>
      <point x="346" y="0"/>
      <point x="532" y="127"/>
      <point x="536" y="248" type="curve" smooth="yes"/>
      <point x="540" y="356"/>
      <point x="327" y="410"/>
      <point x="256" y="465" type="curve"/>
    </contour>
  </outline>
</glyph>
<glyph name="dvBA" format="1">
  <advance width="757"/>
  <outline>
    <contour>
      <point x="293" y="190" type="curve"/>
      <point x="267" y="206"/>
      <point x="252" y="231"/>
      <point x="252" y="268" type="curve" smooth="yes"/>
      <point x="252" y="329"/>
      <point x="317" y="395"/>
      <point x="375" y="422" type="curve"/>
      <point x="406" y="401"/>
      <point x="442" y="366"/>
      <point x="467" y="337" type="curve"/>
      <point x="464" y="321" type="line"/>
      <point x="425" y="286"/>
      <point x="356" y="235"/>
    </contour>
    <contour>
      <point x="885" y="565" type="line"/>
      <point x="902" y="577"/>
      <point x="910" y="595"/>
      <point x="914" y="612" type="curve"/>
      <point x="902" y="627" type="line"/>
      <point x="3" y="627" type="line"/>
      <point x="-14" y="615"/>
      <point x="-26" y="597"/>
      <point x="-34" y="584" type="curve"/>
      <point x="-14" y="565" type="line"/>
    </contour>
    <contour>
      <point x="485" y="424" type="line"/>
      <point x="449" y="460"/>
      <point x="411" y="504"/>
      <point x="355" y="530" type="curve"/>
      <point x="199" y="530"/>
      <point x="34" y="396"/>
      <point x="34" y="259" type="curve" smooth="yes"/>
      <point x="34" y="140"/>
      <point x="147" y="75"/>
      <point x="291" y="75" type="curve"/>
      <point x="358" y="140"/>
      <point x="424" y="201"/>
      <point x="462" y="239" type="curve"/>
      <point x="472" y="226" type="line"/>
      <point x="415" y="150" type="line"/>
      <point x="394" y="64" type="line"/>
      <point x="484" y="-5"/>
      <point x="618" y="-17"/>
      <point x="657" y="25" type="curve"/>
      <point x="662" y="419" type="line"/>
      <point x="759" y="597" type="line"/>
      <point x="729" y="651"/>
      <point x="671" y="673"/>
      <point x="523" y="658" type="curve"/>
      <point x="492" y="428" type="line"/>
    </contour>
    <contour>
      <point x="419" y="227" type="curve"/>
      <point x="456" y="265" type="line"/>
      <point x="393" y="312"/>
      <point x="336" y="369"/>
      <point x="299" y="410" type="curve"/>
      <point x="271" y="347" type="line"/>
      <point x="301" y="311"/>
      <point x="384" y="247"/>
    </contour>
  </outline>
</glyph>
<glyph name="dvBH" format="1">
  <advance width="530"/>
  <outline>
    <contour>
      <point x="817" y="565" type="line"/>
      <point x="834" y="577"/>
      <point x="842" y="595"/>
      <point x="846" y="612" type="curve"/>
      <point x="834" y="627" type="line"/>
      <point x="626" y="627" type="line"/>
      <point x="609" y="615"/>
      <point x="597" y="597"/>
      <point x="589" y="584" type="curve"/>
      <point x="609" y="565" type="line"/>
    </contour>
    <contour>
      <point x="358" y="605" type="line"/>
      <point x="358" y="571"/>
      <point x="354" y="522"/>
      <point x="347" y="476" type="curve"/>
      <point x="367" y="442" type="line"/>
      <point x="335" y="409" type="line"/>
      <point x="319" y="328"/>
      <point x="301" y="271"/>
      <point x="273" y="190" type="curve"/>
      <point x="261" y="184" type="line"/>
      <point x="228" y="201"/>
      <point x="198" y="222"/>
      <point x="178" y="265" type="curve"/>
      <point x="162" y="233" type="line"/>
      <point x="337" y="296"/>
      <point x="499" y="367"/>
      <point x="670" y="448" type="curve"/>
      <point x="646" y="514" type="line"/>
      <point x="505" y="446"/>
      <point x="266" y="343"/>
      <point x="106" y="306" type="curve"/>
      <point x="64" y="292"/>
      <point x="49" y="236"/>
      <point x="48" y="202" type="curve"/>
      <point x="77" y="150"/>
      <point x="142" y="91"/>
      <point x="207" y="72" type="curve"/>
      <point x="268" y="61"/>
      <point x="369" y="82"/>
      <point x="421" y="131" type="curve"/>
      <point x="489" y="273"/>
      <point x="545" y="557"/>
      <point x="532" y="684" type="curve"/>
      <point x="503" y="736"/>
      <point x="455" y="761"/>
      <point x="371" y="761" type="curve"/>
      <point x="317" y="709"/>
      <point x="193" y="646"/>
      <point x="117" y="617" type="curve"/>
      <point x="89" y="600"/>
      <point x="78" y="560"/>
      <point x="73" y="523" type="curve"/>
      <point x="100" y="471"/>
      <point x="149" y="426"/>
      <point x="230" y="395" type="curve"/>
      <point x="393" y="463" type="line"/>
      <point x="369" y="509" type="line"/>
      <point x="256" y="482" type="line"/>
      <point x="241" y="487"/>
      <point x="219" y="519"/>
      <point x="213" y="534" type="curve"/>
      <point x="258" y="558"/>
      <point x="311" y="591"/>
      <point x="344" y="611" type="curve"/>
    </contour>
  </outline>
</glyph>
<glyph name="dvBH_R" format="1">
  <advance width="530"/>
  <outline>
    <contour>
      <point x="335" y="409" type="line"/>
      <point x="323" y="334"/>
      <point x="316" y="301"/>
      <point x="284" y="220" type="curve"/>
      <point x="272" y="214" type="line"/>
      <point x="233" y="231"/>
      <point x="216" y="248"/>
      <point x="200" y="278" type="curve"/>
      <point x="175" y="255" type="line"/>
      <point x="342" y="305"/>
      <point x="508" y="367"/>
      <point x="670" y="448" type="curve"/>
      <point x="646" y="514" type="line"/>
      <point x="514" y="446"/>
      <point x="273" y="360"/>
      <point x="129" y="332" type="curve"/>
      <point x="83" y="307"/>
      <point x="74" y="264"/>
      <point x="75" y="204" type="curve"/>
      <point x="104" y="154"/>
      <point x="155" y="121"/>
      <point x="226" y="102" type="curve"/>
      <point x="292" y="93"/>
      <point x="392" y="113"/>
      <point x="434" y="161" type="curve"/>
      <point x="487" y="280"/>
      <point x="543" y="543"/>
      <point x="532" y="684" type="curve"/>
      <point x="503" y="736"/>
      <point x="455" y="761"/>
      <point x="371" y="761" type="curve"/>
      <point x="317" y="709"/>
      <point x="193" y="646"/>
      <point x="117" y="617" type="curve"/>
      <point x="89" y="600"/>
      <point x="78" y="560"/>
      <point x="73" y="523" type="curve"/>
      <point x="100" y="471"/>
      <point x="149" y="426"/>
      <point x="230" y="395" type="curve"/>
      <point x="393" y="463" type="line"/>
      <point x="369" y="509" type="line"/>
      <point x="256" y="482" type="line"/>
      <point x="241" y="487"/>
      <point x="219" y="519"/>
      <point x="213" y="534" type="curve"/>
      <point x="258" y="558"/>
      <point x="311" y="591"/>
      <point x="344" y="611" type="curve"/>
      <point x="358" y="605" type="line"/>
      <point x="358" y="571"/>
      <point x="354" y="522"/>
      <point x="347" y="476" type="curve"/>
      <point x="367" y="442" type="line"/>
    </contour>
    <contour>
      <point x="600" y="258" type="line"/>
      <point x="538" y="194"/>
      <point x="385" y="72"/>
      <point x="221" y="28" type="curve"/>
      <point x="198" y="-28"/>
      <point x="230" y="-77"/>
      <point x="307" y="-100" type="curve"/>
      <point x="441" y="-18"/>
      <point x="592" y="121"/>
      <point x="645" y="195" type="curve"/>
    </contour>
  </outline>
</glyph>
<glyph name="dvBH_R_YA" format="1">
  <advance width="1378"/>
  <outline>
    <contour>
      <point x="335" y="409" type="line"/>
      <point x="323" y="334"/>
      <point x="316" y="301"/>
      <point x="284" y="220" type="curve"/>
      <point x="272" y="214" type="line"/>
      <point x="233" y="231"/>
      <point x="216" y="248"/>
      <point x="200" y="278" type="curve"/>
      <point x="175" y="255" type="line"/>
      <point x="331" y="313"/>
      <point x="470" y="322"/>
      <point x="670" y="277" type="curve"/>
      <point x="704" y="327" type="line"/>
      <point x="475" y="409"/>
      <point x="256" y="370"/>
      <point x="129" y="332" type="curve"/>
      <point x="83" y="307"/>
      <point x="74" y="264"/>
      <point x="75" y="204" type="curve"/>
      <point x="104" y="154"/>
      <point x="155" y="121"/>
      <point x="226" y="102" type="curve"/>
      <point x="292" y="93"/>
      <point x="392" y="113"/>
      <point x="434" y="161" type="curve"/>
      <point x="487" y="280"/>
      <point x="543" y="543"/>
      <point x="532" y="684" type="curve"/>
      <point x="503" y="736"/>
      <point x="455" y="761"/>
      <point x="371" y="761" type="curve"/>
      <point x="317" y="709"/>
      <point x="193" y="646"/>
      <point x="117" y="617" type="curve"/>
      <point x="89" y="600"/>
      <point x="78" y="560"/>
      <point x="73" y="523" type="curve"/>
      <point x="100" y="471"/>
      <point x="149" y="426"/>
      <point x="230" y="395" type="curve"/>
      <point x="393" y="463" type="line"/>
      <point x="369" y="509" type="line"/>
      <point x="256" y="482" type="line"/>
      <point x="241" y="487"/>
      <point x="219" y="519"/>
      <point x="213" y="534" type="curve"/>
      <point x="258" y="558"/>
      <point x="311" y="591"/>
      <point x="344" y="611" type="curve"/>
      <point x="358" y="605" type="line"/>
      <point x="358" y="571"/>
      <point x="354" y="522"/>
      <point x="347" y="476" type="curve"/>
      <point x="367" y="442" type="line"/>
    </contour>
    <contour>
      <point x="600" y="258" type="line"/>
      <point x="538" y="194"/>
      <point x="385" y="72"/>
      <point x="221" y="28" type="curve"/>
      <point x="198" y="-28"/>
      <point x="230" y="-77"/>
      <point x="307" y="-100" type="curve"/>
      <point x="441" y="-18"/>
      <point x="592" y="121"/>
      <point x="645" y="195" type="curve"/>
    </contour>
    <contour>
      <point x="1381" y="597" type="line"/>
      <point x="1351" y="651"/>
      <point x="1293" y="673"/>
      <point x="1145" y="658" type="curve"/>
      <point x="1059" y="262" type="line"/>
      <point x="1087" y="231" type="line"/>
      <point x="1040" y="171" type="line"/>
      <point x="1016" y="64" type="line"/>
      <point x="1106" y="-5"/>
      <point x="1240" y="-17"/>
      <point x="1279" y="25" type="curve"/>
      <point x="1283" y="419" type="line"/>
    </contour>
    <contour>
      <point x="1506" y="565" type="line"/>
      <point x="1523" y="577"/>
      <point x="1531" y="595"/>
      <point x="1535" y="612" type="curve"/>
      <point x="1523" y="627" type="line"/>
      <point x="547" y="627" type="line"/>
      <point x="529" y="615"/>
      <point x="516" y="597"/>
      <point x="508" y="584" type="curve"/>
      <point x="529" y="565" type="line"/>
    </contour>
    <contour>
      <point x="635" y="578" type="curve"/>
      <point x="603" y="524"/>
      <point x="650" y="464"/>
      <point x="746" y="440" type="curve"/>
      <point x="765" y="450"/>
      <point x="787" y="459"/>
      <point x="809" y="465" type="curve" smooth="yes"/>
      <point x="830" y="470"/>
      <point x="852" y="471"/>
      <point x="873" y="466" type="curve"/>
      <point x="853" y="344"/>
      <point x="581" y="317"/>
      <point x="581" y="250" type="curve" smooth="yes"/>
      <point x="581" y="170"/>
      <point x="721" y="81"/>
      <point x="801" y="81" type="curve" smooth="yes"/>
      <point x="867" y="81"/>
      <point x="1076" y="220"/>
      <point x="1136" y="318" type="curve"/>
      <point x="1082" y="365" type="line"/>
      <point x="1022" y="298"/>
      <point x="973" y="267"/>
      <point x="892" y="225" type="curve"/>
      <point x="868" y="227"/>
      <point x="827" y="250"/>
      <point x="836" y="284" type="curve"/>
      <point x="932" y="338"/>
      <point x="1043" y="425"/>
      <point x="1043" y="500" type="curve" smooth="yes"/>
      <point x="1043" y="551"/>
      <point x="959" y="627"/>
      <point x="840" y="627" type="curve" smooth="yes"/>
      <point x="782" y="627"/>
      <point x="691" y="615"/>
    </contour>
  </outline>
</glyph>
<glyph name="dvBH_VA" format="1">
  <advance width="1334"/>
  <outline>
    <contour>
      <point x="282" y="179" type="curve"/>
      <point x="270" y="173" type="line"/>
      <point x="226" y="198"/>
      <point x="200" y="214"/>
      <point x="181" y="258" type="curve"/>
      <point x="165" y="235" type="line"/>
      <point x="315" y="332"/>
      <point x="519" y="305"/>
      <point x="671" y="278" type="curve"/>
      <point x="704" y="328" type="line"/>
      <point x="551" y="378"/>
      <point x="327" y="410"/>
      <point x="114" y="320" type="curve"/>
      <point x="72" y="305"/>
      <point x="54" y="253"/>
      <point x="57" y="193" type="curve"/>
      <point x="98" y="125"/>
      <point x="152" y="88"/>
      <point x="235" y="65" type="curve"/>
      <point x="301" y="62"/>
      <point x="396" y="92"/>
      <point x="424" y="138" type="curve"/>
      <point x="480" y="256"/>
      <point x="555" y="579"/>
      <point x="532" y="684" type="curve"/>
      <point x="503" y="736"/>
      <point x="455" y="761"/>
      <point x="371" y="761" type="curve"/>
      <point x="317" y="709"/>
      <point x="193" y="646"/>
      <point x="117" y="617" type="curve"/>
      <point x="89" y="600"/>
      <point x="78" y="560"/>
      <point x="73" y="523" type="curve"/>
      <point x="100" y="471"/>
      <point x="149" y="426"/>
      <point x="230" y="395" type="curve"/>
      <point x="393" y="463" type="line"/>
      <point x="369" y="509" type="line"/>
      <point x="256" y="482" type="line"/>
      <point x="241" y="487"/>
      <point x="219" y="519"/>
      <point x="213" y="534" type="curve"/>
      <point x="258" y="558"/>
      <point x="311" y="591"/>
      <point x="344" y="611" type="curve"/>
      <point x="358" y="605" type="line"/>
      <point x="358" y="571"/>
      <point x="354" y="522"/>
      <point x="347" y="476" type="curve"/>
      <point x="367" y="442" type="line"/>
      <point x="335" y="409" type="line"/>
      <point x="333" y="355"/>
      <point x="301" y="214"/>
    </contour>
    <contour>
      <point x="1462" y="565" type="line"/>
      <point x="1479" y="577"/>
      <point x="1487" y="595"/>
      <point x="1491" y="612" type="curve"/>
      <point x="1479" y="627" type="line"/>
      <point x="603" y="627" type="line"/>
      <point x="586" y="615"/>
      <point x="574" y="597"/>
      <point x="566" y="584" type="curve"/>
      <point x="586" y="565" type="line"/>
    </contour>
    <contour>
      <point x="1040" y="322" type="line"/>
      <point x="991" y="282"/>
      <point x="931" y="235"/>
      <point x="886" y="201" type="curve"/>
      <point x="863" y="213"/>
      <point x="851" y="235"/>
      <point x="851" y="268" type="curve" smooth="yes"/>
      <point x="851" y="316"/>
      <point x="893" y="378"/>
      <point x="965" y="412" type="curve"/>
      <point x="990" y="393"/>
      <point x="1020" y="362"/>
      <point x="1044" y="336" type="curve"/>
      <point x="1099" y="379" type="line"/>
      <point x="1059" y="431"/>
      <point x="971" y="527"/>
      <point x="949" y="525" type="curve"/>
      <point x="792" y="525"/>
      <point x="631" y="386"/>
      <point x="631" y="253" type="curve" smooth="yes"/>
      <point x="631" y="151"/>
      <point x="736" y="87"/>
      <point x="877" y="87" type="curve"/>
      <point x="934" y="140"/>
      <point x="1031" y="228"/>
      <point x="1080" y="275" type="curve"/>
    </contour>
    <contour>
      <point x="1337" y="597" type="line"/>
      <point x="1307" y="651"/>
      <point x="1249" y="673"/>
      <point x="1101" y="658" type="curve"/>
      <point x="1069" y="428" type="line"/>
      <point x="1047" y="410" type="line"/>
      <point x="1048" y="353" type="line"/>
      <point x="1022" y="245" type="line"/>
      <point x="1041" y="216" type="line"/>
      <point x="992" y="150" type="line"/>
      <point x="972" y="64" type="line"/>
      <point x="1062" y="-5"/>
      <point x="1196" y="-17"/>
      <point x="1235" y="25" type="curve"/>
      <point x="1239" y="419" type="line"/>
    </contour>
  </outline>
</glyph>
<glyph name="dvBH_YA" format="1">
  <advance width="1378"/>
  <outline>
    <contour>
      <point x="282" y="179" type="curve"/>
      <point x="270" y="173" type="line"/>
      <point x="226" y="198"/>
      <point x="200" y="214"/>
      <point x="181" y="258" type="curve"/>
      <point x="165" y="235" type="line"/>
      <point x="315" y="332"/>
      <point x="519" y="305"/>
      <point x="671" y="278" type="curve"/>
      <point x="704" y="328" type="line"/>
      <point x="551" y="378"/>
      <point x="327" y="410"/>
      <point x="114" y="320" type="curve"/>
      <point x="72" y="305"/>
      <point x="54" y="253"/>
      <point x="57" y="193" type="curve"/>
      <point x="98" y="125"/>
      <point x="152" y="88"/>
      <point x="235" y="65" type="curve"/>
      <point x="301" y="62"/>
      <point x="396" y="92"/>
      <point x="424" y="138" type="curve"/>
      <point x="480" y="256"/>
      <point x="555" y="579"/>
      <point x="532" y="684" type="curve"/>
      <point x="503" y="736"/>
      <point x="455" y="761"/>
      <point x="371" y="761" type="curve"/>
      <point x="317" y="709"/>
      <point x="193" y="646"/>
      <point x="117" y="617" type="curve"/>
      <point x="89" y="600"/>
      <point x="78" y="560"/>
      <point x="73" y="523" type="curve"/>
      <point x="100" y="471"/>
      <point x="149" y="426"/>
      <point x="230" y="395" type="curve"/>
      <point x="393" y="463" type="line"/>
      <point x="369" y="509" type="line"/>
      <point x="256" y="482" type="line"/>
      <point x="241" y="487"/>
      <point x="219" y="519"/>
      <point x="213" y="534" type="curve"/>
      <point x="258" y="558"/>
      <point x="311" y="591"/>
      <point x="344" y="611" type="curve"/>
      <point x="358" y="605" type="line"/>
      <point x="358" y="571"/>
      <point x="354" y="522"/>
      <point x="347" y="476" type="curve"/>
      <point x="367" y="442" type="line"/>
      <point x="335" y="409" type="line"/>
      <point x="333" y="355"/>
      <point x="301" y="214"/>
    </contour>
    <contour>
      <point x="1381" y="597" type="line"/>
      <point x="1351" y="651"/>
      <point x="1293" y="673"/>
      <point x="1145" y="658" type="curve"/>
      <point x="1059" y="262" type="line"/>
      <point x="1087" y="231" type="line"/>
      <point x="1040" y="171" type="line"/>
      <point x="1016" y="64" type="line"/>
      <point x="1106" y="-5"/>
      <point x="1240" y="-17"/>
      <point x="1279" y="25" type="curve"/>
      <point x="1283" y="419" type="line"/>
    </contour>
    <contour>
      <point x="1506" y="565" type="line"/>
      <point x="1523" y="577"/>
      <point x="1531" y="595"/>
      <point x="1535" y="612" type="curve"/>
      <point x="1523" y="627" type="line"/>
      <point x="607" y="627" type="line"/>
      <point x="589" y="615"/>
      <point x="576" y="597"/>
      <point x="568" y="584" type="curve"/>
      <point x="589" y="565" type="line"/>
    </contour>
    <contour>
      <point x="635" y="578" type="curve"/>
      <point x="603" y="524"/>
      <point x="650" y="464"/>
      <point x="746" y="440" type="curve"/>
      <point x="765" y="450"/>
      <point x="787" y="459"/>
      <point x="809" y="465" type="curve" smooth="yes"/>
      <point x="830" y="470"/>
      <point x="852" y="471"/>
      <point x="873" y="466" type="curve"/>
      <point x="853" y="344"/>
      <point x="581" y="317"/>
      <point x="581" y="250" type="curve" smooth="yes"/>
      <point x="581" y="170"/>
      <point x="721" y="81"/>
      <point x="801" y="81" type="curve" smooth="yes"/>
      <point x="867" y="81"/>
      <point x="1076" y="220"/>
      <point x="1136" y="318" type="curve"/>
      <point x="1082" y="365" type="line"/>
      <point x="1022" y="298"/>
      <point x="973" y="267"/>
      <point x="892" y="225" type="curve"/>
      <point x="868" y="227"/>
      <point x="827" y="250"/>
      <point x="836" y="284" type="curve"/>
      <point x="932" y="338"/>
      <point x="1043" y="425"/>
      <point x="1043" y="500" type="curve" smooth="yes"/>
      <point x="1043" y="551"/>
      <point x="959" y="627"/>
      <point x="840" y="627" type="curve" smooth="yes"/>
      <point x="782" y="627"/>
      <point x="691" y="615"/>
    </contour>
  </outline>
</glyph>
<glyph name="dvB_BHA" format="1">
  <advance width="1237"/>
  <outline>
    <contour>
      <point x="370" y="241" type="curve"/>
      <point x="407" y="279" type="line"/>
      <point x="344" y="326"/>
      <point x="287" y="383"/>
      <point x="250" y="424" type="curve"/>
      <point x="222" y="361" type="line"/>
      <point x="252" y="325"/>
      <point x="335" y="261"/>
    </contour>
    <contour>
      <point x="415" y="301" type="curve"/>
      <point x="382" y="279"/>
      <point x="320" y="239"/>
      <point x="268" y="207" type="curve"/>
      <point x="245" y="219"/>
      <point x="233" y="241"/>
      <point x="233" y="274" type="curve" smooth="yes"/>
      <point x="233" y="322"/>
      <point x="275" y="384"/>
      <point x="347" y="418" type="curve"/>
      <point x="372" y="399"/>
      <point x="401" y="343"/>
    </contour>
    <contour>
      <point x="485" y="290" type="curve"/>
      <point x="464" y="378"/>
      <point x="404" y="494"/>
      <point x="331" y="531" type="curve"/>
      <point x="174" y="531"/>
      <point x="13" y="392"/>
      <point x="13" y="259" type="curve" smooth="yes"/>
      <point x="13" y="157"/>
      <point x="118" y="93"/>
      <point x="259" y="93" type="curve"/>
      <point x="329" y="154"/>
      <point x="436" y="243"/>
    </contour>
    <contour>
      <point x="510" y="565" type="line"/>
      <point x="527" y="577"/>
      <point x="535" y="595"/>
      <point x="539" y="612" type="curve"/>
      <point x="527" y="627" type="line"/>
      <point x="3" y="627" type="line"/>
      <point x="-14" y="615"/>
      <point x="-26" y="597"/>
      <point x="-34" y="584" type="curve"/>
      <point x="-14" y="565" type="line"/>
    </contour>
    <contour>
      <point x="1204" y="453" type="line"/>
      <point x="1174" y="507"/>
      <point x="1116" y="529"/>
      <point x="968" y="514" type="curve"/>
      <point x="934" y="421" type="line"/>
      <point x="945" y="414" type="line"/>
      <point x="866" y="64" type="line"/>
      <point x="956" y="-5"/>
      <point x="1090" y="-17"/>
      <point x="1129" y="25" type="curve"/>
      <point x="1117" y="337" type="line"/>
    </contour>
    <contour>
      <point x="1362" y="565" type="line"/>
      <point x="1379" y="577"/>
      <point x="1387" y="595"/>
      <point x="1391" y="612" type="curve"/>
      <point x="1379" y="627" type="line"/>
      <point x="948" y="627" type="line"/>
      <point x="931" y="615"/>
      <point x="919" y="597"/>
      <point x="911" y="584" type="curve"/>
      <point x="931" y="565" type="line"/>
    </contour>
    <contour>
      <point x="680" y="605" type="line"/>
      <point x="680" y="571"/>
      <point x="676" y="522"/>
      <point x="669" y="476" type="curve"/>
      <point x="689" y="442" type="line"/>
      <point x="657" y="409" type="line"/>
      <point x="641" y="328"/>
      <point x="623" y="271"/>
      <point x="595" y="190" type="curve"/>
      <point x="583" y="184" type="line"/>
      <point x="550" y="201"/>
      <point x="520" y="222"/>
      <point x="500" y="265" type="curve"/>
      <point x="484" y="233" type="line"/>
      <point x="659" y="296"/>
      <point x="821" y="367"/>
      <point x="992" y="448" type="curve"/>
      <point x="968" y="514" type="line"/>
      <point x="827" y="446"/>
      <point x="588" y="343"/>
      <point x="428" y="306" type="curve"/>
      <point x="386" y="292"/>
      <point x="371" y="236"/>
      <point x="370" y="202" type="curve"/>
      <point x="399" y="150"/>
      <point x="464" y="91"/>
      <point x="529" y="72" type="curve"/>
      <point x="590" y="61"/>
      <point x="691" y="82"/>
      <point x="743" y="131" type="curve"/>
      <point x="811" y="273"/>
      <point x="867" y="557"/>
      <point x="854" y="684" type="curve"/>
      <point x="825" y="736"/>
      <point x="777" y="761"/>
      <point x="693" y="761" type="curve"/>
      <point x="639" y="709"/>
      <point x="515" y="646"/>
      <point x="439" y="617" type="curve"/>
      <point x="411" y="600"/>
      <point x="400" y="560"/>
      <point x="395" y="523" type="curve"/>
      <point x="422" y="471"/>
      <point x="471" y="426"/>
      <point x="552" y="395" type="curve"/>
      <point x="715" y="463" type="line"/>
      <point x="691" y="509" type="line"/>
      <point x="578" y="482" type="line"/>
      <point x="563" y="487"/>
      <point x="541" y="519"/>
      <point x="535" y="534" type="curve"/>
      <point x="580" y="558"/>
      <point x="633" y="591"/>
      <point x="666" y="611" type="curve"/>
    </contour>
  </outline>
</glyph>
<glyph name="dvB_BH_RA" format="1">
  <advance width="1231"/>
  <outline>
    <contour>
      <point x="370" y="241" type="curve"/>
      <point x="407" y="279" type="line"/>
      <point x="344" y="326"/>
      <point x="287" y="383"/>
      <point x="250" y="424" type="curve"/>
      <point x="222" y="361" type="line"/>
      <point x="252" y="325"/>
      <point x="335" y="261"/>
    </contour>
    <contour>
      <point x="415" y="301" type="curve"/>
      <point x="382" y="279"/>
      <point x="320" y="239"/>
      <point x="268" y="207" type="curve"/>
      <point x="245" y="219"/>
      <point x="233" y="241"/>
      <point x="233" y="274" type="curve" smooth="yes"/>
      <point x="233" y="322"/>
      <point x="275" y="384"/>
      <point x="347" y="418" type="curve"/>
      <point x="372" y="399"/>
      <point x="401" y="343"/>
    </contour>
    <contour>
      <point x="485" y="290" type="curve"/>
      <point x="464" y="378"/>
      <point x="404" y="494"/>
      <point x="331" y="531" type="curve"/>
      <point x="174" y="531"/>
      <point x="13" y="392"/>
      <point x="13" y="259" type="curve" smooth="yes"/>
      <point x="13" y="157"/>
      <point x="118" y="93"/>
      <point x="259" y="93" type="curve"/>
      <point x="329" y="154"/>
      <point x="436" y="243"/>
    </contour>
    <contour>
      <point x="510" y="565" type="line"/>
      <point x="527" y="577"/>
      <point x="535" y="595"/>
      <point x="539" y="612" type="curve"/>
      <point x="527" y="627" type="line"/>
      <point x="3" y="627" type="line"/>
      <point x="-14" y="615"/>
      <point x="-26" y="597"/>
      <point x="-34" y="584" type="curve"/>
      <point x="-14" y="565" type="line"/>
    </contour>
    <contour>
      <point x="1359" y="565" type="line"/>
      <point x="1376" y="577"/>
      <point x="1384" y="595"/>
      <point x="1388" y="612" type="curve"/>
      <point x="1376" y="627" type="line"/>
      <point x="945" y="627" type="line"/>
      <point x="928" y="615"/>
      <point x="916" y="597"/>
      <point x="908" y="584" type="curve"/>
      <point x="928" y="565" type="line"/>
    </contour>
    <contour>
      <point x="654" y="409" type="line"/>
      <point x="642" y="334"/>
      <point x="635" y="301"/>
      <point x="603" y="220" type="curve"/>
      <point x="591" y="214" type="line"/>
      <point x="552" y="231"/>
      <point x="535" y="248"/>
      <point x="519" y="278" type="curve"/>
      <point x="494" y="255" type="line"/>
      <point x="661" y="305"/>
      <point x="827" y="367"/>
      <point x="989" y="448" type="curve"/>
      <point x="965" y="514" type="line"/>
      <point x="833" y="446"/>
      <point x="592" y="360"/>
      <point x="448" y="332" type="curve"/>
      <point x="402" y="307"/>
      <point x="393" y="264"/>
      <point x="394" y="204" type="curve"/>
      <point x="423" y="154"/>
      <point x="474" y="121"/>
      <point x="545" y="102" type="curve"/>
      <point x="611" y="93"/>
      <point x="711" y="113"/>
      <point x="753" y="161" type="curve"/>
      <point x="806" y="280"/>
      <point x="862" y="543"/>
      <point x="851" y="684" type="curve"/>
      <point x="822" y="736"/>
      <point x="774" y="761"/>
      <point x="690" y="761" type="curve"/>
      <point x="636" y="709"/>
      <point x="512" y="646"/>
      <point x="436" y="617" type="curve"/>
      <point x="408" y="600"/>
      <point x="397" y="560"/>
      <point x="392" y="523" type="curve"/>
      <point x="419" y="471"/>
      <point x="468" y="426"/>
      <point x="549" y="395" type="curve"/>
      <point x="712" y="463" type="line"/>
      <point x="688" y="509" type="line"/>
      <point x="575" y="482" type="line"/>
      <point x="560" y="487"/>
      <point x="538" y="519"/>
      <point x="532" y="534" type="curve"/>
      <point x="577" y="558"/>
      <point x="630" y="591"/>
      <point x="663" y="611" type="curve"/>
      <point x="677" y="605" type="line"/>
      <point x="677" y="571"/>
      <point x="673" y="522"/>
      <point x="666" y="476" type="curve"/>
      <point x="686" y="442" type="line"/>
    </contour>
    <contour>
      <point x="942" y="414" type="line"/>
      <point x="898" y="220" type="line"/>
      <point x="819" y="159"/>
      <point x="662" y="62"/>
      <point x="540" y="28" type="curve"/>
      <point x="517" y="-28"/>
      <point x="549" y="-77"/>
      <point x="626" y="-100" type="curve"/>
      <point x="723" y="-40"/>
      <point x="851" y="57"/>
      <point x="908" y="120" type="curve"/>
      <point x="920" y="111" type="line"/>
      <point x="886" y="48" type="line"/>
      <point x="968" y="-5"/>
      <point x="1086" y="-15"/>
      <point x="1126" y="25" type="curve"/>
      <point x="1114" y="337" type="line"/>
      <point x="1201" y="453" type="line"/>
      <point x="1171" y="507"/>
      <point x="1113" y="529"/>
      <point x="965" y="514" type="curve"/>
      <point x="931" y="421" type="line"/>
    </contour>
  </outline>
</glyph>
<glyph name="dvB_JxA" format="1">
  <advance width="1270"/>
  <outline>
    <contour>
      <point x="634" y="565" type="line"/>
      <point x="651" y="577"/>
      <point x="659" y="595"/>
      <point x="663" y="612" type="curve"/>
      <point x="651" y="627" type="line"/>
      <point x="3" y="627" type="line"/>
      <point x="-14" y="615"/>
      <point x="-26" y="597"/>
      <point x="-34" y="584" type="curve"/>
      <point x="-14" y="565" type="line"/>
    </contour>
    <contour>
      <point x="419" y="227" type="curve"/>
      <point x="456" y="265" type="line"/>
      <point x="393" y="312"/>
      <point x="336" y="369"/>
      <point x="299" y="410" type="curve"/>
      <point x="271" y="347" type="line"/>
      <point x="301" y="311"/>
      <point x="384" y="247"/>
    </contour>
    <contour>
      <point x="464" y="321" type="line"/>
      <point x="425" y="286"/>
      <point x="356" y="235"/>
      <point x="293" y="190" type="curve"/>
      <point x="267" y="206"/>
      <point x="252" y="231"/>
      <point x="252" y="268" type="curve" smooth="yes"/>
      <point x="252" y="329"/>
      <point x="317" y="395"/>
      <point x="375" y="422" type="curve"/>
      <point x="406" y="401"/>
      <point x="442" y="366"/>
      <point x="467" y="337" type="curve"/>
      <point x="520" y="377" type="line"/>
      <point x="491" y="421"/>
      <point x="415" y="509"/>
      <point x="355" y="530" type="curve"/>
      <point x="199" y="530"/>
      <point x="34" y="396"/>
      <point x="34" y="259" type="curve" smooth="yes"/>
      <point x="34" y="140"/>
      <point x="147" y="75"/>
      <point x="291" y="75" type="curve"/>
      <point x="358" y="140"/>
      <point x="466" y="241"/>
      <point x="504" y="279" type="curve"/>
    </contour>
    <contour>
      <point x="1270" y="597" type="line"/>
      <point x="1240" y="651"/>
      <point x="1182" y="673"/>
      <point x="1034" y="658" type="curve"/>
      <point x="966" y="339" type="line"/>
      <point x="988" y="313" type="line"/>
      <point x="948" y="255" type="line"/>
      <point x="905" y="64" type="line"/>
      <point x="995" y="-5"/>
      <point x="1129" y="-17"/>
      <point x="1168" y="25" type="curve"/>
      <point x="1172" y="419" type="line"/>
    </contour>
    <contour>
      <point x="1395" y="565" type="line"/>
      <point x="1412" y="577"/>
      <point x="1420" y="595"/>
      <point x="1424" y="612" type="curve"/>
      <point x="1412" y="627" type="line"/>
      <point x="380" y="627" type="line"/>
      <point x="363" y="615"/>
      <point x="351" y="597"/>
      <point x="343" y="584" type="curve"/>
      <point x="363" y="565" type="line"/>
    </contour>
    <contour>
      <point x="551" y="533" type="curve"/>
      <point x="470" y="477"/>
      <point x="411" y="381"/>
      <point x="397" y="306" type="curve"/>
      <point x="402" y="194"/>
      <point x="497" y="112"/>
      <point x="589" y="79" type="curve"/>
      <point x="700" y="71"/>
      <point x="851" y="149"/>
      <point x="855" y="243" type="curve"/>
      <point x="848" y="279" type="line"/>
      <point x="853" y="285" type="line"/>
      <point x="883" y="287" type="line"/>
      <point x="944" y="294"/>
      <point x="1006" y="325"/>
      <point x="1039" y="383" type="curve"/>
      <point x="986" y="434" type="line"/>
      <point x="964" y="411"/>
      <point x="915" y="383"/>
      <point x="881" y="383" type="curve" smooth="yes"/>
      <point x="867" y="383"/>
      <point x="843" y="413"/>
      <point x="827" y="437" type="curve"/>
      <point x="756" y="443"/>
      <point x="706" y="396"/>
      <point x="684" y="304" type="curve"/>
      <point x="696" y="297"/>
      <point x="706" y="289"/>
      <point x="717" y="282" type="curve"/>
      <point x="713" y="245"/>
      <point x="660" y="200"/>
      <point x="611" y="193" type="curve"/>
      <point x="597" y="217"/>
      <point x="591" y="251"/>
      <point x="594" y="281" type="curve" smooth="yes"/>
      <point x="600" y="339"/>
      <point x="650" y="386"/>
      <point x="699" y="421" type="curve"/>
      <point x="706" y="486"/>
      <point x="648" y="533"/>
    </contour>
    <contour>
      <point x="623" y="-140" type="curve" smooth="yes"/>
      <point x="667" y="-140"/>
      <point x="703" y="-104"/>
      <point x="703" y="-60" type="curve" smooth="yes"/>
      <point x="703" y="-16"/>
      <point x="667" y="20"/>
      <point x="623" y="20" type="curve" smooth="yes"/>
      <point x="577" y="20"/>
      <point x="541" y="-16"/>
      <point x="541" y="-60" type="curve" smooth="yes"/>
      <point x="541" y="-104"/>
      <point x="577" y="-140"/>
    </contour>
  </outline>
</glyph>
<glyph name="dvB_R" format="1">
  <advance width="359"/>
  <outline>
    <contour>
      <point x="634" y="565" type="line"/>
      <point x="651" y="577"/>
      <point x="659" y="595"/>
      <point x="663" y="612" type="curve"/>
      <point x="651" y="627" type="line"/>
      <point x="3" y="627" type="line"/>
      <point x="-14" y="615"/>
      <point x="-26" y="597"/>
      <point x="-34" y="584" type="curve"/>
      <point x="-14" y="565" type="line"/>
    </contour>
    <contour>
      <point x="418" y="301" type="line"/>
      <point x="369" y="342"/>
      <point x="326" y="386"/>
      <point x="296" y="419" type="curve"/>
      <point x="268" y="356" type="line"/>
      <point x="290" y="330"/>
      <point x="340" y="288"/>
      <point x="380" y="260" type="curve"/>
    </contour>
    <contour>
      <point x="511" y="366" type="line"/>
      <point x="476" y="408"/>
      <point x="400" y="500"/>
      <point x="352" y="526" type="curve"/>
      <point x="157" y="513"/>
      <point x="51" y="389"/>
      <point x="51" y="283" type="curve" smooth="yes"/>
      <point x="51" y="203"/>
      <point x="112" y="133"/>
      <point x="240" y="130" type="curve"/>
      <point x="287" y="164"/>
      <point x="412" y="235"/>
      <point x="469" y="280" type="curve"/>
      <point x="434" y="317" type="line"/>
      <point x="395" y="296"/>
      <point x="340" y="268"/>
      <point x="285" y="243" type="curve"/>
      <point x="256" y="261"/>
      <point x="243" y="280"/>
      <point x="243" y="300" type="curve" smooth="yes"/>
      <point x="243" y="339"/>
      <point x="294" y="379"/>
      <point x="365" y="412" type="curve"/>
      <point x="396" y="386"/>
      <point x="432" y="350"/>
      <point x="457" y="328" type="curve"/>
    </contour>
    <contour>
      <point x="411" y="249" type="line"/>
      <point x="430" y="224" type="line"/>
      <point x="328" y="137"/>
      <point x="193" y="70"/>
      <point x="48" y="28" type="curve"/>
      <point x="25" y="-28"/>
      <point x="57" y="-77"/>
      <point x="134" y="-100" type="curve"/>
      <point x="304" y="8"/>
      <point x="465" y="142"/>
      <point x="512" y="233" type="curve"/>
      <point x="452" y="298" type="line"/>
    </contour>
  </outline>
</glyph>
<glyph name="dvB_RA" format="1">
  <advance width="734"/>
  <outline>
    <contour>
      <point x="286" y="244" type="curve"/>
      <point x="272" y="258"/>
      <point x="266" y="274"/>
      <point x="266" y="291" type="curve"/>
      <point x="266" y="344"/>
      <point x="293" y="386"/>
      <point x="365" y="412" type="curve"/>
      <point x="392" y="391"/>
      <point x="416" y="365"/>
      <point x="444" y="336" type="curve"/>
      <point x="441" y="322" type="line"/>
      <point x="384" y="292"/>
      <point x="340" y="265"/>
    </contour>
    <contour>
      <point x="862" y="565" type="line"/>
      <point x="879" y="577"/>
      <point x="887" y="595"/>
      <point x="891" y="612" type="curve"/>
      <point x="879" y="627" type="line"/>
      <point x="3" y="627" type="line"/>
      <point x="-14" y="615"/>
      <point x="-26" y="597"/>
      <point x="-34" y="584" type="curve"/>
      <point x="-14" y="565" type="line"/>
    </contour>
    <contour>
      <point x="48" y="28" type="curve"/>
      <point x="25" y="-28"/>
      <point x="57" y="-77"/>
      <point x="134" y="-100" type="curve"/>
      <point x="231" y="-40"/>
      <point x="359" y="57"/>
      <point x="416" y="120" type="curve"/>
      <point x="428" y="111" type="line"/>
      <point x="394" y="48" type="line"/>
      <point x="476" y="-5"/>
      <point x="594" y="-15"/>
      <point x="634" y="25" type="curve"/>
      <point x="639" y="419" type="line"/>
      <point x="736" y="597" type="line"/>
      <point x="706" y="651"/>
      <point x="648" y="673"/>
      <point x="500" y="658" type="curve"/>
      <point x="469" y="428" type="line"/>
      <point x="462" y="424" type="line"/>
      <point x="426" y="463"/>
      <point x="371" y="525"/>
      <point x="349" y="525" type="curve"/>
      <point x="192" y="525"/>
      <point x="51" y="403"/>
      <point x="51" y="286" type="curve" smooth="yes"/>
      <point x="51" y="193"/>
      <point x="136" y="130"/>
      <point x="240" y="130" type="curve"/>
      <point x="326" y="187"/>
      <point x="372" y="217"/>
      <point x="441" y="255" type="curve"/>
      <point x="451" y="242" type="line"/>
      <point x="349" y="145"/>
      <point x="193" y="70"/>
    </contour>
    <contour>
      <point x="398" y="252" type="curve"/>
      <point x="435" y="290" type="line"/>
      <point x="372" y="337"/>
      <point x="330" y="378"/>
      <point x="293" y="419" type="curve"/>
      <point x="250" y="372" type="line"/>
      <point x="280" y="336"/>
      <point x="363" y="272"/>
    </contour>
  </outline>
</glyph>
<glyph name="dvB_SHA" format="1">
  <advance width="1280"/>
  <outline>
    <contour>
      <point x="399" y="227" type="curve"/>
      <point x="436" y="265" type="line"/>
      <point x="373" y="312"/>
      <point x="316" y="369"/>
      <point x="279" y="410" type="curve"/>
      <point x="251" y="347" type="line"/>
      <point x="281" y="311"/>
      <point x="364" y="247"/>
    </contour>
    <contour>
      <point x="439" y="322" type="line"/>
      <point x="390" y="282"/>
      <point x="330" y="235"/>
      <point x="285" y="201" type="curve"/>
      <point x="262" y="213"/>
      <point x="250" y="235"/>
      <point x="250" y="268" type="curve" smooth="yes"/>
      <point x="250" y="316"/>
      <point x="292" y="378"/>
      <point x="364" y="412" type="curve"/>
      <point x="389" y="393"/>
      <point x="419" y="353"/>
      <point x="443" y="327" type="curve"/>
      <point x="499" y="369" type="line"/>
      <point x="459" y="421"/>
      <point x="370" y="527"/>
      <point x="348" y="525" type="curve"/>
      <point x="191" y="525"/>
      <point x="30" y="386"/>
      <point x="30" y="253" type="curve" smooth="yes"/>
      <point x="30" y="151"/>
      <point x="135" y="87"/>
      <point x="276" y="87" type="curve"/>
      <point x="333" y="140"/>
      <point x="430" y="228"/>
      <point x="479" y="275" type="curve"/>
    </contour>
    <contour>
      <point x="584" y="565" type="line"/>
      <point x="601" y="577"/>
      <point x="609" y="595"/>
      <point x="613" y="612" type="curve"/>
      <point x="601" y="627" type="line"/>
      <point x="3" y="627" type="line"/>
      <point x="-14" y="615"/>
      <point x="-26" y="597"/>
      <point x="-34" y="584" type="curve"/>
      <point x="-14" y="565" type="line"/>
    </contour>
    <contour>
      <point x="1283" y="597" type="line"/>
      <point x="1253" y="651"/>
      <point x="1195" y="673"/>
      <point x="1047" y="658" type="curve"/>
      <point x="918" y="64" type="line"/>
      <point x="1008" y="-5"/>
      <point x="1142" y="-17"/>
      <point x="1181" y="25" type="curve"/>
      <point x="1185" y="419" type="line"/>
    </contour>
    <contour>
      <point x="1408" y="565" type="line"/>
      <point x="1425" y="577"/>
      <point x="1433" y="595"/>
      <point x="1437" y="612" type="curve"/>
      <point x="1425" y="627" type="line"/>
      <point x="973" y="627" type="line"/>
      <point x="956" y="615"/>
      <point x="944" y="597"/>
      <point x="936" y="584" type="curve"/>
      <point x="956" y="565" type="line"/>
    </contour>
    <contour>
      <point x="736" y="529" type="curve"/>
      <point x="736" y="444"/>
      <point x="660" y="348"/>
      <point x="537" y="323" type="curve"/>
      <point x="523" y="340"/>
      <point x="510" y="356"/>
      <point x="496" y="373" type="curve"/>
      <point x="425" y="374"/>
      <point x="369" y="316"/>
      <point x="365" y="235" type="curve"/>
      <point x="425" y="141"/>
      <point x="570" y="34"/>
      <point x="729" y="-3" type="curve"/>
      <point x="821" y="37"/>
      <point x="868" y="149"/>
      <point x="811" y="201" type="curve"/>
      <point x="698" y="205"/>
      <point x="652" y="217"/>
      <point x="575" y="260" type="curve"/>
      <point x="578" y="268" type="line"/>
      <point x="733" y="268"/>
      <point x="908" y="413"/>
      <point x="908" y="533" type="curve" smooth="yes"/>
      <point x="908" y="611"/>
      <point x="819" y="728"/>
      <point x="713" y="761" type="curve"/>
      <point x="599" y="749"/>
      <point x="488" y="669"/>
      <point x="464" y="577" type="curve"/>
      <point x="479" y="520"/>
      <point x="514" y="474"/>
      <point x="564" y="437" type="curve"/>
      <point x="766" y="403" type="line"/>
      <point x="776" y="449" type="line"/>
      <point x="657" y="490" type="line"/>
      <point x="636" y="515"/>
      <point x="628" y="537"/>
      <point x="628" y="554" type="curve" smooth="yes"/>
      <point x="628" y="582"/>
      <point x="651" y="614"/>
      <point x="681" y="625" type="curve"/>
      <point x="718" y="599"/>
      <point x="736" y="564"/>
    </contour>
  </outline>
</glyph>
<glyph name="dvB_TA" format="1">
  <advance width="1124"/>
  <outline>
    <contour>
      <point x="419" y="227" type="curve"/>
      <point x="456" y="265" type="line"/>
      <point x="393" y="312"/>
      <point x="336" y="369"/>
      <point x="299" y="410" type="curve"/>
      <point x="271" y="347" type="line"/>
      <point x="301" y="311"/>
      <point x="384" y="247"/>
    </contour>
    <contour>
      <point x="464" y="321" type="line"/>
      <point x="425" y="286"/>
      <point x="356" y="235"/>
      <point x="293" y="190" type="curve"/>
      <point x="267" y="206"/>
      <point x="252" y="231"/>
      <point x="252" y="268" type="curve" smooth="yes"/>
      <point x="252" y="329"/>
      <point x="317" y="395"/>
      <point x="375" y="422" type="curve"/>
      <point x="406" y="401"/>
      <point x="442" y="366"/>
      <point x="467" y="337" type="curve"/>
      <point x="520" y="377" type="line"/>
      <point x="491" y="421"/>
      <point x="415" y="509"/>
      <point x="355" y="530" type="curve"/>
      <point x="199" y="530"/>
      <point x="34" y="396"/>
      <point x="34" y="259" type="curve" smooth="yes"/>
      <point x="34" y="140"/>
      <point x="147" y="75"/>
      <point x="291" y="75" type="curve"/>
      <point x="358" y="140"/>
      <point x="466" y="241"/>
      <point x="504" y="279" type="curve"/>
    </contour>
    <contour>
      <point x="634" y="565" type="line"/>
      <point x="651" y="577"/>
      <point x="659" y="595"/>
      <point x="663" y="612" type="curve"/>
      <point x="651" y="627" type="line"/>
      <point x="3" y="627" type="line"/>
      <point x="-14" y="615"/>
      <point x="-26" y="597"/>
      <point x="-34" y="584" type="curve"/>
      <point x="-14" y="565" type="line"/>
    </contour>
    <contour>
      <point x="1127" y="597" type="line"/>
      <point x="1097" y="651"/>
      <point x="1039" y="673"/>
      <point x="891" y="658" type="curve"/>
      <point x="830" y="378" type="line"/>
      <point x="849" y="344" type="line"/>
      <point x="812" y="292" type="line"/>
      <point x="762" y="64" type="line"/>
      <point x="852" y="-5"/>
      <point x="986" y="-17"/>
      <point x="1025" y="25" type="curve"/>
      <point x="1029" y="419" type="line"/>
    </contour>
    <contour>
      <point x="1252" y="565" type="line"/>
      <point x="1269" y="577"/>
      <point x="1277" y="595"/>
      <point x="1281" y="612" type="curve"/>
      <point x="1269" y="627" type="line"/>
      <point x="405" y="627" type="line"/>
      <point x="388" y="615"/>
      <point x="376" y="597"/>
      <point x="368" y="584" type="curve"/>
      <point x="388" y="565" type="line"/>
    </contour>
    <contour>
      <point x="847" y="455" type="line"/>
      <point x="756" y="400"/>
      <point x="629" y="373"/>
      <point x="510" y="376" type="curve"/>
      <point x="459" y="354"/>
      <point x="438" y="306"/>
      <point x="415" y="217" type="curve"/>
      <point x="438" y="148"/>
      <point x="515" y="63"/>
      <point x="613" y="0" type="curve"/>
      <point x="670" y="23"/>
      <point x="699" y="54"/>
      <point x="694" y="93" type="curve"/>
      <point x="648" y="147"/>
      <point x="628" y="177"/>
      <point x="612" y="222" type="curve"/>
      <point x="614" y="236"/>
      <point x="620" y="249"/>
      <point x="628" y="259" type="curve"/>
      <point x="705" y="281"/>
      <point x="797" y="320"/>
      <point x="882" y="383" type="curve"/>
    </contour>
  </outline>
</glyph>
<glyph name="dvCA" format="1">
  <advance width="866"/>
  <outline>
    <contour>
      <point x="869" y="597" type="line"/>
      <point x="839" y="651"/>
      <point x="781" y="673"/>
      <point x="633" y="658" type="curve"/>
      <point x="548" y="268" type="line"/>
      <point x="570" y="251" type="line"/>
      <point x="530" y="184" type="line"/>
      <point x="504" y="64" type="line"/>
      <point x="594" y="-5"/>
      <point x="728" y="-17"/>
      <point x="767" y="25" type="curve"/>
      <point x="771" y="419" type="line"/>
    </contour>
    <contour>
      <point x="994" y="565" type="line"/>
      <point x="1011" y="577"/>
      <point x="1019" y="595"/>
      <point x="1023" y="612" type="curve"/>
      <point x="1011" y="627" type="line"/>
      <point x="-17" y="627" type="line"/>
      <point x="-34" y="615"/>
      <point x="-46" y="597"/>
      <point x="-54" y="584" type="curve"/>
      <point x="-34" y="565" type="line"/>
    </contour>
    <contour>
      <point x="73" y="339" type="curve"/>
      <point x="168" y="358"/>
      <point x="245" y="369"/>
      <point x="325" y="383" type="curve"/>
      <point x="333" y="374" type="line"/>
      <point x="215" y="311"/>
      <point x="81" y="302"/>
      <point x="81" y="230" type="curve" smooth="yes"/>
      <point x="81" y="166"/>
      <point x="187" y="94"/>
      <point x="289" y="78" type="curve"/>
      <point x="421" y="132"/>
      <point x="550" y="241"/>
      <point x="615" y="321" type="curve"/>
      <point x="573" y="376" type="line"/>
      <point x="499" y="301"/>
      <point x="432" y="263"/>
      <point x="338" y="230" type="curve"/>
      <point x="331" y="235"/>
      <point x="325" y="241"/>
      <point x="318" y="246" type="curve"/>
      <point x="382" y="283"/>
      <point x="420" y="309"/>
      <point x="477" y="339" type="curve"/>
      <point x="511" y="399"/>
      <point x="475" y="466"/>
      <point x="407" y="505" type="curve"/>
      <point x="282" y="497"/>
      <point x="162" y="494"/>
      <point x="34" y="510" type="curve"/>
      <point x="-13" y="479"/>
      <point x="-10" y="392"/>
    </contour>
  </outline>
</glyph>
<glyph name="dvCH_RA" format="1">
  <advance width="870"/>
  <outline>
    <contour>
      <point x="604" y="397"/>
      <point x="611" y="403"/>
      <point x="619" y="405" type="curve"/>
      <point x="635" y="402"/>
      <point x="670" y="383"/>
      <point x="684" y="358" type="curve"/>
      <point x="674" y="339"/>
      <point x="658" y="319"/>
      <point x="637" y="300" type="curve"/>
      <point x="614" y="330"/>
      <point x="598" y="359"/>
      <point x="599" y="388" type="curve"/>
    </contour>
    <contour>
      <point x="818" y="435"/>
      <point x="703" y="514"/>
      <point x="619" y="536" type="curve"/>
      <point x="562" y="531"/>
      <point x="497" y="486"/>
      <point x="461" y="433" type="curve"/>
      <point x="445" y="348"/>
      <point x="482" y="282"/>
      <point x="529" y="223" type="curve"/>
      <point x="462" y="185"/>
      <point x="382" y="155"/>
      <point x="306" y="145" type="curve"/>
      <point x="297" y="154" type="line"/>
      <point x="337" y="201"/>
      <point x="382" y="247"/>
      <point x="428" y="276" type="curve"/>
      <point x="452" y="345"/>
      <point x="408" y="406"/>
      <point x="321" y="448" type="curve"/>
      <point x="297" y="440"/>
      <point x="254" y="423"/>
      <point x="225" y="417" type="curve"/>
      <point x="218" y="427" type="line"/>
      <point x="269" y="471"/>
      <point x="364" y="535"/>
      <point x="458" y="565" type="curve"/>
      <point x="403" y="618" type="line"/>
      <point x="257" y="599"/>
      <point x="117" y="545"/>
      <point x="33" y="479" type="curve"/>
      <point x="2" y="411"/>
      <point x="64" y="334"/>
      <point x="143" y="298" type="curve"/>
      <point x="187" y="312"/>
      <point x="233" y="327"/>
      <point x="265" y="340" type="curve"/>
      <point x="272" y="328" type="line"/>
      <point x="196" y="285"/>
      <point x="96" y="222"/>
      <point x="96" y="168" type="curve" smooth="yes"/>
      <point x="96" y="85"/>
      <point x="178" y="27"/>
      <point x="272" y="4" type="curve"/>
      <point x="321" y="15"/>
      <point x="411" y="57"/>
      <point x="467" y="92" type="curve"/>
      <point x="474" y="85" type="line"/>
      <point x="403" y="22"/>
      <point x="226" y="-93"/>
      <point x="179" y="-116" type="curve"/>
      <point x="167" y="-175"/>
      <point x="207" y="-218"/>
      <point x="288" y="-226" type="curve"/>
      <point x="391" y="-158"/>
      <point x="568" y="29"/>
      <point x="618" y="126" type="curve"/>
      <point x="629" y="112"/>
      <point x="649" y="85"/>
      <point x="660" y="66" type="curve"/>
      <point x="626" y="0"/>
      <point x="581" y="-64"/>
      <point x="511" y="-127" type="curve"/>
      <point x="523" y="-186"/>
      <point x="570" y="-238"/>
      <point x="677" y="-232" type="curve"/>
      <point x="753" y="-126"/>
      <point x="782" y="-60"/>
      <point x="798" y="66" type="curve"/>
      <point x="785" y="124"/>
      <point x="748" y="173"/>
      <point x="709" y="217" type="curve"/>
      <point x="757" y="258"/>
      <point x="818" y="322"/>
      <point x="818" y="363" type="curve" smooth="yes"/>
    </contour>
    <contour>
      <point x="978" y="565" type="line"/>
      <point x="995" y="577"/>
      <point x="1003" y="595"/>
      <point x="1007" y="612" type="curve"/>
      <point x="995" y="627" type="line"/>
      <point x="5" y="627" type="line"/>
      <point x="-13" y="615"/>
      <point x="-26" y="597"/>
      <point x="-34" y="584" type="curve"/>
      <point x="-13" y="565" type="line"/>
    </contour>
    <contour>
      <point x="578" y="-229" type="move" name="blwm"/>
    </contour>
    <contour>
      <point x="581" y="628" type="move" name="abvm"/>
    </contour>
  </outline>
</glyph>
<glyph name="dvCH_YA" format="1">
  <advance width="1706"/>
  <outline>
    <contour>
      <point x="1656" y="597" type="line"/>
      <point x="1626" y="651"/>
      <point x="1568" y="673"/>
      <point x="1420" y="658" type="curve"/>
      <point x="1334" y="262" type="line"/>
      <point x="1362" y="231" type="line"/>
      <point x="1315" y="171" type="line"/>
      <point x="1291" y="64" type="line"/>
      <point x="1381" y="-5"/>
      <point x="1515" y="-17"/>
      <point x="1554" y="25" type="curve"/>
      <point x="1558" y="419" type="line"/>
    </contour>
    <contour>
      <point x="1781" y="565" type="line"/>
      <point x="1798" y="577"/>
      <point x="1806" y="595"/>
      <point x="1810" y="612" type="curve"/>
      <point x="1798" y="627" type="line"/>
      <point x="822" y="627" type="line"/>
      <point x="804" y="615"/>
      <point x="791" y="597"/>
      <point x="783" y="584" type="curve"/>
      <point x="804" y="565" type="line"/>
    </contour>
    <contour>
      <point x="978" y="565" type="line"/>
      <point x="995" y="577"/>
      <point x="1003" y="595"/>
      <point x="1007" y="612" type="curve"/>
      <point x="995" y="627" type="line"/>
      <point x="5" y="627" type="line"/>
      <point x="-13" y="615"/>
      <point x="-26" y="597"/>
      <point x="-34" y="584" type="curve"/>
      <point x="-13" y="565" type="line"/>
    </contour>
    <contour>
      <point x="684" y="252" type="line"/>
      <point x="618" y="302"/>
      <point x="600" y="338"/>
      <point x="598" y="381" type="curve"/>
      <point x="603" y="390"/>
      <point x="610" y="396"/>
      <point x="618" y="398" type="curve"/>
      <point x="634" y="395"/>
      <point x="676" y="376"/>
      <point x="696" y="349" type="curve"/>
      <point x="623" y="241"/>
      <point x="432" y="136"/>
      <point x="303" y="118" type="curve"/>
      <point x="294" y="127" type="line"/>
      <point x="318" y="169"/>
      <point x="387" y="246"/>
      <point x="435" y="282" type="curve"/>
      <point x="455" y="365"/>
      <point x="397" y="415"/>
      <point x="321" y="448" type="curve"/>
      <point x="287" y="440"/>
      <point x="256" y="423"/>
      <point x="227" y="417" type="curve"/>
      <point x="220" y="427" type="line"/>
      <point x="271" y="471"/>
      <point x="374" y="535"/>
      <point x="468" y="565" type="curve"/>
      <point x="412" y="618" type="line"/>
      <point x="261" y="595"/>
      <point x="124" y="548"/>
      <point x="34" y="479" type="curve"/>
      <point x="5" y="411"/>
      <point x="69" y="325"/>
      <point x="149" y="289" type="curve"/>
      <point x="192" y="303"/>
      <point x="238" y="318"/>
      <point x="270" y="331" type="curve"/>
      <point x="277" y="319" type="line"/>
      <point x="185" y="266"/>
      <point x="110" y="201"/>
      <point x="111" y="139" type="curve" smooth="yes"/>
      <point x="112" y="69"/>
      <point x="194" y="7"/>
      <point x="300" y="-16" type="curve"/>
      <point x="489" y="0"/>
      <point x="825" y="203"/>
      <point x="825" y="352" type="curve" smooth="yes"/>
      <point x="825" y="430"/>
      <point x="718" y="500"/>
      <point x="602" y="522" type="curve"/>
      <point x="542" y="509"/>
      <point x="489" y="461"/>
      <point x="456" y="406" type="curve"/>
      <point x="461" y="315"/>
      <point x="535" y="234"/>
      <point x="625" y="194" type="curve"/>
    </contour>
    <contour>
      <point x="749" y="387" type="line"/>
      <point x="873" y="425"/>
      <point x="987" y="451"/>
      <point x="1119" y="440" type="curve"/>
      <point x="1097" y="328"/>
      <point x="873" y="321"/>
      <point x="873" y="243" type="curve" smooth="yes"/>
      <point x="873" y="165"/>
      <point x="1005" y="83"/>
      <point x="1080" y="82" type="curve" smooth="yes"/>
      <point x="1174" y="81"/>
      <point x="1319" y="212"/>
      <point x="1405" y="297" type="curve"/>
      <point x="1351" y="336" type="line"/>
      <point x="1297" y="280"/>
      <point x="1229" y="232"/>
      <point x="1176" y="203" type="curve"/>
      <point x="1144" y="209"/>
      <point x="1115" y="224"/>
      <point x="1120" y="254" type="curve"/>
      <point x="1208" y="314"/>
      <point x="1287" y="371"/>
      <point x="1287" y="450" type="curve" smooth="yes"/>
      <point x="1287" y="500"/>
      <point x="1212" y="541"/>
      <point x="1124" y="550" type="curve"/>
      <point x="995" y="542"/>
      <point x="823" y="503"/>
      <point x="714" y="457" type="curve"/>
    </contour>
  </outline>
</glyph>
<glyph name="dvC_CA" format="1">
  <advance width="1414"/>
  <outline>
    <contour>
      <point x="702" y="565" type="line"/>
      <point x="719" y="577"/>
      <point x="727" y="595"/>
      <point x="731" y="612" type="curve"/>
      <point x="719" y="627" type="line"/>
      <point x="-17" y="627" type="line"/>
      <point x="-34" y="615"/>
      <point x="-46" y="597"/>
      <point x="-54" y="584" type="curve"/>
      <point x="-34" y="565" type="line"/>
    </contour>
    <contour>
      <point x="73" y="339" type="curve"/>
      <point x="168" y="358"/>
      <point x="245" y="369"/>
      <point x="325" y="383" type="curve"/>
      <point x="333" y="374" type="line"/>
      <point x="215" y="311"/>
      <point x="81" y="302"/>
      <point x="81" y="230" type="curve" smooth="yes"/>
      <point x="81" y="166"/>
      <point x="187" y="94"/>
      <point x="289" y="78" type="curve"/>
      <point x="400" y="118"/>
      <point x="564" y="251"/>
      <point x="650" y="345" type="curve"/>
      <point x="608" y="400" type="line"/>
      <point x="529" y="319"/>
      <point x="427" y="260"/>
      <point x="338" y="230" type="curve"/>
      <point x="331" y="235"/>
      <point x="325" y="241"/>
      <point x="318" y="246" type="curve"/>
      <point x="382" y="283"/>
      <point x="420" y="309"/>
      <point x="477" y="339" type="curve"/>
      <point x="511" y="399"/>
      <point x="475" y="466"/>
      <point x="407" y="505" type="curve"/>
      <point x="282" y="497"/>
      <point x="162" y="494"/>
      <point x="34" y="510" type="curve"/>
      <point x="-13" y="479"/>
      <point x="-10" y="392"/>
    </contour>
    <contour>
      <point x="1417" y="597" type="line"/>
      <point x="1387" y="651"/>
      <point x="1329" y="673"/>
      <point x="1181" y="658" type="curve"/>
      <point x="1096" y="268" type="line"/>
      <point x="1118" y="251" type="line"/>
      <point x="1078" y="184" type="line"/>
      <point x="1052" y="64" type="line"/>
      <point x="1142" y="-5"/>
      <point x="1276" y="-17"/>
      <point x="1315" y="25" type="curve"/>
      <point x="1319" y="419" type="line"/>
    </contour>
    <contour>
      <point x="1542" y="565" type="line"/>
      <point x="1559" y="577"/>
      <point x="1567" y="595"/>
      <point x="1571" y="612" type="curve"/>
      <point x="1559" y="627" type="line"/>
      <point x="531" y="627" type="line"/>
      <point x="514" y="615"/>
      <point x="502" y="597"/>
      <point x="494" y="584" type="curve"/>
      <point x="514" y="565" type="line"/>
    </contour>
    <contour>
      <point x="621" y="339" type="curve"/>
      <point x="716" y="358"/>
      <point x="793" y="369"/>
      <point x="873" y="383" type="curve"/>
      <point x="881" y="374" type="line"/>
      <point x="763" y="311"/>
      <point x="629" y="302"/>
      <point x="629" y="230" type="curve" smooth="yes"/>
      <point x="629" y="166"/>
      <point x="735" y="94"/>
      <point x="837" y="78" type="curve"/>
      <point x="969" y="132"/>
      <point x="1098" y="241"/>
      <point x="1163" y="321" type="curve"/>
      <point x="1121" y="376" type="line"/>
      <point x="1047" y="301"/>
      <point x="980" y="263"/>
      <point x="886" y="230" type="curve"/>
      <point x="879" y="235"/>
      <point x="873" y="241"/>
      <point x="866" y="246" type="curve"/>
      <point x="930" y="283"/>
      <point x="968" y="309"/>
      <point x="1025" y="339" type="curve"/>
      <point x="1059" y="399"/>
      <point x="1023" y="466"/>
      <point x="955" y="505" type="curve"/>
      <point x="830" y="497"/>
      <point x="710" y="494"/>
      <point x="582" y="510" type="curve"/>
      <point x="535" y="479"/>
      <point x="538" y="392"/>
    </contour>
  </outline>
</glyph>
